M48
; DRILL file {KiCad 5.1.5-52549c5~84~ubuntu18.04.1} date Thu 19 Dec 2019 12:36:30 PM CET
; FORMAT={-:-/ absolute / inch / decimal}
; #@! TF.CreationDate,2019-12-19T12:36:30+01:00
; #@! TF.GenerationSoftware,Kicad,Pcbnew,5.1.5-52549c5~84~ubuntu18.04.1
FMAT,2
INCH
T1C0.0079
T2C0.0157
T3C0.0217
T4C0.0402
T5C0.0433
%
G90
G05
T1
X5.8996Y-2.487
X5.937Y-2.4644
X5.937Y-2.5096
X5.9744Y-2.487
T2
X4.1161Y-2.6583
X4.3917Y-2.235
X4.428Y-2.6287
X4.4606Y-3.4161
X4.5Y-3.0421
X4.5Y-2.235
X4.5197Y-2.3039
X4.5394Y-3.3079
X4.5591Y-2.235
X4.5787Y-1.9594
X4.5886Y-3.1898
X4.5984Y-3.426
X4.6083Y-2.1858
X4.6181Y-2.7665
X4.7067Y-1.8118
X4.7756Y-3.0421
X4.7953Y-3.111
X4.8051Y-2.3531
X4.8051Y-2.8256
X4.9134Y-2.235
X4.9134Y-2.8748
X4.9477Y-3.0913
X4.9626Y-3.426
X5.002Y-2.1858
X5.0217Y-2.2941
X5.0315Y-2.5992
X5.0315Y-2.9929
X5.0315Y-3.1209
X5.0906Y-2.9831
X5.1496Y-2.7862
X5.2016Y-2.7343
X5.248Y-2.8157
X5.3465Y-2.3138
X5.4252Y-2.4713
X5.5531Y-2.4516
X5.6122Y-2.8453
X5.6319Y-2.9437
X5.6516Y-2.3236
X5.6811Y-2.235
X5.6811Y-2.9831
X5.7106Y-3.6622
X5.8189Y-2.2055
X6.0748Y-2.3541
X6.0846Y-2.6484
X6.1831Y-2.8453
T3
X5.8673Y-2.0382
X5.9173Y-2.0382
X5.9673Y-2.0382
X4.4295Y-2.0283
X4.4795Y-2.0283
X4.5295Y-2.0283
T4
X6.4094Y-2.8453
X4.372Y-3.3276
X4.815Y-3.8394
X6.4094Y-2.2941
X6.4094Y-2.4319
X6.4094Y-2.7075
X6.4094Y-2.5697
X4.372Y-2.8945
X6.4094Y-2.1563
X5.0906Y-3.8394
X4.9528Y-3.8394
X4.5394Y-3.8394
X4.6772Y-3.8394
X4.2638Y-3.8394
X4.4016Y-3.8394
X4.1063Y-3.3276
T5
X4.3717Y-3.5969
X4.3724Y-3.4969
X4.3717Y-3.1638
X4.3724Y-3.0638
T0
M30
