G04 #@! TF.GenerationSoftware,KiCad,Pcbnew,(5.1.7)-1*
G04 #@! TF.CreationDate,2020-10-28T11:25:42+01:00*
G04 #@! TF.ProjectId,E-Ink,452d496e-6b2e-46b6-9963-61645f706362,rev?*
G04 #@! TF.SameCoordinates,Original*
G04 #@! TF.FileFunction,Paste,Top*
G04 #@! TF.FilePolarity,Positive*
%FSLAX46Y46*%
G04 Gerber Fmt 4.6, Leading zero omitted, Abs format (unit mm)*
G04 Created by KiCad (PCBNEW (5.1.7)-1) date 2020-10-28 11:25:42*
%MOMM*%
%LPD*%
G01*
G04 APERTURE LIST*
%ADD10R,5.000000X5.000000*%
%ADD11O,3.000000X0.900000*%
%ADD12R,0.250000X0.750000*%
%ADD13R,0.800000X2.700000*%
%ADD14R,0.240000X0.600000*%
%ADD15R,2.100000X1.400000*%
G04 APERTURE END LIST*
D10*
X128260000Y-78900000D03*
D11*
X136860000Y-85820000D03*
X136860000Y-84550000D03*
X136860000Y-83280000D03*
X136860000Y-82010000D03*
X136860000Y-80740000D03*
X136860000Y-79470000D03*
X136860000Y-78200000D03*
X136860000Y-76930000D03*
X136860000Y-75660000D03*
X136860000Y-74390000D03*
X136860000Y-73120000D03*
X136860000Y-71850000D03*
X136860000Y-70580000D03*
X136860000Y-69310000D03*
X136860000Y-68010000D03*
X136860000Y-66740000D03*
X136860000Y-65470000D03*
X136860000Y-64200000D03*
X136860000Y-62930000D03*
X118860000Y-62930000D03*
X118860000Y-64200000D03*
X118860000Y-65470000D03*
X118860000Y-66740000D03*
X118860000Y-68010000D03*
X118830000Y-69310000D03*
X118830000Y-70580000D03*
X118830000Y-71850000D03*
X118830000Y-73120000D03*
X118830000Y-74390000D03*
X118830000Y-75660000D03*
X118830000Y-76930000D03*
X118830000Y-78200000D03*
X118830000Y-79470000D03*
X118830000Y-80740000D03*
X118830000Y-82010000D03*
X118830000Y-83280000D03*
X118830000Y-84550000D03*
X118830000Y-85820000D03*
G36*
G01*
X150777999Y-73287000D02*
X151678001Y-73287000D01*
G75*
G02*
X151928000Y-73536999I0J-249999D01*
G01*
X151928000Y-74237001D01*
G75*
G02*
X151678001Y-74487000I-249999J0D01*
G01*
X150777999Y-74487000D01*
G75*
G02*
X150528000Y-74237001I0J249999D01*
G01*
X150528000Y-73536999D01*
G75*
G02*
X150777999Y-73287000I249999J0D01*
G01*
G37*
G36*
G01*
X150777999Y-71287000D02*
X151678001Y-71287000D01*
G75*
G02*
X151928000Y-71536999I0J-249999D01*
G01*
X151928000Y-72237001D01*
G75*
G02*
X151678001Y-72487000I-249999J0D01*
G01*
X150777999Y-72487000D01*
G75*
G02*
X150528000Y-72237001I0J249999D01*
G01*
X150528000Y-71536999D01*
G75*
G02*
X150777999Y-71287000I249999J0D01*
G01*
G37*
G36*
G01*
X115610001Y-46595000D02*
X114709999Y-46595000D01*
G75*
G02*
X114460000Y-46345001I0J249999D01*
G01*
X114460000Y-45644999D01*
G75*
G02*
X114709999Y-45395000I249999J0D01*
G01*
X115610001Y-45395000D01*
G75*
G02*
X115860000Y-45644999I0J-249999D01*
G01*
X115860000Y-46345001D01*
G75*
G02*
X115610001Y-46595000I-249999J0D01*
G01*
G37*
G36*
G01*
X115610001Y-48595000D02*
X114709999Y-48595000D01*
G75*
G02*
X114460000Y-48345001I0J249999D01*
G01*
X114460000Y-47644999D01*
G75*
G02*
X114709999Y-47395000I249999J0D01*
G01*
X115610001Y-47395000D01*
G75*
G02*
X115860000Y-47644999I0J-249999D01*
G01*
X115860000Y-48345001D01*
G75*
G02*
X115610001Y-48595000I-249999J0D01*
G01*
G37*
G36*
G01*
X111165001Y-46579000D02*
X110264999Y-46579000D01*
G75*
G02*
X110015000Y-46329001I0J249999D01*
G01*
X110015000Y-45628999D01*
G75*
G02*
X110264999Y-45379000I249999J0D01*
G01*
X111165001Y-45379000D01*
G75*
G02*
X111415000Y-45628999I0J-249999D01*
G01*
X111415000Y-46329001D01*
G75*
G02*
X111165001Y-46579000I-249999J0D01*
G01*
G37*
G36*
G01*
X111165001Y-48579000D02*
X110264999Y-48579000D01*
G75*
G02*
X110015000Y-48329001I0J249999D01*
G01*
X110015000Y-47628999D01*
G75*
G02*
X110264999Y-47379000I249999J0D01*
G01*
X111165001Y-47379000D01*
G75*
G02*
X111415000Y-47628999I0J-249999D01*
G01*
X111415000Y-48329001D01*
G75*
G02*
X111165001Y-48579000I-249999J0D01*
G01*
G37*
D12*
X109308000Y-62520000D03*
X109308000Y-65020000D03*
X108300000Y-65020000D03*
X107800000Y-62520000D03*
X107300000Y-62520000D03*
X107300000Y-65020000D03*
X107800000Y-65020000D03*
X108800000Y-65020000D03*
X108800000Y-62520000D03*
X108300000Y-62520000D03*
G36*
G01*
X157250001Y-62820000D02*
X156349999Y-62820000D01*
G75*
G02*
X156100000Y-62570001I0J249999D01*
G01*
X156100000Y-61919999D01*
G75*
G02*
X156349999Y-61670000I249999J0D01*
G01*
X157250001Y-61670000D01*
G75*
G02*
X157500000Y-61919999I0J-249999D01*
G01*
X157500000Y-62570001D01*
G75*
G02*
X157250001Y-62820000I-249999J0D01*
G01*
G37*
G36*
G01*
X157250001Y-64870000D02*
X156349999Y-64870000D01*
G75*
G02*
X156100000Y-64620001I0J249999D01*
G01*
X156100000Y-63969999D01*
G75*
G02*
X156349999Y-63720000I249999J0D01*
G01*
X157250001Y-63720000D01*
G75*
G02*
X157500000Y-63969999I0J-249999D01*
G01*
X157500000Y-64620001D01*
G75*
G02*
X157250001Y-64870000I-249999J0D01*
G01*
G37*
G36*
G01*
X155000001Y-62820000D02*
X154099999Y-62820000D01*
G75*
G02*
X153850000Y-62570001I0J249999D01*
G01*
X153850000Y-61919999D01*
G75*
G02*
X154099999Y-61670000I249999J0D01*
G01*
X155000001Y-61670000D01*
G75*
G02*
X155250000Y-61919999I0J-249999D01*
G01*
X155250000Y-62570001D01*
G75*
G02*
X155000001Y-62820000I-249999J0D01*
G01*
G37*
G36*
G01*
X155000001Y-64870000D02*
X154099999Y-64870000D01*
G75*
G02*
X153850000Y-64620001I0J249999D01*
G01*
X153850000Y-63969999D01*
G75*
G02*
X154099999Y-63720000I249999J0D01*
G01*
X155000001Y-63720000D01*
G75*
G02*
X155250000Y-63969999I0J-249999D01*
G01*
X155250000Y-64620001D01*
G75*
G02*
X155000001Y-64870000I-249999J0D01*
G01*
G37*
G36*
G01*
X112000001Y-63320000D02*
X111099999Y-63320000D01*
G75*
G02*
X110850000Y-63070001I0J249999D01*
G01*
X110850000Y-62419999D01*
G75*
G02*
X111099999Y-62170000I249999J0D01*
G01*
X112000001Y-62170000D01*
G75*
G02*
X112250000Y-62419999I0J-249999D01*
G01*
X112250000Y-63070001D01*
G75*
G02*
X112000001Y-63320000I-249999J0D01*
G01*
G37*
G36*
G01*
X112000001Y-65370000D02*
X111099999Y-65370000D01*
G75*
G02*
X110850000Y-65120001I0J249999D01*
G01*
X110850000Y-64469999D01*
G75*
G02*
X111099999Y-64220000I249999J0D01*
G01*
X112000001Y-64220000D01*
G75*
G02*
X112250000Y-64469999I0J-249999D01*
G01*
X112250000Y-65120001D01*
G75*
G02*
X112000001Y-65370000I-249999J0D01*
G01*
G37*
G36*
G01*
X107500001Y-58820000D02*
X106599999Y-58820000D01*
G75*
G02*
X106350000Y-58570001I0J249999D01*
G01*
X106350000Y-57919999D01*
G75*
G02*
X106599999Y-57670000I249999J0D01*
G01*
X107500001Y-57670000D01*
G75*
G02*
X107750000Y-57919999I0J-249999D01*
G01*
X107750000Y-58570001D01*
G75*
G02*
X107500001Y-58820000I-249999J0D01*
G01*
G37*
G36*
G01*
X107500001Y-60870000D02*
X106599999Y-60870000D01*
G75*
G02*
X106350000Y-60620001I0J249999D01*
G01*
X106350000Y-59969999D01*
G75*
G02*
X106599999Y-59720000I249999J0D01*
G01*
X107500001Y-59720000D01*
G75*
G02*
X107750000Y-59969999I0J-249999D01*
G01*
X107750000Y-60620001D01*
G75*
G02*
X107500001Y-60870000I-249999J0D01*
G01*
G37*
G36*
G01*
X105250001Y-58820000D02*
X104349999Y-58820000D01*
G75*
G02*
X104100000Y-58570001I0J249999D01*
G01*
X104100000Y-57919999D01*
G75*
G02*
X104349999Y-57670000I249999J0D01*
G01*
X105250001Y-57670000D01*
G75*
G02*
X105500000Y-57919999I0J-249999D01*
G01*
X105500000Y-58570001D01*
G75*
G02*
X105250001Y-58820000I-249999J0D01*
G01*
G37*
G36*
G01*
X105250001Y-60870000D02*
X104349999Y-60870000D01*
G75*
G02*
X104100000Y-60620001I0J249999D01*
G01*
X104100000Y-59969999D01*
G75*
G02*
X104349999Y-59720000I249999J0D01*
G01*
X105250001Y-59720000D01*
G75*
G02*
X105500000Y-59969999I0J-249999D01*
G01*
X105500000Y-60620001D01*
G75*
G02*
X105250001Y-60870000I-249999J0D01*
G01*
G37*
G36*
G01*
X145500001Y-62820000D02*
X144599999Y-62820000D01*
G75*
G02*
X144350000Y-62570001I0J249999D01*
G01*
X144350000Y-61919999D01*
G75*
G02*
X144599999Y-61670000I249999J0D01*
G01*
X145500001Y-61670000D01*
G75*
G02*
X145750000Y-61919999I0J-249999D01*
G01*
X145750000Y-62570001D01*
G75*
G02*
X145500001Y-62820000I-249999J0D01*
G01*
G37*
G36*
G01*
X145500001Y-64870000D02*
X144599999Y-64870000D01*
G75*
G02*
X144350000Y-64620001I0J249999D01*
G01*
X144350000Y-63969999D01*
G75*
G02*
X144599999Y-63720000I249999J0D01*
G01*
X145500001Y-63720000D01*
G75*
G02*
X145750000Y-63969999I0J-249999D01*
G01*
X145750000Y-64620001D01*
G75*
G02*
X145500001Y-64870000I-249999J0D01*
G01*
G37*
G36*
G01*
X103250001Y-63320000D02*
X102349999Y-63320000D01*
G75*
G02*
X102100000Y-63070001I0J249999D01*
G01*
X102100000Y-62419999D01*
G75*
G02*
X102349999Y-62170000I249999J0D01*
G01*
X103250001Y-62170000D01*
G75*
G02*
X103500000Y-62419999I0J-249999D01*
G01*
X103500000Y-63070001D01*
G75*
G02*
X103250001Y-63320000I-249999J0D01*
G01*
G37*
G36*
G01*
X103250001Y-65370000D02*
X102349999Y-65370000D01*
G75*
G02*
X102100000Y-65120001I0J249999D01*
G01*
X102100000Y-64469999D01*
G75*
G02*
X102349999Y-64220000I249999J0D01*
G01*
X103250001Y-64220000D01*
G75*
G02*
X103500000Y-64469999I0J-249999D01*
G01*
X103500000Y-65120001D01*
G75*
G02*
X103250001Y-65370000I-249999J0D01*
G01*
G37*
G36*
G01*
X143250001Y-62820000D02*
X142349999Y-62820000D01*
G75*
G02*
X142100000Y-62570001I0J249999D01*
G01*
X142100000Y-61919999D01*
G75*
G02*
X142349999Y-61670000I249999J0D01*
G01*
X143250001Y-61670000D01*
G75*
G02*
X143500000Y-61919999I0J-249999D01*
G01*
X143500000Y-62570001D01*
G75*
G02*
X143250001Y-62820000I-249999J0D01*
G01*
G37*
G36*
G01*
X143250001Y-64870000D02*
X142349999Y-64870000D01*
G75*
G02*
X142100000Y-64620001I0J249999D01*
G01*
X142100000Y-63969999D01*
G75*
G02*
X142349999Y-63720000I249999J0D01*
G01*
X143250001Y-63720000D01*
G75*
G02*
X143500000Y-63969999I0J-249999D01*
G01*
X143500000Y-64620001D01*
G75*
G02*
X143250001Y-64870000I-249999J0D01*
G01*
G37*
G36*
G01*
X105500001Y-63320000D02*
X104599999Y-63320000D01*
G75*
G02*
X104350000Y-63070001I0J249999D01*
G01*
X104350000Y-62419999D01*
G75*
G02*
X104599999Y-62170000I249999J0D01*
G01*
X105500001Y-62170000D01*
G75*
G02*
X105750000Y-62419999I0J-249999D01*
G01*
X105750000Y-63070001D01*
G75*
G02*
X105500001Y-63320000I-249999J0D01*
G01*
G37*
G36*
G01*
X105500001Y-65370000D02*
X104599999Y-65370000D01*
G75*
G02*
X104350000Y-65120001I0J249999D01*
G01*
X104350000Y-64469999D01*
G75*
G02*
X104599999Y-64220000I249999J0D01*
G01*
X105500001Y-64220000D01*
G75*
G02*
X105750000Y-64469999I0J-249999D01*
G01*
X105750000Y-65120001D01*
G75*
G02*
X105500001Y-65370000I-249999J0D01*
G01*
G37*
G36*
G01*
X147750001Y-62820000D02*
X146849999Y-62820000D01*
G75*
G02*
X146600000Y-62570001I0J249999D01*
G01*
X146600000Y-61919999D01*
G75*
G02*
X146849999Y-61670000I249999J0D01*
G01*
X147750001Y-61670000D01*
G75*
G02*
X148000000Y-61919999I0J-249999D01*
G01*
X148000000Y-62570001D01*
G75*
G02*
X147750001Y-62820000I-249999J0D01*
G01*
G37*
G36*
G01*
X147750001Y-64870000D02*
X146849999Y-64870000D01*
G75*
G02*
X146600000Y-64620001I0J249999D01*
G01*
X146600000Y-63969999D01*
G75*
G02*
X146849999Y-63720000I249999J0D01*
G01*
X147750001Y-63720000D01*
G75*
G02*
X148000000Y-63969999I0J-249999D01*
G01*
X148000000Y-64620001D01*
G75*
G02*
X147750001Y-64870000I-249999J0D01*
G01*
G37*
G36*
G01*
X112550999Y-47420000D02*
X113451001Y-47420000D01*
G75*
G02*
X113701000Y-47669999I0J-249999D01*
G01*
X113701000Y-48320001D01*
G75*
G02*
X113451001Y-48570000I-249999J0D01*
G01*
X112550999Y-48570000D01*
G75*
G02*
X112301000Y-48320001I0J249999D01*
G01*
X112301000Y-47669999D01*
G75*
G02*
X112550999Y-47420000I249999J0D01*
G01*
G37*
G36*
G01*
X112550999Y-45370000D02*
X113451001Y-45370000D01*
G75*
G02*
X113701000Y-45619999I0J-249999D01*
G01*
X113701000Y-46270001D01*
G75*
G02*
X113451001Y-46520000I-249999J0D01*
G01*
X112550999Y-46520000D01*
G75*
G02*
X112301000Y-46270001I0J249999D01*
G01*
X112301000Y-45619999D01*
G75*
G02*
X112550999Y-45370000I249999J0D01*
G01*
G37*
G36*
G01*
X117750001Y-46520000D02*
X116849999Y-46520000D01*
G75*
G02*
X116600000Y-46270001I0J249999D01*
G01*
X116600000Y-45619999D01*
G75*
G02*
X116849999Y-45370000I249999J0D01*
G01*
X117750001Y-45370000D01*
G75*
G02*
X118000000Y-45619999I0J-249999D01*
G01*
X118000000Y-46270001D01*
G75*
G02*
X117750001Y-46520000I-249999J0D01*
G01*
G37*
G36*
G01*
X117750001Y-48570000D02*
X116849999Y-48570000D01*
G75*
G02*
X116600000Y-48320001I0J249999D01*
G01*
X116600000Y-47669999D01*
G75*
G02*
X116849999Y-47420000I249999J0D01*
G01*
X117750001Y-47420000D01*
G75*
G02*
X118000000Y-47669999I0J-249999D01*
G01*
X118000000Y-48320001D01*
G75*
G02*
X117750001Y-48570000I-249999J0D01*
G01*
G37*
G36*
G01*
X147099999Y-90220000D02*
X148000001Y-90220000D01*
G75*
G02*
X148250000Y-90469999I0J-249999D01*
G01*
X148250000Y-91120001D01*
G75*
G02*
X148000001Y-91370000I-249999J0D01*
G01*
X147099999Y-91370000D01*
G75*
G02*
X146850000Y-91120001I0J249999D01*
G01*
X146850000Y-90469999D01*
G75*
G02*
X147099999Y-90220000I249999J0D01*
G01*
G37*
G36*
G01*
X147099999Y-88170000D02*
X148000001Y-88170000D01*
G75*
G02*
X148250000Y-88419999I0J-249999D01*
G01*
X148250000Y-89070001D01*
G75*
G02*
X148000001Y-89320000I-249999J0D01*
G01*
X147099999Y-89320000D01*
G75*
G02*
X146850000Y-89070001I0J249999D01*
G01*
X146850000Y-88419999D01*
G75*
G02*
X147099999Y-88170000I249999J0D01*
G01*
G37*
G36*
G01*
X145500001Y-85070000D02*
X144599999Y-85070000D01*
G75*
G02*
X144350000Y-84820001I0J249999D01*
G01*
X144350000Y-84169999D01*
G75*
G02*
X144599999Y-83920000I249999J0D01*
G01*
X145500001Y-83920000D01*
G75*
G02*
X145750000Y-84169999I0J-249999D01*
G01*
X145750000Y-84820001D01*
G75*
G02*
X145500001Y-85070000I-249999J0D01*
G01*
G37*
G36*
G01*
X145500001Y-87120000D02*
X144599999Y-87120000D01*
G75*
G02*
X144350000Y-86870001I0J249999D01*
G01*
X144350000Y-86219999D01*
G75*
G02*
X144599999Y-85970000I249999J0D01*
G01*
X145500001Y-85970000D01*
G75*
G02*
X145750000Y-86219999I0J-249999D01*
G01*
X145750000Y-86870001D01*
G75*
G02*
X145500001Y-87120000I-249999J0D01*
G01*
G37*
G36*
G01*
X135349999Y-96970000D02*
X136250001Y-96970000D01*
G75*
G02*
X136500000Y-97219999I0J-249999D01*
G01*
X136500000Y-97870001D01*
G75*
G02*
X136250001Y-98120000I-249999J0D01*
G01*
X135349999Y-98120000D01*
G75*
G02*
X135100000Y-97870001I0J249999D01*
G01*
X135100000Y-97219999D01*
G75*
G02*
X135349999Y-96970000I249999J0D01*
G01*
G37*
G36*
G01*
X135349999Y-94920000D02*
X136250001Y-94920000D01*
G75*
G02*
X136500000Y-95169999I0J-249999D01*
G01*
X136500000Y-95820001D01*
G75*
G02*
X136250001Y-96070000I-249999J0D01*
G01*
X135349999Y-96070000D01*
G75*
G02*
X135100000Y-95820001I0J249999D01*
G01*
X135100000Y-95169999D01*
G75*
G02*
X135349999Y-94920000I249999J0D01*
G01*
G37*
G36*
G01*
X138099999Y-96995000D02*
X139000001Y-96995000D01*
G75*
G02*
X139250000Y-97244999I0J-249999D01*
G01*
X139250000Y-97895001D01*
G75*
G02*
X139000001Y-98145000I-249999J0D01*
G01*
X138099999Y-98145000D01*
G75*
G02*
X137850000Y-97895001I0J249999D01*
G01*
X137850000Y-97244999D01*
G75*
G02*
X138099999Y-96995000I249999J0D01*
G01*
G37*
G36*
G01*
X138099999Y-94945000D02*
X139000001Y-94945000D01*
G75*
G02*
X139250000Y-95194999I0J-249999D01*
G01*
X139250000Y-95845001D01*
G75*
G02*
X139000001Y-96095000I-249999J0D01*
G01*
X138099999Y-96095000D01*
G75*
G02*
X137850000Y-95845001I0J249999D01*
G01*
X137850000Y-95194999D01*
G75*
G02*
X138099999Y-94945000I249999J0D01*
G01*
G37*
G36*
G01*
X140849999Y-96970000D02*
X141750001Y-96970000D01*
G75*
G02*
X142000000Y-97219999I0J-249999D01*
G01*
X142000000Y-97870001D01*
G75*
G02*
X141750001Y-98120000I-249999J0D01*
G01*
X140849999Y-98120000D01*
G75*
G02*
X140600000Y-97870001I0J249999D01*
G01*
X140600000Y-97219999D01*
G75*
G02*
X140849999Y-96970000I249999J0D01*
G01*
G37*
G36*
G01*
X140849999Y-94920000D02*
X141750001Y-94920000D01*
G75*
G02*
X142000000Y-95169999I0J-249999D01*
G01*
X142000000Y-95820001D01*
G75*
G02*
X141750001Y-96070000I-249999J0D01*
G01*
X140849999Y-96070000D01*
G75*
G02*
X140600000Y-95820001I0J249999D01*
G01*
X140600000Y-95169999D01*
G75*
G02*
X140849999Y-94920000I249999J0D01*
G01*
G37*
G36*
G01*
X149599999Y-90220000D02*
X150500001Y-90220000D01*
G75*
G02*
X150750000Y-90469999I0J-249999D01*
G01*
X150750000Y-91120001D01*
G75*
G02*
X150500001Y-91370000I-249999J0D01*
G01*
X149599999Y-91370000D01*
G75*
G02*
X149350000Y-91120001I0J249999D01*
G01*
X149350000Y-90469999D01*
G75*
G02*
X149599999Y-90220000I249999J0D01*
G01*
G37*
G36*
G01*
X149599999Y-88170000D02*
X150500001Y-88170000D01*
G75*
G02*
X150750000Y-88419999I0J-249999D01*
G01*
X150750000Y-89070001D01*
G75*
G02*
X150500001Y-89320000I-249999J0D01*
G01*
X149599999Y-89320000D01*
G75*
G02*
X149350000Y-89070001I0J249999D01*
G01*
X149350000Y-88419999D01*
G75*
G02*
X149599999Y-88170000I249999J0D01*
G01*
G37*
G36*
G01*
X145582001Y-72437000D02*
X144681999Y-72437000D01*
G75*
G02*
X144432000Y-72187001I0J249999D01*
G01*
X144432000Y-71536999D01*
G75*
G02*
X144681999Y-71287000I249999J0D01*
G01*
X145582001Y-71287000D01*
G75*
G02*
X145832000Y-71536999I0J-249999D01*
G01*
X145832000Y-72187001D01*
G75*
G02*
X145582001Y-72437000I-249999J0D01*
G01*
G37*
G36*
G01*
X145582001Y-74487000D02*
X144681999Y-74487000D01*
G75*
G02*
X144432000Y-74237001I0J249999D01*
G01*
X144432000Y-73586999D01*
G75*
G02*
X144681999Y-73337000I249999J0D01*
G01*
X145582001Y-73337000D01*
G75*
G02*
X145832000Y-73586999I0J-249999D01*
G01*
X145832000Y-74237001D01*
G75*
G02*
X145582001Y-74487000I-249999J0D01*
G01*
G37*
G36*
G01*
X138780000Y-50392500D02*
X139380000Y-50392500D01*
G75*
G02*
X139680000Y-50692500I0J-300000D01*
G01*
X139680000Y-53092500D01*
G75*
G02*
X139380000Y-53392500I-300000J0D01*
G01*
X138780000Y-53392500D01*
G75*
G02*
X138480000Y-53092500I0J300000D01*
G01*
X138480000Y-50692500D01*
G75*
G02*
X138780000Y-50392500I300000J0D01*
G01*
G37*
G36*
G01*
X136780000Y-50392500D02*
X137380000Y-50392500D01*
G75*
G02*
X137680000Y-50692500I0J-300000D01*
G01*
X137680000Y-53092500D01*
G75*
G02*
X137380000Y-53392500I-300000J0D01*
G01*
X136780000Y-53392500D01*
G75*
G02*
X136480000Y-53092500I0J300000D01*
G01*
X136480000Y-50692500D01*
G75*
G02*
X136780000Y-50392500I300000J0D01*
G01*
G37*
G36*
G01*
X134780000Y-50392500D02*
X135380000Y-50392500D01*
G75*
G02*
X135680000Y-50692500I0J-300000D01*
G01*
X135680000Y-53092500D01*
G75*
G02*
X135380000Y-53392500I-300000J0D01*
G01*
X134780000Y-53392500D01*
G75*
G02*
X134480000Y-53092500I0J300000D01*
G01*
X134480000Y-50692500D01*
G75*
G02*
X134780000Y-50392500I300000J0D01*
G01*
G37*
G36*
G01*
X132780000Y-50392500D02*
X133380000Y-50392500D01*
G75*
G02*
X133680000Y-50692500I0J-300000D01*
G01*
X133680000Y-53092500D01*
G75*
G02*
X133380000Y-53392500I-300000J0D01*
G01*
X132780000Y-53392500D01*
G75*
G02*
X132480000Y-53092500I0J300000D01*
G01*
X132480000Y-50692500D01*
G75*
G02*
X132780000Y-50392500I300000J0D01*
G01*
G37*
G36*
G01*
X130780000Y-50392500D02*
X131380000Y-50392500D01*
G75*
G02*
X131680000Y-50692500I0J-300000D01*
G01*
X131680000Y-53092500D01*
G75*
G02*
X131380000Y-53392500I-300000J0D01*
G01*
X130780000Y-53392500D01*
G75*
G02*
X130480000Y-53092500I0J300000D01*
G01*
X130480000Y-50692500D01*
G75*
G02*
X130780000Y-50392500I300000J0D01*
G01*
G37*
G36*
G01*
X128780000Y-50392500D02*
X129380000Y-50392500D01*
G75*
G02*
X129680000Y-50692500I0J-300000D01*
G01*
X129680000Y-53092500D01*
G75*
G02*
X129380000Y-53392500I-300000J0D01*
G01*
X128780000Y-53392500D01*
G75*
G02*
X128480000Y-53092500I0J300000D01*
G01*
X128480000Y-50692500D01*
G75*
G02*
X128780000Y-50392500I300000J0D01*
G01*
G37*
G36*
G01*
X126780000Y-50392500D02*
X127380000Y-50392500D01*
G75*
G02*
X127680000Y-50692500I0J-300000D01*
G01*
X127680000Y-53092500D01*
G75*
G02*
X127380000Y-53392500I-300000J0D01*
G01*
X126780000Y-53392500D01*
G75*
G02*
X126480000Y-53092500I0J300000D01*
G01*
X126480000Y-50692500D01*
G75*
G02*
X126780000Y-50392500I300000J0D01*
G01*
G37*
G36*
G01*
X124780000Y-50392500D02*
X125380000Y-50392500D01*
G75*
G02*
X125680000Y-50692500I0J-300000D01*
G01*
X125680000Y-53092500D01*
G75*
G02*
X125380000Y-53392500I-300000J0D01*
G01*
X124780000Y-53392500D01*
G75*
G02*
X124480000Y-53092500I0J300000D01*
G01*
X124480000Y-50692500D01*
G75*
G02*
X124780000Y-50392500I300000J0D01*
G01*
G37*
D13*
X109500000Y-68270000D03*
X107300000Y-68270000D03*
X151900000Y-67770000D03*
X149700000Y-67770000D03*
G36*
G01*
X152750001Y-58320000D02*
X151849999Y-58320000D01*
G75*
G02*
X151600000Y-58070001I0J249999D01*
G01*
X151600000Y-57419999D01*
G75*
G02*
X151849999Y-57170000I249999J0D01*
G01*
X152750001Y-57170000D01*
G75*
G02*
X153000000Y-57419999I0J-249999D01*
G01*
X153000000Y-58070001D01*
G75*
G02*
X152750001Y-58320000I-249999J0D01*
G01*
G37*
G36*
G01*
X152750001Y-60370000D02*
X151849999Y-60370000D01*
G75*
G02*
X151600000Y-60120001I0J249999D01*
G01*
X151600000Y-59469999D01*
G75*
G02*
X151849999Y-59220000I249999J0D01*
G01*
X152750001Y-59220000D01*
G75*
G02*
X153000000Y-59469999I0J-249999D01*
G01*
X153000000Y-60120001D01*
G75*
G02*
X152750001Y-60370000I-249999J0D01*
G01*
G37*
G36*
G01*
X159500001Y-62820000D02*
X158599999Y-62820000D01*
G75*
G02*
X158350000Y-62570001I0J249999D01*
G01*
X158350000Y-61919999D01*
G75*
G02*
X158599999Y-61670000I249999J0D01*
G01*
X159500001Y-61670000D01*
G75*
G02*
X159750000Y-61919999I0J-249999D01*
G01*
X159750000Y-62570001D01*
G75*
G02*
X159500001Y-62820000I-249999J0D01*
G01*
G37*
G36*
G01*
X159500001Y-64870000D02*
X158599999Y-64870000D01*
G75*
G02*
X158350000Y-64620001I0J249999D01*
G01*
X158350000Y-63969999D01*
G75*
G02*
X158599999Y-63720000I249999J0D01*
G01*
X159500001Y-63720000D01*
G75*
G02*
X159750000Y-63969999I0J-249999D01*
G01*
X159750000Y-64620001D01*
G75*
G02*
X159500001Y-64870000I-249999J0D01*
G01*
G37*
G36*
G01*
X109750001Y-58845000D02*
X108849999Y-58845000D01*
G75*
G02*
X108600000Y-58595001I0J249999D01*
G01*
X108600000Y-57944999D01*
G75*
G02*
X108849999Y-57695000I249999J0D01*
G01*
X109750001Y-57695000D01*
G75*
G02*
X110000000Y-57944999I0J-249999D01*
G01*
X110000000Y-58595001D01*
G75*
G02*
X109750001Y-58845000I-249999J0D01*
G01*
G37*
G36*
G01*
X109750001Y-60895000D02*
X108849999Y-60895000D01*
G75*
G02*
X108600000Y-60645001I0J249999D01*
G01*
X108600000Y-59994999D01*
G75*
G02*
X108849999Y-59745000I249999J0D01*
G01*
X109750001Y-59745000D01*
G75*
G02*
X110000000Y-59994999I0J-249999D01*
G01*
X110000000Y-60645001D01*
G75*
G02*
X109750001Y-60895000I-249999J0D01*
G01*
G37*
G36*
G01*
X150500001Y-58320000D02*
X149599999Y-58320000D01*
G75*
G02*
X149350000Y-58070001I0J249999D01*
G01*
X149350000Y-57419999D01*
G75*
G02*
X149599999Y-57170000I249999J0D01*
G01*
X150500001Y-57170000D01*
G75*
G02*
X150750000Y-57419999I0J-249999D01*
G01*
X150750000Y-58070001D01*
G75*
G02*
X150500001Y-58320000I-249999J0D01*
G01*
G37*
G36*
G01*
X150500001Y-60370000D02*
X149599999Y-60370000D01*
G75*
G02*
X149350000Y-60120001I0J249999D01*
G01*
X149350000Y-59469999D01*
G75*
G02*
X149599999Y-59220000I249999J0D01*
G01*
X150500001Y-59220000D01*
G75*
G02*
X150750000Y-59469999I0J-249999D01*
G01*
X150750000Y-60120001D01*
G75*
G02*
X150500001Y-60370000I-249999J0D01*
G01*
G37*
G36*
G01*
X145500001Y-89345000D02*
X144599999Y-89345000D01*
G75*
G02*
X144350000Y-89095001I0J249999D01*
G01*
X144350000Y-88444999D01*
G75*
G02*
X144599999Y-88195000I249999J0D01*
G01*
X145500001Y-88195000D01*
G75*
G02*
X145750000Y-88444999I0J-249999D01*
G01*
X145750000Y-89095001D01*
G75*
G02*
X145500001Y-89345000I-249999J0D01*
G01*
G37*
G36*
G01*
X145500001Y-91395000D02*
X144599999Y-91395000D01*
G75*
G02*
X144350000Y-91145001I0J249999D01*
G01*
X144350000Y-90494999D01*
G75*
G02*
X144599999Y-90245000I249999J0D01*
G01*
X145500001Y-90245000D01*
G75*
G02*
X145750000Y-90494999I0J-249999D01*
G01*
X145750000Y-91145001D01*
G75*
G02*
X145500001Y-91395000I-249999J0D01*
G01*
G37*
G36*
G01*
X147094999Y-73337000D02*
X147995001Y-73337000D01*
G75*
G02*
X148245000Y-73586999I0J-249999D01*
G01*
X148245000Y-74237001D01*
G75*
G02*
X147995001Y-74487000I-249999J0D01*
G01*
X147094999Y-74487000D01*
G75*
G02*
X146845000Y-74237001I0J249999D01*
G01*
X146845000Y-73586999D01*
G75*
G02*
X147094999Y-73337000I249999J0D01*
G01*
G37*
G36*
G01*
X147094999Y-71287000D02*
X147995001Y-71287000D01*
G75*
G02*
X148245000Y-71536999I0J-249999D01*
G01*
X148245000Y-72187001D01*
G75*
G02*
X147995001Y-72437000I-249999J0D01*
G01*
X147094999Y-72437000D01*
G75*
G02*
X146845000Y-72187001I0J249999D01*
G01*
X146845000Y-71536999D01*
G75*
G02*
X147094999Y-71287000I249999J0D01*
G01*
G37*
D14*
X149800000Y-61770000D03*
X150300000Y-61770000D03*
X150800000Y-61770000D03*
X151300000Y-61770000D03*
X151800000Y-61770000D03*
X151800000Y-64570000D03*
X151300000Y-64570000D03*
X150800000Y-64570000D03*
X150300000Y-64570000D03*
X149800000Y-64570000D03*
G36*
G01*
X152475000Y-63045000D02*
X152185000Y-63045000D01*
G75*
G02*
X152160000Y-63020000I0J25000D01*
G01*
X152160000Y-62820000D01*
G75*
G02*
X152185000Y-62795000I25000J0D01*
G01*
X152475000Y-62795000D01*
G75*
G02*
X152500000Y-62820000I0J-25000D01*
G01*
X152500000Y-63020000D01*
G75*
G02*
X152475000Y-63045000I-25000J0D01*
G01*
G37*
G36*
G01*
X152475000Y-63545000D02*
X152185000Y-63545000D01*
G75*
G02*
X152160000Y-63520000I0J25000D01*
G01*
X152160000Y-63320000D01*
G75*
G02*
X152185000Y-63295000I25000J0D01*
G01*
X152475000Y-63295000D01*
G75*
G02*
X152500000Y-63320000I0J-25000D01*
G01*
X152500000Y-63520000D01*
G75*
G02*
X152475000Y-63545000I-25000J0D01*
G01*
G37*
G36*
G01*
X149415000Y-63045000D02*
X149125000Y-63045000D01*
G75*
G02*
X149100000Y-63020000I0J25000D01*
G01*
X149100000Y-62820000D01*
G75*
G02*
X149125000Y-62795000I25000J0D01*
G01*
X149415000Y-62795000D01*
G75*
G02*
X149440000Y-62820000I0J-25000D01*
G01*
X149440000Y-63020000D01*
G75*
G02*
X149415000Y-63045000I-25000J0D01*
G01*
G37*
G36*
G01*
X149415000Y-63545000D02*
X149125000Y-63545000D01*
G75*
G02*
X149100000Y-63520000I0J25000D01*
G01*
X149100000Y-63320000D01*
G75*
G02*
X149125000Y-63295000I25000J0D01*
G01*
X149415000Y-63295000D01*
G75*
G02*
X149440000Y-63320000I0J-25000D01*
G01*
X149440000Y-63520000D01*
G75*
G02*
X149415000Y-63545000I-25000J0D01*
G01*
G37*
G36*
G01*
X150594000Y-63920000D02*
X149746000Y-63920000D01*
G75*
G02*
X149640000Y-63814000I0J106000D01*
G01*
X149640000Y-62526000D01*
G75*
G02*
X149746000Y-62420000I106000J0D01*
G01*
X150594000Y-62420000D01*
G75*
G02*
X150700000Y-62526000I0J-106000D01*
G01*
X150700000Y-63814000D01*
G75*
G02*
X150594000Y-63920000I-106000J0D01*
G01*
G37*
G36*
G01*
X151854000Y-63920000D02*
X151006000Y-63920000D01*
G75*
G02*
X150900000Y-63814000I0J106000D01*
G01*
X150900000Y-62526000D01*
G75*
G02*
X151006000Y-62420000I106000J0D01*
G01*
X151854000Y-62420000D01*
G75*
G02*
X151960000Y-62526000I0J-106000D01*
G01*
X151960000Y-63814000D01*
G75*
G02*
X151854000Y-63920000I-106000J0D01*
G01*
G37*
D15*
X153750000Y-85520000D03*
X153750000Y-90020000D03*
X162850000Y-90020000D03*
X162850000Y-85520000D03*
X153750000Y-76020000D03*
X153750000Y-80520000D03*
X162850000Y-80520000D03*
X162850000Y-76020000D03*
M02*
