%FSLAX45Y45*%
G04 Gerber Fmt 4.5, Leading zero omitted, Abs format (unit mm)*
G04 Created by KiCad (PCBNEW (5.1.7)-1) date 2020-10-28 11:25:51*
%MOMM*%
%LPD*%
G01*
G04 APERTURE LIST*
%TA.AperFunction,Profile*%
%ADD10C,0.050000*%
%TD*%
%ADD11C,0.200000*%
%ADD12C,0.300000*%
G04 APERTURE END LIST*
D10*
X16320000Y-4731000D02*
G75*
G03*
X16320000Y-4731000I-150000J0D01*
G01*
X16319000Y-9649000D02*
G75*
G03*
X16319000Y-9649000I-150000J0D01*
G01*
X10499000Y-9648000D02*
G75*
G03*
X10499000Y-9648000I-150000J0D01*
G01*
X10500000Y-4730000D02*
G75*
G03*
X10500000Y-4730000I-150000J0D01*
G01*
X16520000Y-9999000D02*
X9999000Y-9999000D01*
X16520000Y-4380000D02*
X16520000Y-9999000D01*
X9999000Y-4380000D02*
X16520000Y-4380000D01*
X9999000Y-9999000D02*
X9999000Y-4380000D01*
D11*
X14975000Y-6307000D02*
X14995000Y-6327000D01*
X14995000Y-6307000D02*
X14975000Y-6327000D01*
X15070000Y-6249500D02*
X15090000Y-6269500D01*
X15090000Y-6249500D02*
X15070000Y-6269500D01*
X15070000Y-6364500D02*
X15090000Y-6384500D01*
X15090000Y-6364500D02*
X15070000Y-6384500D01*
X15165000Y-6307000D02*
X15185000Y-6327000D01*
X15185000Y-6307000D02*
X15165000Y-6327000D01*
X10304000Y-6125000D02*
G75*
G03*
X10304000Y-6125000I-15000J0D01*
G01*
X10747000Y-6160000D02*
G75*
G03*
X10747000Y-6160000I-15000J0D01*
G01*
X11368000Y-7523000D02*
G75*
G03*
X11368000Y-7523000I-15000J0D01*
G01*
X11434000Y-8195000D02*
G75*
G03*
X11434000Y-8195000I-15000J0D01*
G01*
X11493000Y-7402000D02*
G75*
G03*
X11493000Y-7402000I-15000J0D01*
G01*
X11504000Y-7922000D02*
G75*
G03*
X11504000Y-7922000I-15000J0D01*
G01*
X11632000Y-7440000D02*
G75*
G03*
X11632000Y-7440000I-15000J0D01*
G01*
X11790000Y-5744000D02*
G75*
G03*
X11790000Y-5744000I-15000J0D01*
G01*
X12184000Y-6063000D02*
G75*
G03*
X12184000Y-6063000I-15000J0D01*
G01*
X12193000Y-7943000D02*
G75*
G03*
X12193000Y-7943000I-15000J0D01*
G01*
X12217000Y-7626000D02*
G75*
G03*
X12217000Y-7626000I-15000J0D01*
G01*
X12220000Y-7365000D02*
G75*
G03*
X12220000Y-7365000I-15000J0D01*
G01*
X12299000Y-6689000D02*
G75*
G03*
X12299000Y-6689000I-15000J0D01*
G01*
X12323000Y-5989000D02*
G75*
G03*
X12323000Y-5989000I-15000J0D01*
G01*
X12385000Y-8319000D02*
G75*
G03*
X12385000Y-8319000I-15000J0D01*
G01*
X12392000Y-7651000D02*
G75*
G03*
X12392000Y-7651000I-15000J0D01*
G01*
X12398000Y-7376000D02*
G75*
G03*
X12398000Y-7376000I-15000J0D01*
G01*
X12498000Y-7614000D02*
G75*
G03*
X12498000Y-7614000I-15000J0D01*
G01*
X12608000Y-6008000D02*
G75*
G03*
X12608000Y-6008000I-15000J0D01*
G01*
X12654000Y-5543000D02*
G75*
G03*
X12654000Y-5543000I-15000J0D01*
G01*
X12695842Y-5683842D02*
G75*
G03*
X12695842Y-5683842I-15000J0D01*
G01*
X12766000Y-6701000D02*
G75*
G03*
X12766000Y-6701000I-15000J0D01*
G01*
X12784000Y-7042000D02*
G75*
G03*
X12784000Y-7042000I-15000J0D01*
G01*
X12939000Y-7316000D02*
G75*
G03*
X12939000Y-7316000I-15000J0D01*
G01*
X12946000Y-5754000D02*
G75*
G03*
X12946000Y-5754000I-15000J0D01*
G01*
X12960000Y-5981000D02*
G75*
G03*
X12960000Y-5981000I-15000J0D01*
G01*
X13025842Y-7216158D02*
G75*
G03*
X13025842Y-7216158I-15000J0D01*
G01*
X13124000Y-7133000D02*
G75*
G03*
X13124000Y-7133000I-15000J0D01*
G01*
X13187000Y-5959000D02*
G75*
G03*
X13187000Y-5959000I-15000J0D01*
G01*
X13191000Y-7654000D02*
G75*
G03*
X13191000Y-7654000I-15000J0D01*
G01*
X13197000Y-7042000D02*
G75*
G03*
X13197000Y-7042000I-15000J0D01*
G01*
X13245000Y-9606000D02*
G75*
G03*
X13245000Y-9606000I-15000J0D01*
G01*
X13273000Y-7390000D02*
G75*
G03*
X13273000Y-7390000I-15000J0D01*
G01*
X13285000Y-7277000D02*
G75*
G03*
X13285000Y-7277000I-15000J0D01*
G01*
X13334000Y-7899000D02*
G75*
G03*
X13334000Y-7899000I-15000J0D01*
G01*
X13343000Y-9895000D02*
G75*
G03*
X13343000Y-9895000I-15000J0D01*
G01*
X13347000Y-5957860D02*
G75*
G03*
X13347000Y-5957860I-15000J0D01*
G01*
X13355000Y-6695000D02*
G75*
G03*
X13355000Y-6695000I-15000J0D01*
G01*
X13382000Y-7298000D02*
G75*
G03*
X13382000Y-7298000I-15000J0D01*
G01*
X13392000Y-7405000D02*
G75*
G03*
X13392000Y-7405000I-15000J0D01*
G01*
X13398000Y-7963000D02*
G75*
G03*
X13398000Y-7963000I-15000J0D01*
G01*
X13400000Y-8432000D02*
G75*
G03*
X13400000Y-8432000I-15000J0D01*
G01*
X13462000Y-6916000D02*
G75*
G03*
X13462000Y-6916000I-15000J0D01*
G01*
X13490000Y-5978000D02*
G75*
G03*
X13490000Y-5978000I-15000J0D01*
G01*
X13930000Y-7616000D02*
G75*
G03*
X13930000Y-7616000I-15000J0D01*
G01*
X13980000Y-7713000D02*
G75*
G03*
X13980000Y-7713000I-15000J0D01*
G01*
X14093000Y-8241000D02*
G75*
G03*
X14093000Y-8241000I-15000J0D01*
G01*
X14213000Y-7692000D02*
G75*
G03*
X14213000Y-7692000I-15000J0D01*
G01*
X14364000Y-7325000D02*
G75*
G03*
X14364000Y-7325000I-15000J0D01*
G01*
X14377000Y-7610000D02*
G75*
G03*
X14377000Y-7610000I-15000J0D01*
G01*
X14751000Y-7978000D02*
G75*
G03*
X14751000Y-7978000I-15000J0D01*
G01*
X14758000Y-7041000D02*
G75*
G03*
X14758000Y-7041000I-15000J0D01*
G01*
X14872000Y-5885000D02*
G75*
G03*
X14872000Y-5885000I-15000J0D01*
G01*
X14927000Y-6081000D02*
G75*
G03*
X14927000Y-6081000I-15000J0D01*
G01*
X14938000Y-7324000D02*
G75*
G03*
X14938000Y-7324000I-15000J0D01*
G01*
X15459000Y-7420000D02*
G75*
G03*
X15459000Y-7420000I-15000J0D01*
G01*
X15645000Y-7389000D02*
G75*
G03*
X15645000Y-7389000I-15000J0D01*
G01*
X15902000Y-6103000D02*
G75*
G03*
X15902000Y-6103000I-15000J0D01*
G01*
X16036000Y-7569000D02*
G75*
G03*
X16036000Y-7569000I-15000J0D01*
G01*
X16080000Y-7408000D02*
G75*
G03*
X16080000Y-7408000I-15000J0D01*
G01*
X12641000Y-7691000D02*
G75*
G03*
X12641000Y-7691000I-15000J0D01*
G01*
X12641000Y-7791000D02*
G75*
G03*
X12641000Y-7791000I-15000J0D01*
G01*
X12641000Y-7891000D02*
G75*
G03*
X12641000Y-7891000I-15000J0D01*
G01*
X12641000Y-7991000D02*
G75*
G03*
X12641000Y-7991000I-15000J0D01*
G01*
X12641000Y-8091000D02*
G75*
G03*
X12641000Y-8091000I-15000J0D01*
G01*
X12741000Y-7691000D02*
G75*
G03*
X12741000Y-7691000I-15000J0D01*
G01*
X12741000Y-7791000D02*
G75*
G03*
X12741000Y-7791000I-15000J0D01*
G01*
X12741000Y-7891000D02*
G75*
G03*
X12741000Y-7891000I-15000J0D01*
G01*
X12741000Y-7991000D02*
G75*
G03*
X12741000Y-7991000I-15000J0D01*
G01*
X12741000Y-8091000D02*
G75*
G03*
X12741000Y-8091000I-15000J0D01*
G01*
X12841000Y-7691000D02*
G75*
G03*
X12841000Y-7691000I-15000J0D01*
G01*
X12841000Y-7791000D02*
G75*
G03*
X12841000Y-7791000I-15000J0D01*
G01*
X12841000Y-7891000D02*
G75*
G03*
X12841000Y-7891000I-15000J0D01*
G01*
X12841000Y-7991000D02*
G75*
G03*
X12841000Y-7991000I-15000J0D01*
G01*
X12841000Y-8091000D02*
G75*
G03*
X12841000Y-8091000I-15000J0D01*
G01*
X12941000Y-7691000D02*
G75*
G03*
X12941000Y-7691000I-15000J0D01*
G01*
X12941000Y-7791000D02*
G75*
G03*
X12941000Y-7791000I-15000J0D01*
G01*
X12941000Y-7891000D02*
G75*
G03*
X12941000Y-7891000I-15000J0D01*
G01*
X12941000Y-7991000D02*
G75*
G03*
X12941000Y-7991000I-15000J0D01*
G01*
X12941000Y-8091000D02*
G75*
G03*
X12941000Y-8091000I-15000J0D01*
G01*
X13041000Y-7691000D02*
G75*
G03*
X13041000Y-7691000I-15000J0D01*
G01*
X13041000Y-7791000D02*
G75*
G03*
X13041000Y-7791000I-15000J0D01*
G01*
X13041000Y-7891000D02*
G75*
G03*
X13041000Y-7891000I-15000J0D01*
G01*
X13041000Y-7991000D02*
G75*
G03*
X13041000Y-7991000I-15000J0D01*
G01*
X13041000Y-8091000D02*
G75*
G03*
X13041000Y-8091000I-15000J0D01*
G01*
X11480000Y-5832000D02*
X11480000Y-5872000D01*
X11460000Y-5852000D02*
X11500000Y-5852000D01*
X12755000Y-5807000D02*
X12755000Y-5847000D01*
X12735000Y-5827000D02*
X12775000Y-5827000D01*
X13780000Y-6257000D02*
X13780000Y-6297000D01*
X13760000Y-6277000D02*
X13800000Y-6277000D01*
X14183000Y-7152000D02*
X14183000Y-7192000D01*
X14163000Y-7172000D02*
X14203000Y-7172000D01*
X12966063Y-9788063D02*
X12966063Y-9715937D01*
X12893937Y-9715937D01*
X12893937Y-9788063D01*
X12966063Y-9788063D01*
X11566063Y-9788063D02*
X11566063Y-9715937D01*
X11493937Y-9715937D01*
X11493937Y-9788063D01*
X11566063Y-9788063D01*
X16316063Y-7263063D02*
X16316063Y-7190937D01*
X16243937Y-7190937D01*
X16243937Y-7263063D01*
X16316063Y-7263063D01*
X16316063Y-5513063D02*
X16316063Y-5440937D01*
X16243937Y-5440937D01*
X16243937Y-5513063D01*
X16316063Y-5513063D01*
X11141063Y-7388063D02*
X11141063Y-7315937D01*
X11068937Y-7315937D01*
X11068937Y-7388063D01*
X11141063Y-7388063D01*
X16316063Y-5863063D02*
X16316063Y-5790937D01*
X16243937Y-5790937D01*
X16243937Y-5863063D01*
X16316063Y-5863063D01*
X11916063Y-9788063D02*
X11916063Y-9715937D01*
X11843937Y-9715937D01*
X11843937Y-9788063D01*
X11916063Y-9788063D01*
X10866063Y-9788063D02*
X10866063Y-9715937D01*
X10793937Y-9715937D01*
X10793937Y-9788063D01*
X10866063Y-9788063D01*
X10466063Y-8488063D02*
X10466063Y-8415937D01*
X10393937Y-8415937D01*
X10393937Y-8488063D01*
X10466063Y-8488063D01*
X16316063Y-6563063D02*
X16316063Y-6490937D01*
X16243937Y-6490937D01*
X16243937Y-6563063D01*
X16316063Y-6563063D01*
X11141063Y-8488063D02*
X11141063Y-8415937D01*
X11068937Y-8415937D01*
X11068937Y-8488063D01*
X11141063Y-8488063D01*
X12616063Y-9788063D02*
X12616063Y-9715937D01*
X12543937Y-9715937D01*
X12543937Y-9788063D01*
X12616063Y-9788063D01*
X16316063Y-6213063D02*
X16316063Y-6140937D01*
X16243937Y-6140937D01*
X16243937Y-6213063D01*
X16316063Y-6213063D01*
X11216063Y-9788063D02*
X11216063Y-9715937D01*
X11143937Y-9715937D01*
X11143937Y-9788063D01*
X11216063Y-9788063D01*
X16316063Y-6913063D02*
X16316063Y-6840937D01*
X16243937Y-6840937D01*
X16243937Y-6913063D01*
X16316063Y-6913063D01*
X12266063Y-9788063D02*
X12266063Y-9715937D01*
X12193937Y-9715937D01*
X12193937Y-9788063D01*
X12266063Y-9788063D01*
X11104000Y-8091000D02*
X11159000Y-8036000D01*
X11104000Y-7981000D01*
X11049000Y-8036000D01*
X11104000Y-8091000D01*
X11106000Y-7837000D02*
X11161000Y-7782000D01*
X11106000Y-7727000D01*
X11051000Y-7782000D01*
X11106000Y-7837000D01*
X11104000Y-9191000D02*
X11159000Y-9136000D01*
X11104000Y-9081000D01*
X11049000Y-9136000D01*
X11104000Y-9191000D01*
X11106000Y-8937000D02*
X11161000Y-8882000D01*
X11106000Y-8827000D01*
X11051000Y-8882000D01*
X11106000Y-8937000D01*
D12*
X10282928Y-10467214D02*
X10282928Y-10167214D01*
X10354357Y-10167214D01*
X10397214Y-10181500D01*
X10425786Y-10210072D01*
X10440071Y-10238643D01*
X10454357Y-10295786D01*
X10454357Y-10338643D01*
X10440071Y-10395786D01*
X10425786Y-10424357D01*
X10397214Y-10452929D01*
X10354357Y-10467214D01*
X10282928Y-10467214D01*
X10582928Y-10467214D02*
X10582928Y-10267214D01*
X10582928Y-10324357D02*
X10597214Y-10295786D01*
X10611500Y-10281500D01*
X10640071Y-10267214D01*
X10668643Y-10267214D01*
X10768643Y-10467214D02*
X10768643Y-10267214D01*
X10768643Y-10167214D02*
X10754357Y-10181500D01*
X10768643Y-10195786D01*
X10782928Y-10181500D01*
X10768643Y-10167214D01*
X10768643Y-10195786D01*
X10954357Y-10467214D02*
X10925786Y-10452929D01*
X10911500Y-10424357D01*
X10911500Y-10167214D01*
X11111500Y-10467214D02*
X11082928Y-10452929D01*
X11068643Y-10424357D01*
X11068643Y-10167214D01*
X11454357Y-10467214D02*
X11454357Y-10167214D01*
X11554357Y-10381500D01*
X11654357Y-10167214D01*
X11654357Y-10467214D01*
X11925786Y-10467214D02*
X11925786Y-10310072D01*
X11911500Y-10281500D01*
X11882928Y-10267214D01*
X11825786Y-10267214D01*
X11797214Y-10281500D01*
X11925786Y-10452929D02*
X11897214Y-10467214D01*
X11825786Y-10467214D01*
X11797214Y-10452929D01*
X11782928Y-10424357D01*
X11782928Y-10395786D01*
X11797214Y-10367214D01*
X11825786Y-10352929D01*
X11897214Y-10352929D01*
X11925786Y-10338643D01*
X12068643Y-10267214D02*
X12068643Y-10567214D01*
X12068643Y-10281500D02*
X12097214Y-10267214D01*
X12154357Y-10267214D01*
X12182928Y-10281500D01*
X12197214Y-10295786D01*
X12211500Y-10324357D01*
X12211500Y-10410072D01*
X12197214Y-10438643D01*
X12182928Y-10452929D01*
X12154357Y-10467214D01*
X12097214Y-10467214D01*
X12068643Y-10452929D01*
X12340071Y-10438643D02*
X12354357Y-10452929D01*
X12340071Y-10467214D01*
X12325786Y-10452929D01*
X12340071Y-10438643D01*
X12340071Y-10467214D01*
X12340071Y-10281500D02*
X12354357Y-10295786D01*
X12340071Y-10310072D01*
X12325786Y-10295786D01*
X12340071Y-10281500D01*
X12340071Y-10310072D01*
X9976500Y-10951500D02*
X9996500Y-10971500D01*
X9996500Y-10951500D02*
X9976500Y-10971500D01*
X10340071Y-10797214D02*
X10368643Y-10797214D01*
X10397214Y-10811500D01*
X10411500Y-10825786D01*
X10425786Y-10854357D01*
X10440071Y-10911500D01*
X10440071Y-10982929D01*
X10425786Y-11040072D01*
X10411500Y-11068643D01*
X10397214Y-11082929D01*
X10368643Y-11097214D01*
X10340071Y-11097214D01*
X10311500Y-11082929D01*
X10297214Y-11068643D01*
X10282928Y-11040072D01*
X10268643Y-10982929D01*
X10268643Y-10911500D01*
X10282928Y-10854357D01*
X10297214Y-10825786D01*
X10311500Y-10811500D01*
X10340071Y-10797214D01*
X10568643Y-11068643D02*
X10582928Y-11082929D01*
X10568643Y-11097214D01*
X10554357Y-11082929D01*
X10568643Y-11068643D01*
X10568643Y-11097214D01*
X10697214Y-10825786D02*
X10711500Y-10811500D01*
X10740071Y-10797214D01*
X10811500Y-10797214D01*
X10840071Y-10811500D01*
X10854357Y-10825786D01*
X10868643Y-10854357D01*
X10868643Y-10882929D01*
X10854357Y-10925786D01*
X10682928Y-11097214D01*
X10868643Y-11097214D01*
X11054357Y-10797214D02*
X11082928Y-10797214D01*
X11111500Y-10811500D01*
X11125786Y-10825786D01*
X11140071Y-10854357D01*
X11154357Y-10911500D01*
X11154357Y-10982929D01*
X11140071Y-11040072D01*
X11125786Y-11068643D01*
X11111500Y-11082929D01*
X11082928Y-11097214D01*
X11054357Y-11097214D01*
X11025786Y-11082929D01*
X11011500Y-11068643D01*
X10997214Y-11040072D01*
X10982928Y-10982929D01*
X10982928Y-10911500D01*
X10997214Y-10854357D01*
X11011500Y-10825786D01*
X11025786Y-10811500D01*
X11054357Y-10797214D01*
X11282928Y-11097214D02*
X11282928Y-10897214D01*
X11282928Y-10925786D02*
X11297214Y-10911500D01*
X11325786Y-10897214D01*
X11368643Y-10897214D01*
X11397214Y-10911500D01*
X11411500Y-10940072D01*
X11411500Y-11097214D01*
X11411500Y-10940072D02*
X11425786Y-10911500D01*
X11454357Y-10897214D01*
X11497214Y-10897214D01*
X11525786Y-10911500D01*
X11540071Y-10940072D01*
X11540071Y-11097214D01*
X11682928Y-11097214D02*
X11682928Y-10897214D01*
X11682928Y-10925786D02*
X11697214Y-10911500D01*
X11725786Y-10897214D01*
X11768643Y-10897214D01*
X11797214Y-10911500D01*
X11811500Y-10940072D01*
X11811500Y-11097214D01*
X11811500Y-10940072D02*
X11825786Y-10911500D01*
X11854357Y-10897214D01*
X11897214Y-10897214D01*
X11925786Y-10911500D01*
X11940071Y-10940072D01*
X11940071Y-11097214D01*
X12525786Y-10782929D02*
X12268643Y-11168643D01*
X12911500Y-10797214D02*
X12940071Y-10797214D01*
X12968643Y-10811500D01*
X12982928Y-10825786D01*
X12997214Y-10854357D01*
X13011500Y-10911500D01*
X13011500Y-10982929D01*
X12997214Y-11040072D01*
X12982928Y-11068643D01*
X12968643Y-11082929D01*
X12940071Y-11097214D01*
X12911500Y-11097214D01*
X12882928Y-11082929D01*
X12868643Y-11068643D01*
X12854357Y-11040072D01*
X12840071Y-10982929D01*
X12840071Y-10911500D01*
X12854357Y-10854357D01*
X12868643Y-10825786D01*
X12882928Y-10811500D01*
X12911500Y-10797214D01*
X13140071Y-11068643D02*
X13154357Y-11082929D01*
X13140071Y-11097214D01*
X13125786Y-11082929D01*
X13140071Y-11068643D01*
X13140071Y-11097214D01*
X13340071Y-10797214D02*
X13368643Y-10797214D01*
X13397214Y-10811500D01*
X13411500Y-10825786D01*
X13425786Y-10854357D01*
X13440071Y-10911500D01*
X13440071Y-10982929D01*
X13425786Y-11040072D01*
X13411500Y-11068643D01*
X13397214Y-11082929D01*
X13368643Y-11097214D01*
X13340071Y-11097214D01*
X13311500Y-11082929D01*
X13297214Y-11068643D01*
X13282928Y-11040072D01*
X13268643Y-10982929D01*
X13268643Y-10911500D01*
X13282928Y-10854357D01*
X13297214Y-10825786D01*
X13311500Y-10811500D01*
X13340071Y-10797214D01*
X13625786Y-10797214D02*
X13654357Y-10797214D01*
X13682928Y-10811500D01*
X13697214Y-10825786D01*
X13711500Y-10854357D01*
X13725786Y-10911500D01*
X13725786Y-10982929D01*
X13711500Y-11040072D01*
X13697214Y-11068643D01*
X13682928Y-11082929D01*
X13654357Y-11097214D01*
X13625786Y-11097214D01*
X13597214Y-11082929D01*
X13582928Y-11068643D01*
X13568643Y-11040072D01*
X13554357Y-10982929D01*
X13554357Y-10911500D01*
X13568643Y-10854357D01*
X13582928Y-10825786D01*
X13597214Y-10811500D01*
X13625786Y-10797214D01*
X13897214Y-10925786D02*
X13868643Y-10911500D01*
X13854357Y-10897214D01*
X13840071Y-10868643D01*
X13840071Y-10854357D01*
X13854357Y-10825786D01*
X13868643Y-10811500D01*
X13897214Y-10797214D01*
X13954357Y-10797214D01*
X13982928Y-10811500D01*
X13997214Y-10825786D01*
X14011500Y-10854357D01*
X14011500Y-10868643D01*
X13997214Y-10897214D01*
X13982928Y-10911500D01*
X13954357Y-10925786D01*
X13897214Y-10925786D01*
X13868643Y-10940072D01*
X13854357Y-10954357D01*
X13840071Y-10982929D01*
X13840071Y-11040072D01*
X13854357Y-11068643D01*
X13868643Y-11082929D01*
X13897214Y-11097214D01*
X13954357Y-11097214D01*
X13982928Y-11082929D01*
X13997214Y-11068643D01*
X14011500Y-11040072D01*
X14011500Y-10982929D01*
X13997214Y-10954357D01*
X13982928Y-10940072D01*
X13954357Y-10925786D01*
X14125786Y-10797214D02*
X14125786Y-10854357D01*
X14240071Y-10797214D02*
X14240071Y-10854357D01*
X14682928Y-11211500D02*
X14668643Y-11197214D01*
X14640071Y-11154357D01*
X14625786Y-11125786D01*
X14611500Y-11082929D01*
X14597214Y-11011500D01*
X14597214Y-10954357D01*
X14611500Y-10882929D01*
X14625786Y-10840072D01*
X14640071Y-10811500D01*
X14668643Y-10768643D01*
X14682928Y-10754357D01*
X14925786Y-10897214D02*
X14925786Y-11097214D01*
X14854357Y-10782929D02*
X14782928Y-10997214D01*
X14968643Y-10997214D01*
X15311500Y-11097214D02*
X15311500Y-10797214D01*
X15440071Y-11097214D02*
X15440071Y-10940072D01*
X15425786Y-10911500D01*
X15397214Y-10897214D01*
X15354357Y-10897214D01*
X15325786Y-10911500D01*
X15311500Y-10925786D01*
X15625786Y-11097214D02*
X15597214Y-11082929D01*
X15582928Y-11068643D01*
X15568643Y-11040072D01*
X15568643Y-10954357D01*
X15582928Y-10925786D01*
X15597214Y-10911500D01*
X15625786Y-10897214D01*
X15668643Y-10897214D01*
X15697214Y-10911500D01*
X15711500Y-10925786D01*
X15725786Y-10954357D01*
X15725786Y-11040072D01*
X15711500Y-11068643D01*
X15697214Y-11082929D01*
X15668643Y-11097214D01*
X15625786Y-11097214D01*
X15897214Y-11097214D02*
X15868643Y-11082929D01*
X15854357Y-11054357D01*
X15854357Y-10797214D01*
X16125786Y-11082929D02*
X16097214Y-11097214D01*
X16040071Y-11097214D01*
X16011500Y-11082929D01*
X15997214Y-11054357D01*
X15997214Y-10940072D01*
X16011500Y-10911500D01*
X16040071Y-10897214D01*
X16097214Y-10897214D01*
X16125786Y-10911500D01*
X16140071Y-10940072D01*
X16140071Y-10968643D01*
X15997214Y-10997214D01*
X16254357Y-11082929D02*
X16282928Y-11097214D01*
X16340071Y-11097214D01*
X16368643Y-11082929D01*
X16382928Y-11054357D01*
X16382928Y-11040072D01*
X16368643Y-11011500D01*
X16340071Y-10997214D01*
X16297214Y-10997214D01*
X16268643Y-10982929D01*
X16254357Y-10954357D01*
X16254357Y-10940072D01*
X16268643Y-10911500D01*
X16297214Y-10897214D01*
X16340071Y-10897214D01*
X16368643Y-10911500D01*
X16482928Y-11211500D02*
X16497214Y-11197214D01*
X16525786Y-11154357D01*
X16540071Y-11125786D01*
X16554357Y-11082929D01*
X16568643Y-11011500D01*
X16568643Y-10954357D01*
X16554357Y-10882929D01*
X16540071Y-10840072D01*
X16525786Y-10811500D01*
X16497214Y-10768643D01*
X16482928Y-10754357D01*
X9996500Y-11357500D02*
G75*
G03*
X9996500Y-11357500I-15000J0D01*
G01*
X10340071Y-11193214D02*
X10368643Y-11193214D01*
X10397214Y-11207500D01*
X10411500Y-11221786D01*
X10425786Y-11250357D01*
X10440071Y-11307500D01*
X10440071Y-11378929D01*
X10425786Y-11436071D01*
X10411500Y-11464643D01*
X10397214Y-11478929D01*
X10368643Y-11493214D01*
X10340071Y-11493214D01*
X10311500Y-11478929D01*
X10297214Y-11464643D01*
X10282928Y-11436071D01*
X10268643Y-11378929D01*
X10268643Y-11307500D01*
X10282928Y-11250357D01*
X10297214Y-11221786D01*
X10311500Y-11207500D01*
X10340071Y-11193214D01*
X10568643Y-11464643D02*
X10582928Y-11478929D01*
X10568643Y-11493214D01*
X10554357Y-11478929D01*
X10568643Y-11464643D01*
X10568643Y-11493214D01*
X10682928Y-11193214D02*
X10868643Y-11193214D01*
X10768643Y-11307500D01*
X10811500Y-11307500D01*
X10840071Y-11321786D01*
X10854357Y-11336071D01*
X10868643Y-11364643D01*
X10868643Y-11436071D01*
X10854357Y-11464643D01*
X10840071Y-11478929D01*
X10811500Y-11493214D01*
X10725786Y-11493214D01*
X10697214Y-11478929D01*
X10682928Y-11464643D01*
X11054357Y-11193214D02*
X11082928Y-11193214D01*
X11111500Y-11207500D01*
X11125786Y-11221786D01*
X11140071Y-11250357D01*
X11154357Y-11307500D01*
X11154357Y-11378929D01*
X11140071Y-11436071D01*
X11125786Y-11464643D01*
X11111500Y-11478929D01*
X11082928Y-11493214D01*
X11054357Y-11493214D01*
X11025786Y-11478929D01*
X11011500Y-11464643D01*
X10997214Y-11436071D01*
X10982928Y-11378929D01*
X10982928Y-11307500D01*
X10997214Y-11250357D01*
X11011500Y-11221786D01*
X11025786Y-11207500D01*
X11054357Y-11193214D01*
X11282928Y-11493214D02*
X11282928Y-11293214D01*
X11282928Y-11321786D02*
X11297214Y-11307500D01*
X11325786Y-11293214D01*
X11368643Y-11293214D01*
X11397214Y-11307500D01*
X11411500Y-11336071D01*
X11411500Y-11493214D01*
X11411500Y-11336071D02*
X11425786Y-11307500D01*
X11454357Y-11293214D01*
X11497214Y-11293214D01*
X11525786Y-11307500D01*
X11540071Y-11336071D01*
X11540071Y-11493214D01*
X11682928Y-11493214D02*
X11682928Y-11293214D01*
X11682928Y-11321786D02*
X11697214Y-11307500D01*
X11725786Y-11293214D01*
X11768643Y-11293214D01*
X11797214Y-11307500D01*
X11811500Y-11336071D01*
X11811500Y-11493214D01*
X11811500Y-11336071D02*
X11825786Y-11307500D01*
X11854357Y-11293214D01*
X11897214Y-11293214D01*
X11925786Y-11307500D01*
X11940071Y-11336071D01*
X11940071Y-11493214D01*
X12525786Y-11178929D02*
X12268643Y-11564643D01*
X12911500Y-11193214D02*
X12940071Y-11193214D01*
X12968643Y-11207500D01*
X12982928Y-11221786D01*
X12997214Y-11250357D01*
X13011500Y-11307500D01*
X13011500Y-11378929D01*
X12997214Y-11436071D01*
X12982928Y-11464643D01*
X12968643Y-11478929D01*
X12940071Y-11493214D01*
X12911500Y-11493214D01*
X12882928Y-11478929D01*
X12868643Y-11464643D01*
X12854357Y-11436071D01*
X12840071Y-11378929D01*
X12840071Y-11307500D01*
X12854357Y-11250357D01*
X12868643Y-11221786D01*
X12882928Y-11207500D01*
X12911500Y-11193214D01*
X13140071Y-11464643D02*
X13154357Y-11478929D01*
X13140071Y-11493214D01*
X13125786Y-11478929D01*
X13140071Y-11464643D01*
X13140071Y-11493214D01*
X13340071Y-11193214D02*
X13368643Y-11193214D01*
X13397214Y-11207500D01*
X13411500Y-11221786D01*
X13425786Y-11250357D01*
X13440071Y-11307500D01*
X13440071Y-11378929D01*
X13425786Y-11436071D01*
X13411500Y-11464643D01*
X13397214Y-11478929D01*
X13368643Y-11493214D01*
X13340071Y-11493214D01*
X13311500Y-11478929D01*
X13297214Y-11464643D01*
X13282928Y-11436071D01*
X13268643Y-11378929D01*
X13268643Y-11307500D01*
X13282928Y-11250357D01*
X13297214Y-11221786D01*
X13311500Y-11207500D01*
X13340071Y-11193214D01*
X13725786Y-11493214D02*
X13554357Y-11493214D01*
X13640071Y-11493214D02*
X13640071Y-11193214D01*
X13611500Y-11236071D01*
X13582928Y-11264643D01*
X13554357Y-11278929D01*
X13840071Y-11221786D02*
X13854357Y-11207500D01*
X13882928Y-11193214D01*
X13954357Y-11193214D01*
X13982928Y-11207500D01*
X13997214Y-11221786D01*
X14011500Y-11250357D01*
X14011500Y-11278929D01*
X13997214Y-11321786D01*
X13825786Y-11493214D01*
X14011500Y-11493214D01*
X14125786Y-11193214D02*
X14125786Y-11250357D01*
X14240071Y-11193214D02*
X14240071Y-11250357D01*
X14682928Y-11607500D02*
X14668643Y-11593214D01*
X14640071Y-11550357D01*
X14625786Y-11521786D01*
X14611500Y-11478929D01*
X14597214Y-11407500D01*
X14597214Y-11350357D01*
X14611500Y-11278929D01*
X14625786Y-11236071D01*
X14640071Y-11207500D01*
X14668643Y-11164643D01*
X14682928Y-11150357D01*
X14840071Y-11321786D02*
X14811500Y-11307500D01*
X14797214Y-11293214D01*
X14782928Y-11264643D01*
X14782928Y-11250357D01*
X14797214Y-11221786D01*
X14811500Y-11207500D01*
X14840071Y-11193214D01*
X14897214Y-11193214D01*
X14925786Y-11207500D01*
X14940071Y-11221786D01*
X14954357Y-11250357D01*
X14954357Y-11264643D01*
X14940071Y-11293214D01*
X14925786Y-11307500D01*
X14897214Y-11321786D01*
X14840071Y-11321786D01*
X14811500Y-11336071D01*
X14797214Y-11350357D01*
X14782928Y-11378929D01*
X14782928Y-11436071D01*
X14797214Y-11464643D01*
X14811500Y-11478929D01*
X14840071Y-11493214D01*
X14897214Y-11493214D01*
X14925786Y-11478929D01*
X14940071Y-11464643D01*
X14954357Y-11436071D01*
X14954357Y-11378929D01*
X14940071Y-11350357D01*
X14925786Y-11336071D01*
X14897214Y-11321786D01*
X15225786Y-11193214D02*
X15082928Y-11193214D01*
X15068643Y-11336071D01*
X15082928Y-11321786D01*
X15111500Y-11307500D01*
X15182928Y-11307500D01*
X15211500Y-11321786D01*
X15225786Y-11336071D01*
X15240071Y-11364643D01*
X15240071Y-11436071D01*
X15225786Y-11464643D01*
X15211500Y-11478929D01*
X15182928Y-11493214D01*
X15111500Y-11493214D01*
X15082928Y-11478929D01*
X15068643Y-11464643D01*
X15597214Y-11493214D02*
X15597214Y-11193214D01*
X15725786Y-11493214D02*
X15725786Y-11336071D01*
X15711500Y-11307500D01*
X15682928Y-11293214D01*
X15640071Y-11293214D01*
X15611500Y-11307500D01*
X15597214Y-11321786D01*
X15911500Y-11493214D02*
X15882928Y-11478929D01*
X15868643Y-11464643D01*
X15854357Y-11436071D01*
X15854357Y-11350357D01*
X15868643Y-11321786D01*
X15882928Y-11307500D01*
X15911500Y-11293214D01*
X15954357Y-11293214D01*
X15982928Y-11307500D01*
X15997214Y-11321786D01*
X16011500Y-11350357D01*
X16011500Y-11436071D01*
X15997214Y-11464643D01*
X15982928Y-11478929D01*
X15954357Y-11493214D01*
X15911500Y-11493214D01*
X16182928Y-11493214D02*
X16154357Y-11478929D01*
X16140071Y-11450357D01*
X16140071Y-11193214D01*
X16411500Y-11478929D02*
X16382928Y-11493214D01*
X16325786Y-11493214D01*
X16297214Y-11478929D01*
X16282928Y-11450357D01*
X16282928Y-11336071D01*
X16297214Y-11307500D01*
X16325786Y-11293214D01*
X16382928Y-11293214D01*
X16411500Y-11307500D01*
X16425786Y-11336071D01*
X16425786Y-11364643D01*
X16282928Y-11393214D01*
X16540071Y-11478929D02*
X16568643Y-11493214D01*
X16625786Y-11493214D01*
X16654357Y-11478929D01*
X16668643Y-11450357D01*
X16668643Y-11436071D01*
X16654357Y-11407500D01*
X16625786Y-11393214D01*
X16582928Y-11393214D01*
X16554357Y-11378929D01*
X16540071Y-11350357D01*
X16540071Y-11336071D01*
X16554357Y-11307500D01*
X16582928Y-11293214D01*
X16625786Y-11293214D01*
X16654357Y-11307500D01*
X16768643Y-11607500D02*
X16782928Y-11593214D01*
X16811500Y-11550357D01*
X16825786Y-11521786D01*
X16840071Y-11478929D01*
X16854357Y-11407500D01*
X16854357Y-11350357D01*
X16840071Y-11278929D01*
X16825786Y-11236071D01*
X16811500Y-11207500D01*
X16782928Y-11164643D01*
X16768643Y-11150357D01*
X9976500Y-11733500D02*
X9976500Y-11773500D01*
X9956500Y-11753500D02*
X9996500Y-11753500D01*
X10340071Y-11589214D02*
X10368643Y-11589214D01*
X10397214Y-11603500D01*
X10411500Y-11617786D01*
X10425786Y-11646357D01*
X10440071Y-11703500D01*
X10440071Y-11774929D01*
X10425786Y-11832071D01*
X10411500Y-11860643D01*
X10397214Y-11874929D01*
X10368643Y-11889214D01*
X10340071Y-11889214D01*
X10311500Y-11874929D01*
X10297214Y-11860643D01*
X10282928Y-11832071D01*
X10268643Y-11774929D01*
X10268643Y-11703500D01*
X10282928Y-11646357D01*
X10297214Y-11617786D01*
X10311500Y-11603500D01*
X10340071Y-11589214D01*
X10568643Y-11860643D02*
X10582928Y-11874929D01*
X10568643Y-11889214D01*
X10554357Y-11874929D01*
X10568643Y-11860643D01*
X10568643Y-11889214D01*
X10840071Y-11689214D02*
X10840071Y-11889214D01*
X10768643Y-11574929D02*
X10697214Y-11789214D01*
X10882928Y-11789214D01*
X11054357Y-11589214D02*
X11082928Y-11589214D01*
X11111500Y-11603500D01*
X11125786Y-11617786D01*
X11140071Y-11646357D01*
X11154357Y-11703500D01*
X11154357Y-11774929D01*
X11140071Y-11832071D01*
X11125786Y-11860643D01*
X11111500Y-11874929D01*
X11082928Y-11889214D01*
X11054357Y-11889214D01*
X11025786Y-11874929D01*
X11011500Y-11860643D01*
X10997214Y-11832071D01*
X10982928Y-11774929D01*
X10982928Y-11703500D01*
X10997214Y-11646357D01*
X11011500Y-11617786D01*
X11025786Y-11603500D01*
X11054357Y-11589214D01*
X11282928Y-11889214D02*
X11282928Y-11689214D01*
X11282928Y-11717786D02*
X11297214Y-11703500D01*
X11325786Y-11689214D01*
X11368643Y-11689214D01*
X11397214Y-11703500D01*
X11411500Y-11732071D01*
X11411500Y-11889214D01*
X11411500Y-11732071D02*
X11425786Y-11703500D01*
X11454357Y-11689214D01*
X11497214Y-11689214D01*
X11525786Y-11703500D01*
X11540071Y-11732071D01*
X11540071Y-11889214D01*
X11682928Y-11889214D02*
X11682928Y-11689214D01*
X11682928Y-11717786D02*
X11697214Y-11703500D01*
X11725786Y-11689214D01*
X11768643Y-11689214D01*
X11797214Y-11703500D01*
X11811500Y-11732071D01*
X11811500Y-11889214D01*
X11811500Y-11732071D02*
X11825786Y-11703500D01*
X11854357Y-11689214D01*
X11897214Y-11689214D01*
X11925786Y-11703500D01*
X11940071Y-11732071D01*
X11940071Y-11889214D01*
X12525786Y-11574929D02*
X12268643Y-11960643D01*
X12911500Y-11589214D02*
X12940071Y-11589214D01*
X12968643Y-11603500D01*
X12982928Y-11617786D01*
X12997214Y-11646357D01*
X13011500Y-11703500D01*
X13011500Y-11774929D01*
X12997214Y-11832071D01*
X12982928Y-11860643D01*
X12968643Y-11874929D01*
X12940071Y-11889214D01*
X12911500Y-11889214D01*
X12882928Y-11874929D01*
X12868643Y-11860643D01*
X12854357Y-11832071D01*
X12840071Y-11774929D01*
X12840071Y-11703500D01*
X12854357Y-11646357D01*
X12868643Y-11617786D01*
X12882928Y-11603500D01*
X12911500Y-11589214D01*
X13140071Y-11860643D02*
X13154357Y-11874929D01*
X13140071Y-11889214D01*
X13125786Y-11874929D01*
X13140071Y-11860643D01*
X13140071Y-11889214D01*
X13340071Y-11589214D02*
X13368643Y-11589214D01*
X13397214Y-11603500D01*
X13411500Y-11617786D01*
X13425786Y-11646357D01*
X13440071Y-11703500D01*
X13440071Y-11774929D01*
X13425786Y-11832071D01*
X13411500Y-11860643D01*
X13397214Y-11874929D01*
X13368643Y-11889214D01*
X13340071Y-11889214D01*
X13311500Y-11874929D01*
X13297214Y-11860643D01*
X13282928Y-11832071D01*
X13268643Y-11774929D01*
X13268643Y-11703500D01*
X13282928Y-11646357D01*
X13297214Y-11617786D01*
X13311500Y-11603500D01*
X13340071Y-11589214D01*
X13725786Y-11889214D02*
X13554357Y-11889214D01*
X13640071Y-11889214D02*
X13640071Y-11589214D01*
X13611500Y-11632071D01*
X13582928Y-11660643D01*
X13554357Y-11674929D01*
X13982928Y-11589214D02*
X13925786Y-11589214D01*
X13897214Y-11603500D01*
X13882928Y-11617786D01*
X13854357Y-11660643D01*
X13840071Y-11717786D01*
X13840071Y-11832071D01*
X13854357Y-11860643D01*
X13868643Y-11874929D01*
X13897214Y-11889214D01*
X13954357Y-11889214D01*
X13982928Y-11874929D01*
X13997214Y-11860643D01*
X14011500Y-11832071D01*
X14011500Y-11760643D01*
X13997214Y-11732071D01*
X13982928Y-11717786D01*
X13954357Y-11703500D01*
X13897214Y-11703500D01*
X13868643Y-11717786D01*
X13854357Y-11732071D01*
X13840071Y-11760643D01*
X14125786Y-11589214D02*
X14125786Y-11646357D01*
X14240071Y-11589214D02*
X14240071Y-11646357D01*
X14682928Y-12003500D02*
X14668643Y-11989214D01*
X14640071Y-11946357D01*
X14625786Y-11917786D01*
X14611500Y-11874929D01*
X14597214Y-11803500D01*
X14597214Y-11746357D01*
X14611500Y-11674929D01*
X14625786Y-11632071D01*
X14640071Y-11603500D01*
X14668643Y-11560643D01*
X14682928Y-11546357D01*
X14925786Y-11689214D02*
X14925786Y-11889214D01*
X14854357Y-11574929D02*
X14782928Y-11789214D01*
X14968643Y-11789214D01*
X15311500Y-11889214D02*
X15311500Y-11589214D01*
X15440071Y-11889214D02*
X15440071Y-11732071D01*
X15425786Y-11703500D01*
X15397214Y-11689214D01*
X15354357Y-11689214D01*
X15325786Y-11703500D01*
X15311500Y-11717786D01*
X15625786Y-11889214D02*
X15597214Y-11874929D01*
X15582928Y-11860643D01*
X15568643Y-11832071D01*
X15568643Y-11746357D01*
X15582928Y-11717786D01*
X15597214Y-11703500D01*
X15625786Y-11689214D01*
X15668643Y-11689214D01*
X15697214Y-11703500D01*
X15711500Y-11717786D01*
X15725786Y-11746357D01*
X15725786Y-11832071D01*
X15711500Y-11860643D01*
X15697214Y-11874929D01*
X15668643Y-11889214D01*
X15625786Y-11889214D01*
X15897214Y-11889214D02*
X15868643Y-11874929D01*
X15854357Y-11846357D01*
X15854357Y-11589214D01*
X16125786Y-11874929D02*
X16097214Y-11889214D01*
X16040071Y-11889214D01*
X16011500Y-11874929D01*
X15997214Y-11846357D01*
X15997214Y-11732071D01*
X16011500Y-11703500D01*
X16040071Y-11689214D01*
X16097214Y-11689214D01*
X16125786Y-11703500D01*
X16140071Y-11732071D01*
X16140071Y-11760643D01*
X15997214Y-11789214D01*
X16254357Y-11874929D02*
X16282928Y-11889214D01*
X16340071Y-11889214D01*
X16368643Y-11874929D01*
X16382928Y-11846357D01*
X16382928Y-11832071D01*
X16368643Y-11803500D01*
X16340071Y-11789214D01*
X16297214Y-11789214D01*
X16268643Y-11774929D01*
X16254357Y-11746357D01*
X16254357Y-11732071D01*
X16268643Y-11703500D01*
X16297214Y-11689214D01*
X16340071Y-11689214D01*
X16368643Y-11703500D01*
X16482928Y-12003500D02*
X16497214Y-11989214D01*
X16525786Y-11946357D01*
X16540071Y-11917786D01*
X16554357Y-11874929D01*
X16568643Y-11803500D01*
X16568643Y-11746357D01*
X16554357Y-11674929D01*
X16540071Y-11632071D01*
X16525786Y-11603500D01*
X16497214Y-11560643D01*
X16482928Y-11546357D01*
X9981563Y-12185563D02*
X9981563Y-12113437D01*
X9909437Y-12113437D01*
X9909437Y-12185563D01*
X9981563Y-12185563D01*
X10440071Y-12285214D02*
X10268643Y-12285214D01*
X10354357Y-12285214D02*
X10354357Y-11985214D01*
X10325786Y-12028071D01*
X10297214Y-12056643D01*
X10268643Y-12070929D01*
X10568643Y-12256643D02*
X10582928Y-12270929D01*
X10568643Y-12285214D01*
X10554357Y-12270929D01*
X10568643Y-12256643D01*
X10568643Y-12285214D01*
X10768643Y-11985214D02*
X10797214Y-11985214D01*
X10825786Y-11999500D01*
X10840071Y-12013786D01*
X10854357Y-12042357D01*
X10868643Y-12099500D01*
X10868643Y-12170929D01*
X10854357Y-12228071D01*
X10840071Y-12256643D01*
X10825786Y-12270929D01*
X10797214Y-12285214D01*
X10768643Y-12285214D01*
X10740071Y-12270929D01*
X10725786Y-12256643D01*
X10711500Y-12228071D01*
X10697214Y-12170929D01*
X10697214Y-12099500D01*
X10711500Y-12042357D01*
X10725786Y-12013786D01*
X10740071Y-11999500D01*
X10768643Y-11985214D01*
X10982928Y-12013786D02*
X10997214Y-11999500D01*
X11025786Y-11985214D01*
X11097214Y-11985214D01*
X11125786Y-11999500D01*
X11140071Y-12013786D01*
X11154357Y-12042357D01*
X11154357Y-12070929D01*
X11140071Y-12113786D01*
X10968643Y-12285214D01*
X11154357Y-12285214D01*
X11282928Y-12285214D02*
X11282928Y-12085214D01*
X11282928Y-12113786D02*
X11297214Y-12099500D01*
X11325786Y-12085214D01*
X11368643Y-12085214D01*
X11397214Y-12099500D01*
X11411500Y-12128071D01*
X11411500Y-12285214D01*
X11411500Y-12128071D02*
X11425786Y-12099500D01*
X11454357Y-12085214D01*
X11497214Y-12085214D01*
X11525786Y-12099500D01*
X11540071Y-12128071D01*
X11540071Y-12285214D01*
X11682928Y-12285214D02*
X11682928Y-12085214D01*
X11682928Y-12113786D02*
X11697214Y-12099500D01*
X11725786Y-12085214D01*
X11768643Y-12085214D01*
X11797214Y-12099500D01*
X11811500Y-12128071D01*
X11811500Y-12285214D01*
X11811500Y-12128071D02*
X11825786Y-12099500D01*
X11854357Y-12085214D01*
X11897214Y-12085214D01*
X11925786Y-12099500D01*
X11940071Y-12128071D01*
X11940071Y-12285214D01*
X12525786Y-11970929D02*
X12268643Y-12356643D01*
X12911500Y-11985214D02*
X12940071Y-11985214D01*
X12968643Y-11999500D01*
X12982928Y-12013786D01*
X12997214Y-12042357D01*
X13011500Y-12099500D01*
X13011500Y-12170929D01*
X12997214Y-12228071D01*
X12982928Y-12256643D01*
X12968643Y-12270929D01*
X12940071Y-12285214D01*
X12911500Y-12285214D01*
X12882928Y-12270929D01*
X12868643Y-12256643D01*
X12854357Y-12228071D01*
X12840071Y-12170929D01*
X12840071Y-12099500D01*
X12854357Y-12042357D01*
X12868643Y-12013786D01*
X12882928Y-11999500D01*
X12911500Y-11985214D01*
X13140071Y-12256643D02*
X13154357Y-12270929D01*
X13140071Y-12285214D01*
X13125786Y-12270929D01*
X13140071Y-12256643D01*
X13140071Y-12285214D01*
X13340071Y-11985214D02*
X13368643Y-11985214D01*
X13397214Y-11999500D01*
X13411500Y-12013786D01*
X13425786Y-12042357D01*
X13440071Y-12099500D01*
X13440071Y-12170929D01*
X13425786Y-12228071D01*
X13411500Y-12256643D01*
X13397214Y-12270929D01*
X13368643Y-12285214D01*
X13340071Y-12285214D01*
X13311500Y-12270929D01*
X13297214Y-12256643D01*
X13282928Y-12228071D01*
X13268643Y-12170929D01*
X13268643Y-12099500D01*
X13282928Y-12042357D01*
X13297214Y-12013786D01*
X13311500Y-11999500D01*
X13340071Y-11985214D01*
X13697214Y-12085214D02*
X13697214Y-12285214D01*
X13625786Y-11970929D02*
X13554357Y-12185214D01*
X13740071Y-12185214D01*
X13911500Y-11985214D02*
X13940071Y-11985214D01*
X13968643Y-11999500D01*
X13982928Y-12013786D01*
X13997214Y-12042357D01*
X14011500Y-12099500D01*
X14011500Y-12170929D01*
X13997214Y-12228071D01*
X13982928Y-12256643D01*
X13968643Y-12270929D01*
X13940071Y-12285214D01*
X13911500Y-12285214D01*
X13882928Y-12270929D01*
X13868643Y-12256643D01*
X13854357Y-12228071D01*
X13840071Y-12170929D01*
X13840071Y-12099500D01*
X13854357Y-12042357D01*
X13868643Y-12013786D01*
X13882928Y-11999500D01*
X13911500Y-11985214D01*
X14125786Y-11985214D02*
X14125786Y-12042357D01*
X14240071Y-11985214D02*
X14240071Y-12042357D01*
X14682928Y-12399500D02*
X14668643Y-12385214D01*
X14640071Y-12342357D01*
X14625786Y-12313786D01*
X14611500Y-12270929D01*
X14597214Y-12199500D01*
X14597214Y-12142357D01*
X14611500Y-12070929D01*
X14625786Y-12028071D01*
X14640071Y-11999500D01*
X14668643Y-11956643D01*
X14682928Y-11942357D01*
X14954357Y-12285214D02*
X14782928Y-12285214D01*
X14868643Y-12285214D02*
X14868643Y-11985214D01*
X14840071Y-12028071D01*
X14811500Y-12056643D01*
X14782928Y-12070929D01*
X15211500Y-11985214D02*
X15154357Y-11985214D01*
X15125786Y-11999500D01*
X15111500Y-12013786D01*
X15082928Y-12056643D01*
X15068643Y-12113786D01*
X15068643Y-12228071D01*
X15082928Y-12256643D01*
X15097214Y-12270929D01*
X15125786Y-12285214D01*
X15182928Y-12285214D01*
X15211500Y-12270929D01*
X15225786Y-12256643D01*
X15240071Y-12228071D01*
X15240071Y-12156643D01*
X15225786Y-12128071D01*
X15211500Y-12113786D01*
X15182928Y-12099500D01*
X15125786Y-12099500D01*
X15097214Y-12113786D01*
X15082928Y-12128071D01*
X15068643Y-12156643D01*
X15597214Y-12285214D02*
X15597214Y-11985214D01*
X15725786Y-12285214D02*
X15725786Y-12128071D01*
X15711500Y-12099500D01*
X15682928Y-12085214D01*
X15640071Y-12085214D01*
X15611500Y-12099500D01*
X15597214Y-12113786D01*
X15911500Y-12285214D02*
X15882928Y-12270929D01*
X15868643Y-12256643D01*
X15854357Y-12228071D01*
X15854357Y-12142357D01*
X15868643Y-12113786D01*
X15882928Y-12099500D01*
X15911500Y-12085214D01*
X15954357Y-12085214D01*
X15982928Y-12099500D01*
X15997214Y-12113786D01*
X16011500Y-12142357D01*
X16011500Y-12228071D01*
X15997214Y-12256643D01*
X15982928Y-12270929D01*
X15954357Y-12285214D01*
X15911500Y-12285214D01*
X16182928Y-12285214D02*
X16154357Y-12270929D01*
X16140071Y-12242357D01*
X16140071Y-11985214D01*
X16411500Y-12270929D02*
X16382928Y-12285214D01*
X16325786Y-12285214D01*
X16297214Y-12270929D01*
X16282928Y-12242357D01*
X16282928Y-12128071D01*
X16297214Y-12099500D01*
X16325786Y-12085214D01*
X16382928Y-12085214D01*
X16411500Y-12099500D01*
X16425786Y-12128071D01*
X16425786Y-12156643D01*
X16282928Y-12185214D01*
X16540071Y-12270929D02*
X16568643Y-12285214D01*
X16625786Y-12285214D01*
X16654357Y-12270929D01*
X16668643Y-12242357D01*
X16668643Y-12228071D01*
X16654357Y-12199500D01*
X16625786Y-12185214D01*
X16582928Y-12185214D01*
X16554357Y-12170929D01*
X16540071Y-12142357D01*
X16540071Y-12128071D01*
X16554357Y-12099500D01*
X16582928Y-12085214D01*
X16625786Y-12085214D01*
X16654357Y-12099500D01*
X16768643Y-12399500D02*
X16782928Y-12385214D01*
X16811500Y-12342357D01*
X16825786Y-12313786D01*
X16840071Y-12270929D01*
X16854357Y-12199500D01*
X16854357Y-12142357D01*
X16840071Y-12070929D01*
X16825786Y-12028071D01*
X16811500Y-11999500D01*
X16782928Y-11956643D01*
X16768643Y-11942357D01*
X9941500Y-12600500D02*
X9996500Y-12545500D01*
X9941500Y-12490500D01*
X9886500Y-12545500D01*
X9941500Y-12600500D01*
X10440071Y-12681214D02*
X10268643Y-12681214D01*
X10354357Y-12681214D02*
X10354357Y-12381214D01*
X10325786Y-12424071D01*
X10297214Y-12452643D01*
X10268643Y-12466929D01*
X10568643Y-12652643D02*
X10582928Y-12666929D01*
X10568643Y-12681214D01*
X10554357Y-12666929D01*
X10568643Y-12652643D01*
X10568643Y-12681214D01*
X10868643Y-12681214D02*
X10697214Y-12681214D01*
X10782928Y-12681214D02*
X10782928Y-12381214D01*
X10754357Y-12424071D01*
X10725786Y-12452643D01*
X10697214Y-12466929D01*
X11054357Y-12381214D02*
X11082928Y-12381214D01*
X11111500Y-12395500D01*
X11125786Y-12409786D01*
X11140071Y-12438357D01*
X11154357Y-12495500D01*
X11154357Y-12566929D01*
X11140071Y-12624071D01*
X11125786Y-12652643D01*
X11111500Y-12666929D01*
X11082928Y-12681214D01*
X11054357Y-12681214D01*
X11025786Y-12666929D01*
X11011500Y-12652643D01*
X10997214Y-12624071D01*
X10982928Y-12566929D01*
X10982928Y-12495500D01*
X10997214Y-12438357D01*
X11011500Y-12409786D01*
X11025786Y-12395500D01*
X11054357Y-12381214D01*
X11282928Y-12681214D02*
X11282928Y-12481214D01*
X11282928Y-12509786D02*
X11297214Y-12495500D01*
X11325786Y-12481214D01*
X11368643Y-12481214D01*
X11397214Y-12495500D01*
X11411500Y-12524071D01*
X11411500Y-12681214D01*
X11411500Y-12524071D02*
X11425786Y-12495500D01*
X11454357Y-12481214D01*
X11497214Y-12481214D01*
X11525786Y-12495500D01*
X11540071Y-12524071D01*
X11540071Y-12681214D01*
X11682928Y-12681214D02*
X11682928Y-12481214D01*
X11682928Y-12509786D02*
X11697214Y-12495500D01*
X11725786Y-12481214D01*
X11768643Y-12481214D01*
X11797214Y-12495500D01*
X11811500Y-12524071D01*
X11811500Y-12681214D01*
X11811500Y-12524071D02*
X11825786Y-12495500D01*
X11854357Y-12481214D01*
X11897214Y-12481214D01*
X11925786Y-12495500D01*
X11940071Y-12524071D01*
X11940071Y-12681214D01*
X12525786Y-12366929D02*
X12268643Y-12752643D01*
X12911500Y-12381214D02*
X12940071Y-12381214D01*
X12968643Y-12395500D01*
X12982928Y-12409786D01*
X12997214Y-12438357D01*
X13011500Y-12495500D01*
X13011500Y-12566929D01*
X12997214Y-12624071D01*
X12982928Y-12652643D01*
X12968643Y-12666929D01*
X12940071Y-12681214D01*
X12911500Y-12681214D01*
X12882928Y-12666929D01*
X12868643Y-12652643D01*
X12854357Y-12624071D01*
X12840071Y-12566929D01*
X12840071Y-12495500D01*
X12854357Y-12438357D01*
X12868643Y-12409786D01*
X12882928Y-12395500D01*
X12911500Y-12381214D01*
X13140071Y-12652643D02*
X13154357Y-12666929D01*
X13140071Y-12681214D01*
X13125786Y-12666929D01*
X13140071Y-12652643D01*
X13140071Y-12681214D01*
X13340071Y-12381214D02*
X13368643Y-12381214D01*
X13397214Y-12395500D01*
X13411500Y-12409786D01*
X13425786Y-12438357D01*
X13440071Y-12495500D01*
X13440071Y-12566929D01*
X13425786Y-12624071D01*
X13411500Y-12652643D01*
X13397214Y-12666929D01*
X13368643Y-12681214D01*
X13340071Y-12681214D01*
X13311500Y-12666929D01*
X13297214Y-12652643D01*
X13282928Y-12624071D01*
X13268643Y-12566929D01*
X13268643Y-12495500D01*
X13282928Y-12438357D01*
X13297214Y-12409786D01*
X13311500Y-12395500D01*
X13340071Y-12381214D01*
X13697214Y-12481214D02*
X13697214Y-12681214D01*
X13625786Y-12366929D02*
X13554357Y-12581214D01*
X13740071Y-12581214D01*
X13825786Y-12381214D02*
X14011500Y-12381214D01*
X13911500Y-12495500D01*
X13954357Y-12495500D01*
X13982928Y-12509786D01*
X13997214Y-12524071D01*
X14011500Y-12552643D01*
X14011500Y-12624071D01*
X13997214Y-12652643D01*
X13982928Y-12666929D01*
X13954357Y-12681214D01*
X13868643Y-12681214D01*
X13840071Y-12666929D01*
X13825786Y-12652643D01*
X14125786Y-12381214D02*
X14125786Y-12438357D01*
X14240071Y-12381214D02*
X14240071Y-12438357D01*
X14682928Y-12795500D02*
X14668643Y-12781214D01*
X14640071Y-12738357D01*
X14625786Y-12709786D01*
X14611500Y-12666929D01*
X14597214Y-12595500D01*
X14597214Y-12538357D01*
X14611500Y-12466929D01*
X14625786Y-12424071D01*
X14640071Y-12395500D01*
X14668643Y-12352643D01*
X14682928Y-12338357D01*
X14925786Y-12481214D02*
X14925786Y-12681214D01*
X14854357Y-12366929D02*
X14782928Y-12581214D01*
X14968643Y-12581214D01*
X15311500Y-12681214D02*
X15311500Y-12381214D01*
X15440071Y-12681214D02*
X15440071Y-12524071D01*
X15425786Y-12495500D01*
X15397214Y-12481214D01*
X15354357Y-12481214D01*
X15325786Y-12495500D01*
X15311500Y-12509786D01*
X15625786Y-12681214D02*
X15597214Y-12666929D01*
X15582928Y-12652643D01*
X15568643Y-12624071D01*
X15568643Y-12538357D01*
X15582928Y-12509786D01*
X15597214Y-12495500D01*
X15625786Y-12481214D01*
X15668643Y-12481214D01*
X15697214Y-12495500D01*
X15711500Y-12509786D01*
X15725786Y-12538357D01*
X15725786Y-12624071D01*
X15711500Y-12652643D01*
X15697214Y-12666929D01*
X15668643Y-12681214D01*
X15625786Y-12681214D01*
X15897214Y-12681214D02*
X15868643Y-12666929D01*
X15854357Y-12638357D01*
X15854357Y-12381214D01*
X16125786Y-12666929D02*
X16097214Y-12681214D01*
X16040071Y-12681214D01*
X16011500Y-12666929D01*
X15997214Y-12638357D01*
X15997214Y-12524071D01*
X16011500Y-12495500D01*
X16040071Y-12481214D01*
X16097214Y-12481214D01*
X16125786Y-12495500D01*
X16140071Y-12524071D01*
X16140071Y-12552643D01*
X15997214Y-12581214D01*
X16254357Y-12666929D02*
X16282928Y-12681214D01*
X16340071Y-12681214D01*
X16368643Y-12666929D01*
X16382928Y-12638357D01*
X16382928Y-12624071D01*
X16368643Y-12595500D01*
X16340071Y-12581214D01*
X16297214Y-12581214D01*
X16268643Y-12566929D01*
X16254357Y-12538357D01*
X16254357Y-12524071D01*
X16268643Y-12495500D01*
X16297214Y-12481214D01*
X16340071Y-12481214D01*
X16368643Y-12495500D01*
X16482928Y-12795500D02*
X16497214Y-12781214D01*
X16525786Y-12738357D01*
X16540071Y-12709786D01*
X16554357Y-12666929D01*
X16568643Y-12595500D01*
X16568643Y-12538357D01*
X16554357Y-12466929D01*
X16540071Y-12424071D01*
X16525786Y-12395500D01*
X16497214Y-12352643D01*
X16482928Y-12338357D01*
M02*
