M48
; DRILL file {KiCad (5.1.7)-1} date 10/28/20 11:12:43
; FORMAT={-:-/ absolute / inch / decimal}
; #@! TF.CreationDate,2020-10-28T11:12:43+01:00
; #@! TF.GenerationSoftware,Kicad,Pcbnew,(5.1.7)-1
; #@! TF.FileFunction,Plated,1,2,PTH
FMAT,2
INCH
T1C0.0079
T2C0.0118
T3C0.0157
T4C0.0402
T5C0.0433
%
G90
G05
T1
X5.8996Y-2.487
X5.937Y-2.4644
X5.937Y-2.5096
X5.9744Y-2.487
T2
X4.0508Y-2.4114
X4.2252Y-2.4252
X4.4697Y-2.9618
X4.4957Y-3.2264
X4.5189Y-2.9142
X4.5232Y-3.1189
X4.5736Y-2.9291
X4.6358Y-2.2614
X4.7909Y-2.387
X4.7945Y-3.1272
X4.8039Y-3.0024
X4.8051Y-2.8996
X4.8362Y-2.6335
X4.8457Y-2.3579
X4.8701Y-3.2752
X4.8728Y-3.0122
X4.8752Y-2.9039
X4.9146Y-2.9976
X4.9579Y-2.3654
X4.976Y-2.1823
X4.9925Y-2.2377
X5.0201Y-2.6382
X5.0272Y-2.7724
X5.0882Y-2.8803
X5.0909Y-2.2654
X5.0965Y-2.3547
X5.1224Y-2.841
X5.161Y-2.8083
X5.1858Y-2.3461
X5.1874Y-3.0134
X5.1898Y-2.7724
X5.2087Y-3.7819
X5.2197Y-2.9094
X5.2244Y-2.865
X5.2437Y-3.1098
X5.2472Y-3.8957
X5.2488Y-2.3456
X5.252Y-2.6358
X5.2626Y-2.8732
X5.2665Y-2.9154
X5.2689Y-3.135
X5.2697Y-3.3197
X5.2941Y-2.7228
X5.3051Y-2.3535
X5.4783Y-2.9984
X5.498Y-3.0366
X5.5425Y-3.2445
X5.5898Y-3.0283
X5.6492Y-2.8839
X5.6543Y-2.9961
X5.8016Y-3.1409
X5.8043Y-2.772
X5.8492Y-2.3169
X5.8709Y-2.3941
X5.8752Y-2.8835
X6.0803Y-2.9213
X6.1535Y-2.9091
X6.2547Y-2.4028
X6.3075Y-2.9799
X6.3248Y-2.9165
X4.9709Y-3.028
X4.9709Y-3.0673
X4.9709Y-3.1067
X4.9709Y-3.1461
X4.9709Y-3.1854
X5.0102Y-3.028
X5.0102Y-3.0673
X5.0102Y-3.1067
X5.0102Y-3.1461
X5.0102Y-3.1854
X5.0496Y-3.028
X5.0496Y-3.0673
X5.0496Y-3.1067
X5.0496Y-3.1461
X5.0496Y-3.1854
X5.089Y-3.028
X5.089Y-3.0673
X5.089Y-3.1067
X5.089Y-3.1461
X5.089Y-3.1854
X5.1283Y-3.028
X5.1283Y-3.0673
X5.1283Y-3.1067
X5.1283Y-3.1461
X5.1283Y-3.1854
T3
X4.5197Y-2.3039
X5.0217Y-2.2941
X5.4252Y-2.4713
T4
X4.372Y-3.3276
X4.9528Y-3.8394
X6.4094Y-2.4319
X4.4016Y-3.8394
X6.4094Y-2.7075
X4.815Y-3.8394
X5.0906Y-3.8394
X4.5394Y-3.8394
X6.4094Y-2.8453
X6.4094Y-2.1563
X4.372Y-2.8945
X6.4094Y-2.2941
X4.6772Y-3.8394
X4.2638Y-3.8394
X4.1063Y-3.3276
X6.4094Y-2.5697
T5
X4.3717Y-3.1638
X4.3724Y-3.0638
X4.3717Y-3.5969
X4.3724Y-3.4969
T0
M30
