G04 #@! TF.GenerationSoftware,KiCad,Pcbnew,(5.1.7)-1*
G04 #@! TF.CreationDate,2020-10-28T11:25:42+01:00*
G04 #@! TF.ProjectId,E-Ink,452d496e-6b2e-46b6-9963-61645f706362,rev?*
G04 #@! TF.SameCoordinates,Original*
G04 #@! TF.FileFunction,Other,User*
%FSLAX46Y46*%
G04 Gerber Fmt 4.6, Leading zero omitted, Abs format (unit mm)*
G04 Created by KiCad (PCBNEW (5.1.7)-1) date 2020-10-28 11:25:42*
%MOMM*%
%LPD*%
G01*
G04 APERTURE LIST*
%ADD10C,0.050000*%
G04 APERTURE END LIST*
D10*
X112570000Y-84520000D02*
G75*
G03*
X112570000Y-84520000I-1520000J0D01*
G01*
X150278000Y-74737000D02*
X150278000Y-71037000D01*
X152178000Y-74737000D02*
X150278000Y-74737000D01*
X152178000Y-71037000D02*
X152178000Y-74737000D01*
X150278000Y-71037000D02*
X152178000Y-71037000D01*
X116110000Y-45145000D02*
X116110000Y-48845000D01*
X114210000Y-45145000D02*
X116110000Y-45145000D01*
X114210000Y-48845000D02*
X114210000Y-45145000D01*
X116110000Y-48845000D02*
X114210000Y-48845000D01*
X111665000Y-45129000D02*
X111665000Y-48829000D01*
X109765000Y-45129000D02*
X111665000Y-45129000D01*
X109765000Y-48829000D02*
X109765000Y-45129000D01*
X111665000Y-48829000D02*
X109765000Y-48829000D01*
X106554000Y-65724000D02*
X110054000Y-65724000D01*
X106554000Y-61824000D02*
X110054000Y-61824000D01*
X106554000Y-65724000D02*
X106554000Y-61824000D01*
X110054000Y-65724000D02*
X110054000Y-61824000D01*
X157750000Y-61420000D02*
X157750000Y-65120000D01*
X155850000Y-61420000D02*
X157750000Y-61420000D01*
X155850000Y-65120000D02*
X155850000Y-61420000D01*
X157750000Y-65120000D02*
X155850000Y-65120000D01*
X155500000Y-61420000D02*
X155500000Y-65120000D01*
X153600000Y-61420000D02*
X155500000Y-61420000D01*
X153600000Y-65120000D02*
X153600000Y-61420000D01*
X155500000Y-65120000D02*
X153600000Y-65120000D01*
X112500000Y-61920000D02*
X112500000Y-65620000D01*
X110600000Y-61920000D02*
X112500000Y-61920000D01*
X110600000Y-65620000D02*
X110600000Y-61920000D01*
X112500000Y-65620000D02*
X110600000Y-65620000D01*
X108000000Y-57420000D02*
X108000000Y-61120000D01*
X106100000Y-57420000D02*
X108000000Y-57420000D01*
X106100000Y-61120000D02*
X106100000Y-57420000D01*
X108000000Y-61120000D02*
X106100000Y-61120000D01*
X105750000Y-57420000D02*
X105750000Y-61120000D01*
X103850000Y-57420000D02*
X105750000Y-57420000D01*
X103850000Y-61120000D02*
X103850000Y-57420000D01*
X105750000Y-61120000D02*
X103850000Y-61120000D01*
X146000000Y-61420000D02*
X146000000Y-65120000D01*
X144100000Y-61420000D02*
X146000000Y-61420000D01*
X144100000Y-65120000D02*
X144100000Y-61420000D01*
X146000000Y-65120000D02*
X144100000Y-65120000D01*
X103750000Y-61920000D02*
X103750000Y-65620000D01*
X101850000Y-61920000D02*
X103750000Y-61920000D01*
X101850000Y-65620000D02*
X101850000Y-61920000D01*
X103750000Y-65620000D02*
X101850000Y-65620000D01*
X143750000Y-61420000D02*
X143750000Y-65120000D01*
X141850000Y-61420000D02*
X143750000Y-61420000D01*
X141850000Y-65120000D02*
X141850000Y-61420000D01*
X143750000Y-65120000D02*
X141850000Y-65120000D01*
X106000000Y-61920000D02*
X106000000Y-65620000D01*
X104100000Y-61920000D02*
X106000000Y-61920000D01*
X104100000Y-65620000D02*
X104100000Y-61920000D01*
X106000000Y-65620000D02*
X104100000Y-65620000D01*
X148250000Y-61420000D02*
X148250000Y-65120000D01*
X146350000Y-61420000D02*
X148250000Y-61420000D01*
X146350000Y-65120000D02*
X146350000Y-61420000D01*
X148250000Y-65120000D02*
X146350000Y-65120000D01*
X112051000Y-48820000D02*
X112051000Y-45120000D01*
X113951000Y-48820000D02*
X112051000Y-48820000D01*
X113951000Y-45120000D02*
X113951000Y-48820000D01*
X112051000Y-45120000D02*
X113951000Y-45120000D01*
X118250000Y-45120000D02*
X118250000Y-48820000D01*
X116350000Y-45120000D02*
X118250000Y-45120000D01*
X116350000Y-48820000D02*
X116350000Y-45120000D01*
X118250000Y-48820000D02*
X116350000Y-48820000D01*
X146600000Y-91620000D02*
X146600000Y-87920000D01*
X148500000Y-91620000D02*
X146600000Y-91620000D01*
X148500000Y-87920000D02*
X148500000Y-91620000D01*
X146600000Y-87920000D02*
X148500000Y-87920000D01*
X146000000Y-83670000D02*
X146000000Y-87370000D01*
X144100000Y-83670000D02*
X146000000Y-83670000D01*
X144100000Y-87370000D02*
X144100000Y-83670000D01*
X146000000Y-87370000D02*
X144100000Y-87370000D01*
X134850000Y-98370000D02*
X134850000Y-94670000D01*
X136750000Y-98370000D02*
X134850000Y-98370000D01*
X136750000Y-94670000D02*
X136750000Y-98370000D01*
X134850000Y-94670000D02*
X136750000Y-94670000D01*
X137600000Y-98395000D02*
X137600000Y-94695000D01*
X139500000Y-98395000D02*
X137600000Y-98395000D01*
X139500000Y-94695000D02*
X139500000Y-98395000D01*
X137600000Y-94695000D02*
X139500000Y-94695000D01*
X140350000Y-98370000D02*
X140350000Y-94670000D01*
X142250000Y-98370000D02*
X140350000Y-98370000D01*
X142250000Y-94670000D02*
X142250000Y-98370000D01*
X140350000Y-94670000D02*
X142250000Y-94670000D01*
X149100000Y-91620000D02*
X149100000Y-87920000D01*
X151000000Y-91620000D02*
X149100000Y-91620000D01*
X151000000Y-87920000D02*
X151000000Y-91620000D01*
X149100000Y-87920000D02*
X151000000Y-87920000D01*
X146082000Y-71037000D02*
X146082000Y-74737000D01*
X144182000Y-71037000D02*
X146082000Y-71037000D01*
X144182000Y-74737000D02*
X144182000Y-71037000D01*
X146082000Y-74737000D02*
X144182000Y-74737000D01*
X110200000Y-70070000D02*
X110200000Y-66470000D01*
X110200000Y-66470000D02*
X106600000Y-66470000D01*
X106600000Y-66470000D02*
X106600000Y-70070000D01*
X106600000Y-70070000D02*
X110200000Y-70070000D01*
X152600000Y-69570000D02*
X152600000Y-65970000D01*
X152600000Y-65970000D02*
X149000000Y-65970000D01*
X149000000Y-65970000D02*
X149000000Y-69570000D01*
X149000000Y-69570000D02*
X152600000Y-69570000D01*
X153250000Y-56920000D02*
X153250000Y-60620000D01*
X151350000Y-56920000D02*
X153250000Y-56920000D01*
X151350000Y-60620000D02*
X151350000Y-56920000D01*
X153250000Y-60620000D02*
X151350000Y-60620000D01*
X160000000Y-61420000D02*
X160000000Y-65120000D01*
X158100000Y-61420000D02*
X160000000Y-61420000D01*
X158100000Y-65120000D02*
X158100000Y-61420000D01*
X160000000Y-65120000D02*
X158100000Y-65120000D01*
X110250000Y-57445000D02*
X110250000Y-61145000D01*
X108350000Y-57445000D02*
X110250000Y-57445000D01*
X108350000Y-61145000D02*
X108350000Y-57445000D01*
X110250000Y-61145000D02*
X108350000Y-61145000D01*
X151000000Y-56920000D02*
X151000000Y-60620000D01*
X149100000Y-56920000D02*
X151000000Y-56920000D01*
X149100000Y-60620000D02*
X149100000Y-56920000D01*
X151000000Y-60620000D02*
X149100000Y-60620000D01*
X146000000Y-87945000D02*
X146000000Y-91645000D01*
X144100000Y-87945000D02*
X146000000Y-87945000D01*
X144100000Y-91645000D02*
X144100000Y-87945000D01*
X146000000Y-91645000D02*
X144100000Y-91645000D01*
X146595000Y-74737000D02*
X146595000Y-71037000D01*
X148495000Y-74737000D02*
X146595000Y-74737000D01*
X148495000Y-71037000D02*
X148495000Y-74737000D01*
X146595000Y-71037000D02*
X148495000Y-71037000D01*
X152750000Y-65120000D02*
X152750000Y-61220000D01*
X148850000Y-65120000D02*
X152750000Y-65120000D01*
X148850000Y-61220000D02*
X152750000Y-61220000D01*
X148850000Y-65120000D02*
X148850000Y-61220000D01*
X164150000Y-84470000D02*
X164150000Y-91070000D01*
X164150000Y-91070000D02*
X152450000Y-91070000D01*
X152450000Y-91070000D02*
X152450000Y-84470000D01*
X152450000Y-84470000D02*
X164150000Y-84470000D01*
X164150000Y-74970000D02*
X164150000Y-81570000D01*
X164150000Y-81570000D02*
X152450000Y-81570000D01*
X152450000Y-81570000D02*
X152450000Y-74970000D01*
X152450000Y-74970000D02*
X164150000Y-74970000D01*
X116820000Y-97520000D02*
G75*
G03*
X116820000Y-97520000I-1520000J0D01*
G01*
X105820000Y-84520000D02*
G75*
G03*
X105820000Y-84520000I-1520000J0D01*
G01*
X113320000Y-97520000D02*
G75*
G03*
X113320000Y-97520000I-1520000J0D01*
G01*
X109820000Y-97520000D02*
G75*
G03*
X109820000Y-97520000I-1520000J0D01*
G01*
X164320000Y-61770000D02*
G75*
G03*
X164320000Y-61770000I-1520000J0D01*
G01*
X164320000Y-58270000D02*
G75*
G03*
X164320000Y-58270000I-1520000J0D01*
G01*
X164320000Y-54770000D02*
G75*
G03*
X164320000Y-54770000I-1520000J0D01*
G01*
X164320000Y-68770000D02*
G75*
G03*
X164320000Y-68770000I-1520000J0D01*
G01*
X164320000Y-65270000D02*
G75*
G03*
X164320000Y-65270000I-1520000J0D01*
G01*
X120320000Y-97520000D02*
G75*
G03*
X120320000Y-97520000I-1520000J0D01*
G01*
X123820000Y-97520000D02*
G75*
G03*
X123820000Y-97520000I-1520000J0D01*
G01*
X127320000Y-97520000D02*
G75*
G03*
X127320000Y-97520000I-1520000J0D01*
G01*
X130820000Y-97520000D02*
G75*
G03*
X130820000Y-97520000I-1520000J0D01*
G01*
X112570000Y-73520000D02*
G75*
G03*
X112570000Y-73520000I-1520000J0D01*
G01*
X164320000Y-72270000D02*
G75*
G03*
X164320000Y-72270000I-1520000J0D01*
G01*
M02*
