%FSLAX45Y45*%
G04 Gerber Fmt 4.5, Leading zero omitted, Abs format (unit mm)*
G04 Created by KiCad (PCBNEW (5.1.7)-1) date 2020-10-28 11:10:14*
%MOMM*%
%LPD*%
G01*
G04 APERTURE LIST*
%TA.AperFunction,Profile*%
%ADD10C,0.050000*%
%TD*%
%ADD11C,0.200000*%
%ADD12C,0.300000*%
G04 APERTURE END LIST*
D10*
X16320000Y-4731000D02*
G75*
G03*
X16320000Y-4731000I-150000J0D01*
G01*
X16319000Y-9649000D02*
G75*
G03*
X16319000Y-9649000I-150000J0D01*
G01*
X10499000Y-9648000D02*
G75*
G03*
X10499000Y-9648000I-150000J0D01*
G01*
X10500000Y-4730000D02*
G75*
G03*
X10500000Y-4730000I-150000J0D01*
G01*
X16520000Y-9999000D02*
X9999000Y-9999000D01*
X16520000Y-4380000D02*
X16520000Y-9999000D01*
X9999000Y-4380000D02*
X16520000Y-4380000D01*
X9999000Y-9999000D02*
X9999000Y-4380000D01*
D11*
D12*
X10282928Y-10467214D02*
X10282928Y-10167214D01*
X10354357Y-10167214D01*
X10397214Y-10181500D01*
X10425786Y-10210072D01*
X10440071Y-10238643D01*
X10454357Y-10295786D01*
X10454357Y-10338643D01*
X10440071Y-10395786D01*
X10425786Y-10424357D01*
X10397214Y-10452929D01*
X10354357Y-10467214D01*
X10282928Y-10467214D01*
X10582928Y-10467214D02*
X10582928Y-10267214D01*
X10582928Y-10324357D02*
X10597214Y-10295786D01*
X10611500Y-10281500D01*
X10640071Y-10267214D01*
X10668643Y-10267214D01*
X10768643Y-10467214D02*
X10768643Y-10267214D01*
X10768643Y-10167214D02*
X10754357Y-10181500D01*
X10768643Y-10195786D01*
X10782928Y-10181500D01*
X10768643Y-10167214D01*
X10768643Y-10195786D01*
X10954357Y-10467214D02*
X10925786Y-10452929D01*
X10911500Y-10424357D01*
X10911500Y-10167214D01*
X11111500Y-10467214D02*
X11082928Y-10452929D01*
X11068643Y-10424357D01*
X11068643Y-10167214D01*
X11454357Y-10467214D02*
X11454357Y-10167214D01*
X11554357Y-10381500D01*
X11654357Y-10167214D01*
X11654357Y-10467214D01*
X11925786Y-10467214D02*
X11925786Y-10310072D01*
X11911500Y-10281500D01*
X11882928Y-10267214D01*
X11825786Y-10267214D01*
X11797214Y-10281500D01*
X11925786Y-10452929D02*
X11897214Y-10467214D01*
X11825786Y-10467214D01*
X11797214Y-10452929D01*
X11782928Y-10424357D01*
X11782928Y-10395786D01*
X11797214Y-10367214D01*
X11825786Y-10352929D01*
X11897214Y-10352929D01*
X11925786Y-10338643D01*
X12068643Y-10267214D02*
X12068643Y-10567214D01*
X12068643Y-10281500D02*
X12097214Y-10267214D01*
X12154357Y-10267214D01*
X12182928Y-10281500D01*
X12197214Y-10295786D01*
X12211500Y-10324357D01*
X12211500Y-10410072D01*
X12197214Y-10438643D01*
X12182928Y-10452929D01*
X12154357Y-10467214D01*
X12097214Y-10467214D01*
X12068643Y-10452929D01*
X12340071Y-10438643D02*
X12354357Y-10452929D01*
X12340071Y-10467214D01*
X12325786Y-10452929D01*
X12340071Y-10438643D01*
X12340071Y-10467214D01*
X12340071Y-10281500D02*
X12354357Y-10295786D01*
X12340071Y-10310072D01*
X12325786Y-10295786D01*
X12340071Y-10281500D01*
X12340071Y-10310072D01*
M02*
