G04 #@! TF.GenerationSoftware,KiCad,Pcbnew,5.1.5-52549c5~84~ubuntu18.04.1*
G04 #@! TF.CreationDate,2019-12-19T12:34:09+01:00*
G04 #@! TF.ProjectId,E-Ink,452d496e-6b2e-46b6-9963-61645f706362,rev?*
G04 #@! TF.SameCoordinates,Original*
G04 #@! TF.FileFunction,Legend,Top*
G04 #@! TF.FilePolarity,Positive*
%FSLAX46Y46*%
G04 Gerber Fmt 4.6, Leading zero omitted, Abs format (unit mm)*
G04 Created by KiCad (PCBNEW 5.1.5-52549c5~84~ubuntu18.04.1) date 2019-12-19 12:34:09*
%MOMM*%
%LPD*%
G04 APERTURE LIST*
%ADD10C,0.150000*%
%ADD11C,0.120000*%
%ADD12C,0.100000*%
G04 APERTURE END LIST*
D10*
X129233333Y-95357142D02*
X129185714Y-95404761D01*
X129042857Y-95452380D01*
X128947619Y-95452380D01*
X128804761Y-95404761D01*
X128709523Y-95309523D01*
X128661904Y-95214285D01*
X128614285Y-95023809D01*
X128614285Y-94880952D01*
X128661904Y-94690476D01*
X128709523Y-94595238D01*
X128804761Y-94500000D01*
X128947619Y-94452380D01*
X129042857Y-94452380D01*
X129185714Y-94500000D01*
X129233333Y-94547619D01*
X129614285Y-95404761D02*
X129757142Y-95452380D01*
X129995238Y-95452380D01*
X130090476Y-95404761D01*
X130138095Y-95357142D01*
X130185714Y-95261904D01*
X130185714Y-95166666D01*
X130138095Y-95071428D01*
X130090476Y-95023809D01*
X129995238Y-94976190D01*
X129804761Y-94928571D01*
X129709523Y-94880952D01*
X129661904Y-94833333D01*
X129614285Y-94738095D01*
X129614285Y-94642857D01*
X129661904Y-94547619D01*
X129709523Y-94500000D01*
X129804761Y-94452380D01*
X130042857Y-94452380D01*
X130185714Y-94500000D01*
X124614285Y-95404761D02*
X124757142Y-95452380D01*
X124995238Y-95452380D01*
X125090476Y-95404761D01*
X125138095Y-95357142D01*
X125185714Y-95261904D01*
X125185714Y-95166666D01*
X125138095Y-95071428D01*
X125090476Y-95023809D01*
X124995238Y-94976190D01*
X124804761Y-94928571D01*
X124709523Y-94880952D01*
X124661904Y-94833333D01*
X124614285Y-94738095D01*
X124614285Y-94642857D01*
X124661904Y-94547619D01*
X124709523Y-94500000D01*
X124804761Y-94452380D01*
X125042857Y-94452380D01*
X125185714Y-94500000D01*
X126185714Y-95357142D02*
X126138095Y-95404761D01*
X125995238Y-95452380D01*
X125900000Y-95452380D01*
X125757142Y-95404761D01*
X125661904Y-95309523D01*
X125614285Y-95214285D01*
X125566666Y-95023809D01*
X125566666Y-94880952D01*
X125614285Y-94690476D01*
X125661904Y-94595238D01*
X125757142Y-94500000D01*
X125900000Y-94452380D01*
X125995238Y-94452380D01*
X126138095Y-94500000D01*
X126185714Y-94547619D01*
X126614285Y-95452380D02*
X126614285Y-94452380D01*
X127185714Y-95452380D02*
X126757142Y-94880952D01*
X127185714Y-94452380D02*
X126614285Y-95023809D01*
X120828571Y-95452380D02*
X120828571Y-94452380D01*
X121161904Y-95166666D01*
X121495238Y-94452380D01*
X121495238Y-95452380D01*
X122161904Y-94452380D02*
X122352380Y-94452380D01*
X122447619Y-94500000D01*
X122542857Y-94595238D01*
X122590476Y-94785714D01*
X122590476Y-95119047D01*
X122542857Y-95309523D01*
X122447619Y-95404761D01*
X122352380Y-95452380D01*
X122161904Y-95452380D01*
X122066666Y-95404761D01*
X121971428Y-95309523D01*
X121923809Y-95119047D01*
X121923809Y-94785714D01*
X121971428Y-94595238D01*
X122066666Y-94500000D01*
X122161904Y-94452380D01*
X122971428Y-95404761D02*
X123114285Y-95452380D01*
X123352380Y-95452380D01*
X123447619Y-95404761D01*
X123495238Y-95357142D01*
X123542857Y-95261904D01*
X123542857Y-95166666D01*
X123495238Y-95071428D01*
X123447619Y-95023809D01*
X123352380Y-94976190D01*
X123161904Y-94928571D01*
X123066666Y-94880952D01*
X123019047Y-94833333D01*
X122971428Y-94738095D01*
X122971428Y-94642857D01*
X123019047Y-94547619D01*
X123066666Y-94500000D01*
X123161904Y-94452380D01*
X123400000Y-94452380D01*
X123542857Y-94500000D01*
X123971428Y-95452380D02*
X123971428Y-94452380D01*
X117328571Y-95452380D02*
X117328571Y-94452380D01*
X117661904Y-95166666D01*
X117995238Y-94452380D01*
X117995238Y-95452380D01*
X118471428Y-95452380D02*
X118471428Y-94452380D01*
X118900000Y-95404761D02*
X119042857Y-95452380D01*
X119280952Y-95452380D01*
X119376190Y-95404761D01*
X119423809Y-95357142D01*
X119471428Y-95261904D01*
X119471428Y-95166666D01*
X119423809Y-95071428D01*
X119376190Y-95023809D01*
X119280952Y-94976190D01*
X119090476Y-94928571D01*
X118995238Y-94880952D01*
X118947619Y-94833333D01*
X118900000Y-94738095D01*
X118900000Y-94642857D01*
X118947619Y-94547619D01*
X118995238Y-94500000D01*
X119090476Y-94452380D01*
X119328571Y-94452380D01*
X119471428Y-94500000D01*
X120090476Y-94452380D02*
X120280952Y-94452380D01*
X120376190Y-94500000D01*
X120471428Y-94595238D01*
X120519047Y-94785714D01*
X120519047Y-95119047D01*
X120471428Y-95309523D01*
X120376190Y-95404761D01*
X120280952Y-95452380D01*
X120090476Y-95452380D01*
X119995238Y-95404761D01*
X119900000Y-95309523D01*
X119852380Y-95119047D01*
X119852380Y-94785714D01*
X119900000Y-94595238D01*
X119995238Y-94500000D01*
X120090476Y-94452380D01*
X115209523Y-94452380D02*
X114733333Y-94452380D01*
X114685714Y-94928571D01*
X114733333Y-94880952D01*
X114828571Y-94833333D01*
X115066666Y-94833333D01*
X115161904Y-94880952D01*
X115209523Y-94928571D01*
X115257142Y-95023809D01*
X115257142Y-95261904D01*
X115209523Y-95357142D01*
X115161904Y-95404761D01*
X115066666Y-95452380D01*
X114828571Y-95452380D01*
X114733333Y-95404761D01*
X114685714Y-95357142D01*
X115542857Y-94452380D02*
X115876190Y-95452380D01*
X116209523Y-94452380D01*
X110661904Y-94452380D02*
X111280952Y-94452380D01*
X110947619Y-94833333D01*
X111090476Y-94833333D01*
X111185714Y-94880952D01*
X111233333Y-94928571D01*
X111280952Y-95023809D01*
X111280952Y-95261904D01*
X111233333Y-95357142D01*
X111185714Y-95404761D01*
X111090476Y-95452380D01*
X110804761Y-95452380D01*
X110709523Y-95404761D01*
X110661904Y-95357142D01*
X111566666Y-94452380D02*
X111900000Y-95452380D01*
X112233333Y-94452380D01*
X112471428Y-94452380D02*
X113090476Y-94452380D01*
X112757142Y-94833333D01*
X112900000Y-94833333D01*
X112995238Y-94880952D01*
X113042857Y-94928571D01*
X113090476Y-95023809D01*
X113090476Y-95261904D01*
X113042857Y-95357142D01*
X112995238Y-95404761D01*
X112900000Y-95452380D01*
X112614285Y-95452380D01*
X112519047Y-95404761D01*
X112471428Y-95357142D01*
X107538095Y-94500000D02*
X107442857Y-94452380D01*
X107300000Y-94452380D01*
X107157142Y-94500000D01*
X107061904Y-94595238D01*
X107014285Y-94690476D01*
X106966666Y-94880952D01*
X106966666Y-95023809D01*
X107014285Y-95214285D01*
X107061904Y-95309523D01*
X107157142Y-95404761D01*
X107300000Y-95452380D01*
X107395238Y-95452380D01*
X107538095Y-95404761D01*
X107585714Y-95357142D01*
X107585714Y-95023809D01*
X107395238Y-95023809D01*
X108014285Y-95452380D02*
X108014285Y-94452380D01*
X108585714Y-95452380D01*
X108585714Y-94452380D01*
X109061904Y-95452380D02*
X109061904Y-94452380D01*
X109300000Y-94452380D01*
X109442857Y-94500000D01*
X109538095Y-94595238D01*
X109585714Y-94690476D01*
X109633333Y-94880952D01*
X109633333Y-95023809D01*
X109585714Y-95214285D01*
X109538095Y-95309523D01*
X109442857Y-95404761D01*
X109300000Y-95452380D01*
X109061904Y-95452380D01*
D11*
X157510000Y-63531252D02*
X157510000Y-63008748D01*
X156090000Y-63531252D02*
X156090000Y-63008748D01*
X155260000Y-63531252D02*
X155260000Y-63008748D01*
X153840000Y-63531252D02*
X153840000Y-63008748D01*
X112260000Y-64031252D02*
X112260000Y-63508748D01*
X110840000Y-64031252D02*
X110840000Y-63508748D01*
X107760000Y-59531252D02*
X107760000Y-59008748D01*
X106340000Y-59531252D02*
X106340000Y-59008748D01*
X105510000Y-59531252D02*
X105510000Y-59008748D01*
X104090000Y-59531252D02*
X104090000Y-59008748D01*
X145760000Y-63531252D02*
X145760000Y-63008748D01*
X144340000Y-63531252D02*
X144340000Y-63008748D01*
X103510000Y-64031252D02*
X103510000Y-63508748D01*
X102090000Y-64031252D02*
X102090000Y-63508748D01*
X143510000Y-63531252D02*
X143510000Y-63008748D01*
X142090000Y-63531252D02*
X142090000Y-63008748D01*
X105760000Y-64031252D02*
X105760000Y-63508748D01*
X104340000Y-64031252D02*
X104340000Y-63508748D01*
X148010000Y-63531252D02*
X148010000Y-63008748D01*
X146590000Y-63531252D02*
X146590000Y-63008748D01*
X112090000Y-46758748D02*
X112090000Y-47281252D01*
X113510000Y-46758748D02*
X113510000Y-47281252D01*
X118010000Y-47281252D02*
X118010000Y-46758748D01*
X116590000Y-47281252D02*
X116590000Y-46758748D01*
X146840000Y-89508748D02*
X146840000Y-90031252D01*
X148260000Y-89508748D02*
X148260000Y-90031252D01*
X145760000Y-85781252D02*
X145760000Y-85258748D01*
X144340000Y-85781252D02*
X144340000Y-85258748D01*
X135090000Y-96258748D02*
X135090000Y-96781252D01*
X136510000Y-96258748D02*
X136510000Y-96781252D01*
X137840000Y-96283748D02*
X137840000Y-96806252D01*
X139260000Y-96283748D02*
X139260000Y-96806252D01*
X140590000Y-96258748D02*
X140590000Y-96781252D01*
X142010000Y-96258748D02*
X142010000Y-96781252D01*
X126538748Y-63480000D02*
X127061252Y-63480000D01*
X126538748Y-62060000D02*
X127061252Y-62060000D01*
X127061252Y-59810000D02*
X126538748Y-59810000D01*
X127061252Y-61230000D02*
X126538748Y-61230000D01*
X149340000Y-89508748D02*
X149340000Y-90031252D01*
X150760000Y-89508748D02*
X150760000Y-90031252D01*
X121010000Y-74031252D02*
X121010000Y-73508748D01*
X119590000Y-74031252D02*
X119590000Y-73508748D01*
X139300000Y-54020000D02*
X124800000Y-54020000D01*
X140800000Y-44020000D02*
X140300000Y-44020000D01*
X140800000Y-54020000D02*
X140800000Y-44020000D01*
X139300000Y-54020000D02*
X140800000Y-54020000D01*
X123300000Y-54020000D02*
X123300000Y-44020000D01*
X124800000Y-54020000D02*
X123300000Y-54020000D01*
X140300000Y-44020000D02*
X123300000Y-44020000D01*
X109300000Y-76020000D02*
X109300000Y-82020000D01*
X112300000Y-76020000D02*
X109300000Y-76020000D01*
X100300000Y-76020000D02*
X112300000Y-76020000D01*
X100300000Y-82020000D02*
X100300000Y-76020000D01*
X112300000Y-82020000D02*
X100300000Y-82020000D01*
X112300000Y-76020000D02*
X112300000Y-82020000D01*
X109900000Y-69870000D02*
X106900000Y-69870000D01*
X109900000Y-66670000D02*
X106900000Y-66670000D01*
X152300000Y-69370000D02*
X149300000Y-69370000D01*
X152300000Y-66170000D02*
X149300000Y-66170000D01*
X109300000Y-87020000D02*
X109300000Y-93020000D01*
X112300000Y-87020000D02*
X109300000Y-87020000D01*
X100300000Y-87020000D02*
X112300000Y-87020000D01*
X100300000Y-93020000D02*
X100300000Y-87020000D01*
X112300000Y-93020000D02*
X100300000Y-93020000D01*
X112300000Y-87020000D02*
X112300000Y-93020000D01*
X148510000Y-59031252D02*
X148510000Y-58508748D01*
X147090000Y-59031252D02*
X147090000Y-58508748D01*
X144840000Y-58508748D02*
X144840000Y-59031252D01*
X146260000Y-58508748D02*
X146260000Y-59031252D01*
X153010000Y-59031252D02*
X153010000Y-58508748D01*
X151590000Y-59031252D02*
X151590000Y-58508748D01*
X159760000Y-63531252D02*
X159760000Y-63008748D01*
X158340000Y-63531252D02*
X158340000Y-63008748D01*
X110010000Y-59556252D02*
X110010000Y-59033748D01*
X108590000Y-59556252D02*
X108590000Y-59033748D01*
X150760000Y-59031252D02*
X150760000Y-58508748D01*
X149340000Y-59031252D02*
X149340000Y-58508748D01*
X108590000Y-51733748D02*
X108590000Y-52256252D01*
X110010000Y-51733748D02*
X110010000Y-52256252D01*
X109840000Y-46783748D02*
X109840000Y-47306252D01*
X111260000Y-46783748D02*
X111260000Y-47306252D01*
X114340000Y-46758748D02*
X114340000Y-47281252D01*
X115760000Y-46758748D02*
X115760000Y-47281252D01*
X117590000Y-51758748D02*
X117590000Y-52281252D01*
X119010000Y-51758748D02*
X119010000Y-52281252D01*
X145760000Y-90056252D02*
X145760000Y-89533748D01*
X144340000Y-90056252D02*
X144340000Y-89533748D01*
X121010000Y-84031252D02*
X121010000Y-83508748D01*
X119590000Y-84031252D02*
X119590000Y-83508748D01*
X119590000Y-87758748D02*
X119590000Y-88281252D01*
X121010000Y-87758748D02*
X121010000Y-88281252D01*
X117340000Y-73508748D02*
X117340000Y-74031252D01*
X118760000Y-73508748D02*
X118760000Y-74031252D01*
X149190000Y-64810000D02*
X149190000Y-63805000D01*
X149190000Y-61560000D02*
X149420000Y-61560000D01*
X149190000Y-62535000D02*
X149190000Y-61560000D01*
X152410000Y-62535000D02*
X152410000Y-61560000D01*
X152180000Y-61560000D02*
X152410000Y-61560000D01*
X152410000Y-64780000D02*
X152410000Y-63805000D01*
X152180000Y-64780000D02*
X152410000Y-64780000D01*
X141420000Y-92320000D02*
X141800000Y-92320000D01*
X141420000Y-92740000D02*
X141420000Y-92320000D01*
X123180000Y-92740000D02*
X123180000Y-92320000D01*
X141420000Y-92740000D02*
X123180000Y-92740000D01*
X123180000Y-73300000D02*
X124180000Y-73300000D01*
X123180000Y-73920000D02*
X123180000Y-73300000D01*
X141420000Y-73300000D02*
X140420000Y-73300000D01*
X141420000Y-73920000D02*
X141420000Y-73300000D01*
D12*
X152650000Y-50170000D02*
X152800000Y-50470000D01*
X152350000Y-50170000D02*
X152650000Y-50170000D01*
X147950000Y-50170000D02*
X148250000Y-50170000D01*
X147950000Y-50170000D02*
X147800000Y-50470000D01*
D10*
X148350000Y-53320000D02*
G75*
G03X152200000Y-53370000I1950000J1900000D01*
G01*
D12*
X116130000Y-49920000D02*
X116280000Y-50220000D01*
X115830000Y-49920000D02*
X116130000Y-49920000D01*
X111430000Y-49920000D02*
X111730000Y-49920000D01*
X111430000Y-49920000D02*
X111280000Y-50220000D01*
D10*
X111830000Y-53070000D02*
G75*
G03X115680000Y-53120000I1950000J1900000D01*
G01*
D12*
X161425000Y-90895000D02*
X161050000Y-90895000D01*
X161425000Y-90520000D02*
X161425000Y-90895000D01*
X155175000Y-90895000D02*
X155175000Y-90495000D01*
X155575000Y-90895000D02*
X155175000Y-90895000D01*
X161425000Y-84645000D02*
X160925000Y-84645000D01*
X161425000Y-85195000D02*
X161425000Y-84645000D01*
X154875000Y-84745000D02*
X153225000Y-84745000D01*
X154875000Y-84970000D02*
X154875000Y-84745000D01*
X155175000Y-84970000D02*
X154875000Y-84970000D01*
X155525000Y-84645000D02*
X155175000Y-84970000D01*
X155525000Y-84645000D02*
X155825000Y-84645000D01*
X161425000Y-81395000D02*
X161050000Y-81395000D01*
X161425000Y-81020000D02*
X161425000Y-81395000D01*
X155175000Y-81395000D02*
X155175000Y-80995000D01*
X155575000Y-81395000D02*
X155175000Y-81395000D01*
X161425000Y-75145000D02*
X160925000Y-75145000D01*
X161425000Y-75695000D02*
X161425000Y-75145000D01*
X154875000Y-75245000D02*
X153225000Y-75245000D01*
X154875000Y-75470000D02*
X154875000Y-75245000D01*
X155175000Y-75470000D02*
X154875000Y-75470000D01*
X155525000Y-75145000D02*
X155175000Y-75470000D01*
X155525000Y-75145000D02*
X155825000Y-75145000D01*
X116670000Y-97520000D02*
G75*
G03X116670000Y-97520000I-1370000J0D01*
G01*
X105670000Y-84520000D02*
G75*
G03X105670000Y-84520000I-1370000J0D01*
G01*
X113170000Y-97520000D02*
G75*
G03X113170000Y-97520000I-1370000J0D01*
G01*
X109670000Y-97520000D02*
G75*
G03X109670000Y-97520000I-1370000J0D01*
G01*
X164170000Y-61770000D02*
G75*
G03X164170000Y-61770000I-1370000J0D01*
G01*
X164170000Y-58270000D02*
G75*
G03X164170000Y-58270000I-1370000J0D01*
G01*
X164170000Y-54770000D02*
G75*
G03X164170000Y-54770000I-1370000J0D01*
G01*
X164170000Y-68770000D02*
G75*
G03X164170000Y-68770000I-1370000J0D01*
G01*
X164170000Y-65270000D02*
G75*
G03X164170000Y-65270000I-1370000J0D01*
G01*
X120170000Y-97520000D02*
G75*
G03X120170000Y-97520000I-1370000J0D01*
G01*
X123670000Y-97520000D02*
G75*
G03X123670000Y-97520000I-1370000J0D01*
G01*
X127170000Y-97520000D02*
G75*
G03X127170000Y-97520000I-1370000J0D01*
G01*
X130670000Y-97520000D02*
G75*
G03X130670000Y-97520000I-1370000J0D01*
G01*
X112420000Y-73520000D02*
G75*
G03X112420000Y-73520000I-1370000J0D01*
G01*
X112420000Y-84520000D02*
G75*
G03X112420000Y-84520000I-1370000J0D01*
G01*
X164170000Y-72270000D02*
G75*
G03X164170000Y-72270000I-1370000J0D01*
G01*
X129875000Y-63845000D02*
X129875000Y-64795000D01*
X129450000Y-63420000D02*
X129875000Y-63845000D01*
X129450000Y-63045000D02*
X129450000Y-63420000D01*
X134650000Y-63820000D02*
X134650000Y-63370000D01*
X134650000Y-63820000D02*
X134275000Y-63820000D01*
X134650000Y-59220000D02*
X134250000Y-59220000D01*
X134650000Y-59220000D02*
X134650000Y-59670000D01*
X129450000Y-59220000D02*
X129875000Y-59220000D01*
X129450000Y-59220000D02*
X129450000Y-59595000D01*
D10*
X106635714Y-63252380D02*
X106635714Y-64061904D01*
X106683333Y-64157142D01*
X106730952Y-64204761D01*
X106826190Y-64252380D01*
X107016666Y-64252380D01*
X107111904Y-64204761D01*
X107159523Y-64157142D01*
X107207142Y-64061904D01*
X107207142Y-63252380D01*
X107635714Y-63347619D02*
X107683333Y-63300000D01*
X107778571Y-63252380D01*
X108016666Y-63252380D01*
X108111904Y-63300000D01*
X108159523Y-63347619D01*
X108207142Y-63442857D01*
X108207142Y-63538095D01*
X108159523Y-63680952D01*
X107588095Y-64252380D01*
X108207142Y-64252380D01*
X108826190Y-63252380D02*
X108921428Y-63252380D01*
X109016666Y-63300000D01*
X109064285Y-63347619D01*
X109111904Y-63442857D01*
X109159523Y-63633333D01*
X109159523Y-63871428D01*
X109111904Y-64061904D01*
X109064285Y-64157142D01*
X109016666Y-64204761D01*
X108921428Y-64252380D01*
X108826190Y-64252380D01*
X108730952Y-64204761D01*
X108683333Y-64157142D01*
X108635714Y-64061904D01*
X108588095Y-63871428D01*
X108588095Y-63633333D01*
X108635714Y-63442857D01*
X108683333Y-63347619D01*
X108730952Y-63300000D01*
X108826190Y-63252380D01*
X109540476Y-63347619D02*
X109588095Y-63300000D01*
X109683333Y-63252380D01*
X109921428Y-63252380D01*
X110016666Y-63300000D01*
X110064285Y-63347619D01*
X110111904Y-63442857D01*
X110111904Y-63538095D01*
X110064285Y-63680952D01*
X109492857Y-64252380D01*
X110111904Y-64252380D01*
X157157142Y-68239047D02*
X157204761Y-68286666D01*
X157252380Y-68429523D01*
X157252380Y-68524761D01*
X157204761Y-68667619D01*
X157109523Y-68762857D01*
X157014285Y-68810476D01*
X156823809Y-68858095D01*
X156680952Y-68858095D01*
X156490476Y-68810476D01*
X156395238Y-68762857D01*
X156300000Y-68667619D01*
X156252380Y-68524761D01*
X156252380Y-68429523D01*
X156300000Y-68286666D01*
X156347619Y-68239047D01*
X156347619Y-67858095D02*
X156300000Y-67810476D01*
X156252380Y-67715238D01*
X156252380Y-67477142D01*
X156300000Y-67381904D01*
X156347619Y-67334285D01*
X156442857Y-67286666D01*
X156538095Y-67286666D01*
X156680952Y-67334285D01*
X157252380Y-67905714D01*
X157252380Y-67286666D01*
X156252380Y-66667619D02*
X156252380Y-66572380D01*
X156300000Y-66477142D01*
X156347619Y-66429523D01*
X156442857Y-66381904D01*
X156633333Y-66334285D01*
X156871428Y-66334285D01*
X157061904Y-66381904D01*
X157157142Y-66429523D01*
X157204761Y-66477142D01*
X157252380Y-66572380D01*
X157252380Y-66667619D01*
X157204761Y-66762857D01*
X157157142Y-66810476D01*
X157061904Y-66858095D01*
X156871428Y-66905714D01*
X156633333Y-66905714D01*
X156442857Y-66858095D01*
X156347619Y-66810476D01*
X156300000Y-66762857D01*
X156252380Y-66667619D01*
X157252380Y-65381904D02*
X157252380Y-65953333D01*
X157252380Y-65667619D02*
X156252380Y-65667619D01*
X156395238Y-65762857D01*
X156490476Y-65858095D01*
X156538095Y-65953333D01*
X154937142Y-68239047D02*
X154984761Y-68286666D01*
X155032380Y-68429523D01*
X155032380Y-68524761D01*
X154984761Y-68667619D01*
X154889523Y-68762857D01*
X154794285Y-68810476D01*
X154603809Y-68858095D01*
X154460952Y-68858095D01*
X154270476Y-68810476D01*
X154175238Y-68762857D01*
X154080000Y-68667619D01*
X154032380Y-68524761D01*
X154032380Y-68429523D01*
X154080000Y-68286666D01*
X154127619Y-68239047D01*
X154127619Y-67858095D02*
X154080000Y-67810476D01*
X154032380Y-67715238D01*
X154032380Y-67477142D01*
X154080000Y-67381904D01*
X154127619Y-67334285D01*
X154222857Y-67286666D01*
X154318095Y-67286666D01*
X154460952Y-67334285D01*
X155032380Y-67905714D01*
X155032380Y-67286666D01*
X154032380Y-66667619D02*
X154032380Y-66572380D01*
X154080000Y-66477142D01*
X154127619Y-66429523D01*
X154222857Y-66381904D01*
X154413333Y-66334285D01*
X154651428Y-66334285D01*
X154841904Y-66381904D01*
X154937142Y-66429523D01*
X154984761Y-66477142D01*
X155032380Y-66572380D01*
X155032380Y-66667619D01*
X154984761Y-66762857D01*
X154937142Y-66810476D01*
X154841904Y-66858095D01*
X154651428Y-66905714D01*
X154413333Y-66905714D01*
X154222857Y-66858095D01*
X154127619Y-66810476D01*
X154080000Y-66762857D01*
X154032380Y-66667619D01*
X154127619Y-65953333D02*
X154080000Y-65905714D01*
X154032380Y-65810476D01*
X154032380Y-65572380D01*
X154080000Y-65477142D01*
X154127619Y-65429523D01*
X154222857Y-65381904D01*
X154318095Y-65381904D01*
X154460952Y-65429523D01*
X155032380Y-66000952D01*
X155032380Y-65381904D01*
X113957142Y-64889047D02*
X114004761Y-64936666D01*
X114052380Y-65079523D01*
X114052380Y-65174761D01*
X114004761Y-65317619D01*
X113909523Y-65412857D01*
X113814285Y-65460476D01*
X113623809Y-65508095D01*
X113480952Y-65508095D01*
X113290476Y-65460476D01*
X113195238Y-65412857D01*
X113100000Y-65317619D01*
X113052380Y-65174761D01*
X113052380Y-65079523D01*
X113100000Y-64936666D01*
X113147619Y-64889047D01*
X113147619Y-64508095D02*
X113100000Y-64460476D01*
X113052380Y-64365238D01*
X113052380Y-64127142D01*
X113100000Y-64031904D01*
X113147619Y-63984285D01*
X113242857Y-63936666D01*
X113338095Y-63936666D01*
X113480952Y-63984285D01*
X114052380Y-64555714D01*
X114052380Y-63936666D01*
X113052380Y-63317619D02*
X113052380Y-63222380D01*
X113100000Y-63127142D01*
X113147619Y-63079523D01*
X113242857Y-63031904D01*
X113433333Y-62984285D01*
X113671428Y-62984285D01*
X113861904Y-63031904D01*
X113957142Y-63079523D01*
X114004761Y-63127142D01*
X114052380Y-63222380D01*
X114052380Y-63317619D01*
X114004761Y-63412857D01*
X113957142Y-63460476D01*
X113861904Y-63508095D01*
X113671428Y-63555714D01*
X113433333Y-63555714D01*
X113242857Y-63508095D01*
X113147619Y-63460476D01*
X113100000Y-63412857D01*
X113052380Y-63317619D01*
X113052380Y-62650952D02*
X113052380Y-62031904D01*
X113433333Y-62365238D01*
X113433333Y-62222380D01*
X113480952Y-62127142D01*
X113528571Y-62079523D01*
X113623809Y-62031904D01*
X113861904Y-62031904D01*
X113957142Y-62079523D01*
X114004761Y-62127142D01*
X114052380Y-62222380D01*
X114052380Y-62508095D01*
X114004761Y-62603333D01*
X113957142Y-62650952D01*
X105880952Y-56727142D02*
X105833333Y-56774761D01*
X105690476Y-56822380D01*
X105595238Y-56822380D01*
X105452380Y-56774761D01*
X105357142Y-56679523D01*
X105309523Y-56584285D01*
X105261904Y-56393809D01*
X105261904Y-56250952D01*
X105309523Y-56060476D01*
X105357142Y-55965238D01*
X105452380Y-55870000D01*
X105595238Y-55822380D01*
X105690476Y-55822380D01*
X105833333Y-55870000D01*
X105880952Y-55917619D01*
X106261904Y-55917619D02*
X106309523Y-55870000D01*
X106404761Y-55822380D01*
X106642857Y-55822380D01*
X106738095Y-55870000D01*
X106785714Y-55917619D01*
X106833333Y-56012857D01*
X106833333Y-56108095D01*
X106785714Y-56250952D01*
X106214285Y-56822380D01*
X106833333Y-56822380D01*
X107452380Y-55822380D02*
X107547619Y-55822380D01*
X107642857Y-55870000D01*
X107690476Y-55917619D01*
X107738095Y-56012857D01*
X107785714Y-56203333D01*
X107785714Y-56441428D01*
X107738095Y-56631904D01*
X107690476Y-56727142D01*
X107642857Y-56774761D01*
X107547619Y-56822380D01*
X107452380Y-56822380D01*
X107357142Y-56774761D01*
X107309523Y-56727142D01*
X107261904Y-56631904D01*
X107214285Y-56441428D01*
X107214285Y-56203333D01*
X107261904Y-56012857D01*
X107309523Y-55917619D01*
X107357142Y-55870000D01*
X107452380Y-55822380D01*
X108642857Y-56155714D02*
X108642857Y-56822380D01*
X108404761Y-55774761D02*
X108166666Y-56489047D01*
X108785714Y-56489047D01*
X103507142Y-60389047D02*
X103554761Y-60436666D01*
X103602380Y-60579523D01*
X103602380Y-60674761D01*
X103554761Y-60817619D01*
X103459523Y-60912857D01*
X103364285Y-60960476D01*
X103173809Y-61008095D01*
X103030952Y-61008095D01*
X102840476Y-60960476D01*
X102745238Y-60912857D01*
X102650000Y-60817619D01*
X102602380Y-60674761D01*
X102602380Y-60579523D01*
X102650000Y-60436666D01*
X102697619Y-60389047D01*
X102697619Y-60008095D02*
X102650000Y-59960476D01*
X102602380Y-59865238D01*
X102602380Y-59627142D01*
X102650000Y-59531904D01*
X102697619Y-59484285D01*
X102792857Y-59436666D01*
X102888095Y-59436666D01*
X103030952Y-59484285D01*
X103602380Y-60055714D01*
X103602380Y-59436666D01*
X102602380Y-58817619D02*
X102602380Y-58722380D01*
X102650000Y-58627142D01*
X102697619Y-58579523D01*
X102792857Y-58531904D01*
X102983333Y-58484285D01*
X103221428Y-58484285D01*
X103411904Y-58531904D01*
X103507142Y-58579523D01*
X103554761Y-58627142D01*
X103602380Y-58722380D01*
X103602380Y-58817619D01*
X103554761Y-58912857D01*
X103507142Y-58960476D01*
X103411904Y-59008095D01*
X103221428Y-59055714D01*
X102983333Y-59055714D01*
X102792857Y-59008095D01*
X102697619Y-58960476D01*
X102650000Y-58912857D01*
X102602380Y-58817619D01*
X102602380Y-57579523D02*
X102602380Y-58055714D01*
X103078571Y-58103333D01*
X103030952Y-58055714D01*
X102983333Y-57960476D01*
X102983333Y-57722380D01*
X103030952Y-57627142D01*
X103078571Y-57579523D01*
X103173809Y-57531904D01*
X103411904Y-57531904D01*
X103507142Y-57579523D01*
X103554761Y-57627142D01*
X103602380Y-57722380D01*
X103602380Y-57960476D01*
X103554761Y-58055714D01*
X103507142Y-58103333D01*
X145497142Y-68339047D02*
X145544761Y-68386666D01*
X145592380Y-68529523D01*
X145592380Y-68624761D01*
X145544761Y-68767619D01*
X145449523Y-68862857D01*
X145354285Y-68910476D01*
X145163809Y-68958095D01*
X145020952Y-68958095D01*
X144830476Y-68910476D01*
X144735238Y-68862857D01*
X144640000Y-68767619D01*
X144592380Y-68624761D01*
X144592380Y-68529523D01*
X144640000Y-68386666D01*
X144687619Y-68339047D01*
X144687619Y-67958095D02*
X144640000Y-67910476D01*
X144592380Y-67815238D01*
X144592380Y-67577142D01*
X144640000Y-67481904D01*
X144687619Y-67434285D01*
X144782857Y-67386666D01*
X144878095Y-67386666D01*
X145020952Y-67434285D01*
X145592380Y-68005714D01*
X145592380Y-67386666D01*
X144592380Y-66767619D02*
X144592380Y-66672380D01*
X144640000Y-66577142D01*
X144687619Y-66529523D01*
X144782857Y-66481904D01*
X144973333Y-66434285D01*
X145211428Y-66434285D01*
X145401904Y-66481904D01*
X145497142Y-66529523D01*
X145544761Y-66577142D01*
X145592380Y-66672380D01*
X145592380Y-66767619D01*
X145544761Y-66862857D01*
X145497142Y-66910476D01*
X145401904Y-66958095D01*
X145211428Y-67005714D01*
X144973333Y-67005714D01*
X144782857Y-66958095D01*
X144687619Y-66910476D01*
X144640000Y-66862857D01*
X144592380Y-66767619D01*
X144592380Y-65577142D02*
X144592380Y-65767619D01*
X144640000Y-65862857D01*
X144687619Y-65910476D01*
X144830476Y-66005714D01*
X145020952Y-66053333D01*
X145401904Y-66053333D01*
X145497142Y-66005714D01*
X145544761Y-65958095D01*
X145592380Y-65862857D01*
X145592380Y-65672380D01*
X145544761Y-65577142D01*
X145497142Y-65529523D01*
X145401904Y-65481904D01*
X145163809Y-65481904D01*
X145068571Y-65529523D01*
X145020952Y-65577142D01*
X144973333Y-65672380D01*
X144973333Y-65862857D01*
X145020952Y-65958095D01*
X145068571Y-66005714D01*
X145163809Y-66053333D01*
X101507142Y-64889047D02*
X101554761Y-64936666D01*
X101602380Y-65079523D01*
X101602380Y-65174761D01*
X101554761Y-65317619D01*
X101459523Y-65412857D01*
X101364285Y-65460476D01*
X101173809Y-65508095D01*
X101030952Y-65508095D01*
X100840476Y-65460476D01*
X100745238Y-65412857D01*
X100650000Y-65317619D01*
X100602380Y-65174761D01*
X100602380Y-65079523D01*
X100650000Y-64936666D01*
X100697619Y-64889047D01*
X100697619Y-64508095D02*
X100650000Y-64460476D01*
X100602380Y-64365238D01*
X100602380Y-64127142D01*
X100650000Y-64031904D01*
X100697619Y-63984285D01*
X100792857Y-63936666D01*
X100888095Y-63936666D01*
X101030952Y-63984285D01*
X101602380Y-64555714D01*
X101602380Y-63936666D01*
X100602380Y-63317619D02*
X100602380Y-63222380D01*
X100650000Y-63127142D01*
X100697619Y-63079523D01*
X100792857Y-63031904D01*
X100983333Y-62984285D01*
X101221428Y-62984285D01*
X101411904Y-63031904D01*
X101507142Y-63079523D01*
X101554761Y-63127142D01*
X101602380Y-63222380D01*
X101602380Y-63317619D01*
X101554761Y-63412857D01*
X101507142Y-63460476D01*
X101411904Y-63508095D01*
X101221428Y-63555714D01*
X100983333Y-63555714D01*
X100792857Y-63508095D01*
X100697619Y-63460476D01*
X100650000Y-63412857D01*
X100602380Y-63317619D01*
X100602380Y-62650952D02*
X100602380Y-61984285D01*
X101602380Y-62412857D01*
X141507142Y-64389047D02*
X141554761Y-64436666D01*
X141602380Y-64579523D01*
X141602380Y-64674761D01*
X141554761Y-64817619D01*
X141459523Y-64912857D01*
X141364285Y-64960476D01*
X141173809Y-65008095D01*
X141030952Y-65008095D01*
X140840476Y-64960476D01*
X140745238Y-64912857D01*
X140650000Y-64817619D01*
X140602380Y-64674761D01*
X140602380Y-64579523D01*
X140650000Y-64436666D01*
X140697619Y-64389047D01*
X140697619Y-64008095D02*
X140650000Y-63960476D01*
X140602380Y-63865238D01*
X140602380Y-63627142D01*
X140650000Y-63531904D01*
X140697619Y-63484285D01*
X140792857Y-63436666D01*
X140888095Y-63436666D01*
X141030952Y-63484285D01*
X141602380Y-64055714D01*
X141602380Y-63436666D01*
X140602380Y-62817619D02*
X140602380Y-62722380D01*
X140650000Y-62627142D01*
X140697619Y-62579523D01*
X140792857Y-62531904D01*
X140983333Y-62484285D01*
X141221428Y-62484285D01*
X141411904Y-62531904D01*
X141507142Y-62579523D01*
X141554761Y-62627142D01*
X141602380Y-62722380D01*
X141602380Y-62817619D01*
X141554761Y-62912857D01*
X141507142Y-62960476D01*
X141411904Y-63008095D01*
X141221428Y-63055714D01*
X140983333Y-63055714D01*
X140792857Y-63008095D01*
X140697619Y-62960476D01*
X140650000Y-62912857D01*
X140602380Y-62817619D01*
X141030952Y-61912857D02*
X140983333Y-62008095D01*
X140935714Y-62055714D01*
X140840476Y-62103333D01*
X140792857Y-62103333D01*
X140697619Y-62055714D01*
X140650000Y-62008095D01*
X140602380Y-61912857D01*
X140602380Y-61722380D01*
X140650000Y-61627142D01*
X140697619Y-61579523D01*
X140792857Y-61531904D01*
X140840476Y-61531904D01*
X140935714Y-61579523D01*
X140983333Y-61627142D01*
X141030952Y-61722380D01*
X141030952Y-61912857D01*
X141078571Y-62008095D01*
X141126190Y-62055714D01*
X141221428Y-62103333D01*
X141411904Y-62103333D01*
X141507142Y-62055714D01*
X141554761Y-62008095D01*
X141602380Y-61912857D01*
X141602380Y-61722380D01*
X141554761Y-61627142D01*
X141507142Y-61579523D01*
X141411904Y-61531904D01*
X141221428Y-61531904D01*
X141126190Y-61579523D01*
X141078571Y-61627142D01*
X141030952Y-61722380D01*
X105447142Y-68729047D02*
X105494761Y-68776666D01*
X105542380Y-68919523D01*
X105542380Y-69014761D01*
X105494761Y-69157619D01*
X105399523Y-69252857D01*
X105304285Y-69300476D01*
X105113809Y-69348095D01*
X104970952Y-69348095D01*
X104780476Y-69300476D01*
X104685238Y-69252857D01*
X104590000Y-69157619D01*
X104542380Y-69014761D01*
X104542380Y-68919523D01*
X104590000Y-68776666D01*
X104637619Y-68729047D01*
X104637619Y-68348095D02*
X104590000Y-68300476D01*
X104542380Y-68205238D01*
X104542380Y-67967142D01*
X104590000Y-67871904D01*
X104637619Y-67824285D01*
X104732857Y-67776666D01*
X104828095Y-67776666D01*
X104970952Y-67824285D01*
X105542380Y-68395714D01*
X105542380Y-67776666D01*
X104542380Y-67157619D02*
X104542380Y-67062380D01*
X104590000Y-66967142D01*
X104637619Y-66919523D01*
X104732857Y-66871904D01*
X104923333Y-66824285D01*
X105161428Y-66824285D01*
X105351904Y-66871904D01*
X105447142Y-66919523D01*
X105494761Y-66967142D01*
X105542380Y-67062380D01*
X105542380Y-67157619D01*
X105494761Y-67252857D01*
X105447142Y-67300476D01*
X105351904Y-67348095D01*
X105161428Y-67395714D01*
X104923333Y-67395714D01*
X104732857Y-67348095D01*
X104637619Y-67300476D01*
X104590000Y-67252857D01*
X104542380Y-67157619D01*
X105542380Y-66348095D02*
X105542380Y-66157619D01*
X105494761Y-66062380D01*
X105447142Y-66014761D01*
X105304285Y-65919523D01*
X105113809Y-65871904D01*
X104732857Y-65871904D01*
X104637619Y-65919523D01*
X104590000Y-65967142D01*
X104542380Y-66062380D01*
X104542380Y-66252857D01*
X104590000Y-66348095D01*
X104637619Y-66395714D01*
X104732857Y-66443333D01*
X104970952Y-66443333D01*
X105066190Y-66395714D01*
X105113809Y-66348095D01*
X105161428Y-66252857D01*
X105161428Y-66062380D01*
X105113809Y-65967142D01*
X105066190Y-65919523D01*
X104970952Y-65871904D01*
X147647142Y-68339047D02*
X147694761Y-68386666D01*
X147742380Y-68529523D01*
X147742380Y-68624761D01*
X147694761Y-68767619D01*
X147599523Y-68862857D01*
X147504285Y-68910476D01*
X147313809Y-68958095D01*
X147170952Y-68958095D01*
X146980476Y-68910476D01*
X146885238Y-68862857D01*
X146790000Y-68767619D01*
X146742380Y-68624761D01*
X146742380Y-68529523D01*
X146790000Y-68386666D01*
X146837619Y-68339047D01*
X146837619Y-67958095D02*
X146790000Y-67910476D01*
X146742380Y-67815238D01*
X146742380Y-67577142D01*
X146790000Y-67481904D01*
X146837619Y-67434285D01*
X146932857Y-67386666D01*
X147028095Y-67386666D01*
X147170952Y-67434285D01*
X147742380Y-68005714D01*
X147742380Y-67386666D01*
X147742380Y-66434285D02*
X147742380Y-67005714D01*
X147742380Y-66720000D02*
X146742380Y-66720000D01*
X146885238Y-66815238D01*
X146980476Y-66910476D01*
X147028095Y-67005714D01*
X146742380Y-65815238D02*
X146742380Y-65720000D01*
X146790000Y-65624761D01*
X146837619Y-65577142D01*
X146932857Y-65529523D01*
X147123333Y-65481904D01*
X147361428Y-65481904D01*
X147551904Y-65529523D01*
X147647142Y-65577142D01*
X147694761Y-65624761D01*
X147742380Y-65720000D01*
X147742380Y-65815238D01*
X147694761Y-65910476D01*
X147647142Y-65958095D01*
X147551904Y-66005714D01*
X147361428Y-66053333D01*
X147123333Y-66053333D01*
X146932857Y-66005714D01*
X146837619Y-65958095D01*
X146790000Y-65910476D01*
X146742380Y-65815238D01*
X119677142Y-48189047D02*
X119724761Y-48236666D01*
X119772380Y-48379523D01*
X119772380Y-48474761D01*
X119724761Y-48617619D01*
X119629523Y-48712857D01*
X119534285Y-48760476D01*
X119343809Y-48808095D01*
X119200952Y-48808095D01*
X119010476Y-48760476D01*
X118915238Y-48712857D01*
X118820000Y-48617619D01*
X118772380Y-48474761D01*
X118772380Y-48379523D01*
X118820000Y-48236666D01*
X118867619Y-48189047D01*
X118772380Y-47855714D02*
X118772380Y-47236666D01*
X119153333Y-47570000D01*
X119153333Y-47427142D01*
X119200952Y-47331904D01*
X119248571Y-47284285D01*
X119343809Y-47236666D01*
X119581904Y-47236666D01*
X119677142Y-47284285D01*
X119724761Y-47331904D01*
X119772380Y-47427142D01*
X119772380Y-47712857D01*
X119724761Y-47808095D01*
X119677142Y-47855714D01*
X118772380Y-46617619D02*
X118772380Y-46522380D01*
X118820000Y-46427142D01*
X118867619Y-46379523D01*
X118962857Y-46331904D01*
X119153333Y-46284285D01*
X119391428Y-46284285D01*
X119581904Y-46331904D01*
X119677142Y-46379523D01*
X119724761Y-46427142D01*
X119772380Y-46522380D01*
X119772380Y-46617619D01*
X119724761Y-46712857D01*
X119677142Y-46760476D01*
X119581904Y-46808095D01*
X119391428Y-46855714D01*
X119153333Y-46855714D01*
X118962857Y-46808095D01*
X118867619Y-46760476D01*
X118820000Y-46712857D01*
X118772380Y-46617619D01*
X118867619Y-45903333D02*
X118820000Y-45855714D01*
X118772380Y-45760476D01*
X118772380Y-45522380D01*
X118820000Y-45427142D01*
X118867619Y-45379523D01*
X118962857Y-45331904D01*
X119058095Y-45331904D01*
X119200952Y-45379523D01*
X119772380Y-45950952D01*
X119772380Y-45331904D01*
X147997142Y-86719047D02*
X148044761Y-86766666D01*
X148092380Y-86909523D01*
X148092380Y-87004761D01*
X148044761Y-87147619D01*
X147949523Y-87242857D01*
X147854285Y-87290476D01*
X147663809Y-87338095D01*
X147520952Y-87338095D01*
X147330476Y-87290476D01*
X147235238Y-87242857D01*
X147140000Y-87147619D01*
X147092380Y-87004761D01*
X147092380Y-86909523D01*
X147140000Y-86766666D01*
X147187619Y-86719047D01*
X147425714Y-85861904D02*
X148092380Y-85861904D01*
X147044761Y-86100000D02*
X147759047Y-86338095D01*
X147759047Y-85719047D01*
X147092380Y-85147619D02*
X147092380Y-85052380D01*
X147140000Y-84957142D01*
X147187619Y-84909523D01*
X147282857Y-84861904D01*
X147473333Y-84814285D01*
X147711428Y-84814285D01*
X147901904Y-84861904D01*
X147997142Y-84909523D01*
X148044761Y-84957142D01*
X148092380Y-85052380D01*
X148092380Y-85147619D01*
X148044761Y-85242857D01*
X147997142Y-85290476D01*
X147901904Y-85338095D01*
X147711428Y-85385714D01*
X147473333Y-85385714D01*
X147282857Y-85338095D01*
X147187619Y-85290476D01*
X147140000Y-85242857D01*
X147092380Y-85147619D01*
X148092380Y-83861904D02*
X148092380Y-84433333D01*
X148092380Y-84147619D02*
X147092380Y-84147619D01*
X147235238Y-84242857D01*
X147330476Y-84338095D01*
X147378095Y-84433333D01*
X143757142Y-86639047D02*
X143804761Y-86686666D01*
X143852380Y-86829523D01*
X143852380Y-86924761D01*
X143804761Y-87067619D01*
X143709523Y-87162857D01*
X143614285Y-87210476D01*
X143423809Y-87258095D01*
X143280952Y-87258095D01*
X143090476Y-87210476D01*
X142995238Y-87162857D01*
X142900000Y-87067619D01*
X142852380Y-86924761D01*
X142852380Y-86829523D01*
X142900000Y-86686666D01*
X142947619Y-86639047D01*
X143185714Y-85781904D02*
X143852380Y-85781904D01*
X142804761Y-86020000D02*
X143519047Y-86258095D01*
X143519047Y-85639047D01*
X142852380Y-85067619D02*
X142852380Y-84972380D01*
X142900000Y-84877142D01*
X142947619Y-84829523D01*
X143042857Y-84781904D01*
X143233333Y-84734285D01*
X143471428Y-84734285D01*
X143661904Y-84781904D01*
X143757142Y-84829523D01*
X143804761Y-84877142D01*
X143852380Y-84972380D01*
X143852380Y-85067619D01*
X143804761Y-85162857D01*
X143757142Y-85210476D01*
X143661904Y-85258095D01*
X143471428Y-85305714D01*
X143233333Y-85305714D01*
X143042857Y-85258095D01*
X142947619Y-85210476D01*
X142900000Y-85162857D01*
X142852380Y-85067619D01*
X142947619Y-84353333D02*
X142900000Y-84305714D01*
X142852380Y-84210476D01*
X142852380Y-83972380D01*
X142900000Y-83877142D01*
X142947619Y-83829523D01*
X143042857Y-83781904D01*
X143138095Y-83781904D01*
X143280952Y-83829523D01*
X143852380Y-84400952D01*
X143852380Y-83781904D01*
X134157142Y-97699047D02*
X134204761Y-97746666D01*
X134252380Y-97889523D01*
X134252380Y-97984761D01*
X134204761Y-98127619D01*
X134109523Y-98222857D01*
X134014285Y-98270476D01*
X133823809Y-98318095D01*
X133680952Y-98318095D01*
X133490476Y-98270476D01*
X133395238Y-98222857D01*
X133300000Y-98127619D01*
X133252380Y-97984761D01*
X133252380Y-97889523D01*
X133300000Y-97746666D01*
X133347619Y-97699047D01*
X133585714Y-96841904D02*
X134252380Y-96841904D01*
X133204761Y-97080000D02*
X133919047Y-97318095D01*
X133919047Y-96699047D01*
X133252380Y-96127619D02*
X133252380Y-96032380D01*
X133300000Y-95937142D01*
X133347619Y-95889523D01*
X133442857Y-95841904D01*
X133633333Y-95794285D01*
X133871428Y-95794285D01*
X134061904Y-95841904D01*
X134157142Y-95889523D01*
X134204761Y-95937142D01*
X134252380Y-96032380D01*
X134252380Y-96127619D01*
X134204761Y-96222857D01*
X134157142Y-96270476D01*
X134061904Y-96318095D01*
X133871428Y-96365714D01*
X133633333Y-96365714D01*
X133442857Y-96318095D01*
X133347619Y-96270476D01*
X133300000Y-96222857D01*
X133252380Y-96127619D01*
X133252380Y-95460952D02*
X133252380Y-94841904D01*
X133633333Y-95175238D01*
X133633333Y-95032380D01*
X133680952Y-94937142D01*
X133728571Y-94889523D01*
X133823809Y-94841904D01*
X134061904Y-94841904D01*
X134157142Y-94889523D01*
X134204761Y-94937142D01*
X134252380Y-95032380D01*
X134252380Y-95318095D01*
X134204761Y-95413333D01*
X134157142Y-95460952D01*
X137370952Y-94207142D02*
X137323333Y-94254761D01*
X137180476Y-94302380D01*
X137085238Y-94302380D01*
X136942380Y-94254761D01*
X136847142Y-94159523D01*
X136799523Y-94064285D01*
X136751904Y-93873809D01*
X136751904Y-93730952D01*
X136799523Y-93540476D01*
X136847142Y-93445238D01*
X136942380Y-93350000D01*
X137085238Y-93302380D01*
X137180476Y-93302380D01*
X137323333Y-93350000D01*
X137370952Y-93397619D01*
X138228095Y-93635714D02*
X138228095Y-94302380D01*
X137990000Y-93254761D02*
X137751904Y-93969047D01*
X138370952Y-93969047D01*
X138942380Y-93302380D02*
X139037619Y-93302380D01*
X139132857Y-93350000D01*
X139180476Y-93397619D01*
X139228095Y-93492857D01*
X139275714Y-93683333D01*
X139275714Y-93921428D01*
X139228095Y-94111904D01*
X139180476Y-94207142D01*
X139132857Y-94254761D01*
X139037619Y-94302380D01*
X138942380Y-94302380D01*
X138847142Y-94254761D01*
X138799523Y-94207142D01*
X138751904Y-94111904D01*
X138704285Y-93921428D01*
X138704285Y-93683333D01*
X138751904Y-93492857D01*
X138799523Y-93397619D01*
X138847142Y-93350000D01*
X138942380Y-93302380D01*
X140132857Y-93635714D02*
X140132857Y-94302380D01*
X139894761Y-93254761D02*
X139656666Y-93969047D01*
X140275714Y-93969047D01*
X143777142Y-97669047D02*
X143824761Y-97716666D01*
X143872380Y-97859523D01*
X143872380Y-97954761D01*
X143824761Y-98097619D01*
X143729523Y-98192857D01*
X143634285Y-98240476D01*
X143443809Y-98288095D01*
X143300952Y-98288095D01*
X143110476Y-98240476D01*
X143015238Y-98192857D01*
X142920000Y-98097619D01*
X142872380Y-97954761D01*
X142872380Y-97859523D01*
X142920000Y-97716666D01*
X142967619Y-97669047D01*
X143205714Y-96811904D02*
X143872380Y-96811904D01*
X142824761Y-97050000D02*
X143539047Y-97288095D01*
X143539047Y-96669047D01*
X142872380Y-96097619D02*
X142872380Y-96002380D01*
X142920000Y-95907142D01*
X142967619Y-95859523D01*
X143062857Y-95811904D01*
X143253333Y-95764285D01*
X143491428Y-95764285D01*
X143681904Y-95811904D01*
X143777142Y-95859523D01*
X143824761Y-95907142D01*
X143872380Y-96002380D01*
X143872380Y-96097619D01*
X143824761Y-96192857D01*
X143777142Y-96240476D01*
X143681904Y-96288095D01*
X143491428Y-96335714D01*
X143253333Y-96335714D01*
X143062857Y-96288095D01*
X142967619Y-96240476D01*
X142920000Y-96192857D01*
X142872380Y-96097619D01*
X142872380Y-94859523D02*
X142872380Y-95335714D01*
X143348571Y-95383333D01*
X143300952Y-95335714D01*
X143253333Y-95240476D01*
X143253333Y-95002380D01*
X143300952Y-94907142D01*
X143348571Y-94859523D01*
X143443809Y-94811904D01*
X143681904Y-94811904D01*
X143777142Y-94859523D01*
X143824761Y-94907142D01*
X143872380Y-95002380D01*
X143872380Y-95240476D01*
X143824761Y-95335714D01*
X143777142Y-95383333D01*
X125680952Y-64927142D02*
X125633333Y-64974761D01*
X125490476Y-65022380D01*
X125395238Y-65022380D01*
X125252380Y-64974761D01*
X125157142Y-64879523D01*
X125109523Y-64784285D01*
X125061904Y-64593809D01*
X125061904Y-64450952D01*
X125109523Y-64260476D01*
X125157142Y-64165238D01*
X125252380Y-64070000D01*
X125395238Y-64022380D01*
X125490476Y-64022380D01*
X125633333Y-64070000D01*
X125680952Y-64117619D01*
X126585714Y-64022380D02*
X126109523Y-64022380D01*
X126061904Y-64498571D01*
X126109523Y-64450952D01*
X126204761Y-64403333D01*
X126442857Y-64403333D01*
X126538095Y-64450952D01*
X126585714Y-64498571D01*
X126633333Y-64593809D01*
X126633333Y-64831904D01*
X126585714Y-64927142D01*
X126538095Y-64974761D01*
X126442857Y-65022380D01*
X126204761Y-65022380D01*
X126109523Y-64974761D01*
X126061904Y-64927142D01*
X127252380Y-64022380D02*
X127347619Y-64022380D01*
X127442857Y-64070000D01*
X127490476Y-64117619D01*
X127538095Y-64212857D01*
X127585714Y-64403333D01*
X127585714Y-64641428D01*
X127538095Y-64831904D01*
X127490476Y-64927142D01*
X127442857Y-64974761D01*
X127347619Y-65022380D01*
X127252380Y-65022380D01*
X127157142Y-64974761D01*
X127109523Y-64927142D01*
X127061904Y-64831904D01*
X127014285Y-64641428D01*
X127014285Y-64403333D01*
X127061904Y-64212857D01*
X127109523Y-64117619D01*
X127157142Y-64070000D01*
X127252380Y-64022380D01*
X128538095Y-65022380D02*
X127966666Y-65022380D01*
X128252380Y-65022380D02*
X128252380Y-64022380D01*
X128157142Y-64165238D01*
X128061904Y-64260476D01*
X127966666Y-64308095D01*
X125700952Y-58957142D02*
X125653333Y-59004761D01*
X125510476Y-59052380D01*
X125415238Y-59052380D01*
X125272380Y-59004761D01*
X125177142Y-58909523D01*
X125129523Y-58814285D01*
X125081904Y-58623809D01*
X125081904Y-58480952D01*
X125129523Y-58290476D01*
X125177142Y-58195238D01*
X125272380Y-58100000D01*
X125415238Y-58052380D01*
X125510476Y-58052380D01*
X125653333Y-58100000D01*
X125700952Y-58147619D01*
X126605714Y-58052380D02*
X126129523Y-58052380D01*
X126081904Y-58528571D01*
X126129523Y-58480952D01*
X126224761Y-58433333D01*
X126462857Y-58433333D01*
X126558095Y-58480952D01*
X126605714Y-58528571D01*
X126653333Y-58623809D01*
X126653333Y-58861904D01*
X126605714Y-58957142D01*
X126558095Y-59004761D01*
X126462857Y-59052380D01*
X126224761Y-59052380D01*
X126129523Y-59004761D01*
X126081904Y-58957142D01*
X127272380Y-58052380D02*
X127367619Y-58052380D01*
X127462857Y-58100000D01*
X127510476Y-58147619D01*
X127558095Y-58242857D01*
X127605714Y-58433333D01*
X127605714Y-58671428D01*
X127558095Y-58861904D01*
X127510476Y-58957142D01*
X127462857Y-59004761D01*
X127367619Y-59052380D01*
X127272380Y-59052380D01*
X127177142Y-59004761D01*
X127129523Y-58957142D01*
X127081904Y-58861904D01*
X127034285Y-58671428D01*
X127034285Y-58433333D01*
X127081904Y-58242857D01*
X127129523Y-58147619D01*
X127177142Y-58100000D01*
X127272380Y-58052380D01*
X127986666Y-58147619D02*
X128034285Y-58100000D01*
X128129523Y-58052380D01*
X128367619Y-58052380D01*
X128462857Y-58100000D01*
X128510476Y-58147619D01*
X128558095Y-58242857D01*
X128558095Y-58338095D01*
X128510476Y-58480952D01*
X127939047Y-59052380D01*
X128558095Y-59052380D01*
X150337142Y-86749047D02*
X150384761Y-86796666D01*
X150432380Y-86939523D01*
X150432380Y-87034761D01*
X150384761Y-87177619D01*
X150289523Y-87272857D01*
X150194285Y-87320476D01*
X150003809Y-87368095D01*
X149860952Y-87368095D01*
X149670476Y-87320476D01*
X149575238Y-87272857D01*
X149480000Y-87177619D01*
X149432380Y-87034761D01*
X149432380Y-86939523D01*
X149480000Y-86796666D01*
X149527619Y-86749047D01*
X149432380Y-85844285D02*
X149432380Y-86320476D01*
X149908571Y-86368095D01*
X149860952Y-86320476D01*
X149813333Y-86225238D01*
X149813333Y-85987142D01*
X149860952Y-85891904D01*
X149908571Y-85844285D01*
X150003809Y-85796666D01*
X150241904Y-85796666D01*
X150337142Y-85844285D01*
X150384761Y-85891904D01*
X150432380Y-85987142D01*
X150432380Y-86225238D01*
X150384761Y-86320476D01*
X150337142Y-86368095D01*
X149432380Y-85177619D02*
X149432380Y-85082380D01*
X149480000Y-84987142D01*
X149527619Y-84939523D01*
X149622857Y-84891904D01*
X149813333Y-84844285D01*
X150051428Y-84844285D01*
X150241904Y-84891904D01*
X150337142Y-84939523D01*
X150384761Y-84987142D01*
X150432380Y-85082380D01*
X150432380Y-85177619D01*
X150384761Y-85272857D01*
X150337142Y-85320476D01*
X150241904Y-85368095D01*
X150051428Y-85415714D01*
X149813333Y-85415714D01*
X149622857Y-85368095D01*
X149527619Y-85320476D01*
X149480000Y-85272857D01*
X149432380Y-85177619D01*
X149432380Y-84510952D02*
X149432380Y-83891904D01*
X149813333Y-84225238D01*
X149813333Y-84082380D01*
X149860952Y-83987142D01*
X149908571Y-83939523D01*
X150003809Y-83891904D01*
X150241904Y-83891904D01*
X150337142Y-83939523D01*
X150384761Y-83987142D01*
X150432380Y-84082380D01*
X150432380Y-84368095D01*
X150384761Y-84463333D01*
X150337142Y-84510952D01*
X119007142Y-74889047D02*
X119054761Y-74936666D01*
X119102380Y-75079523D01*
X119102380Y-75174761D01*
X119054761Y-75317619D01*
X118959523Y-75412857D01*
X118864285Y-75460476D01*
X118673809Y-75508095D01*
X118530952Y-75508095D01*
X118340476Y-75460476D01*
X118245238Y-75412857D01*
X118150000Y-75317619D01*
X118102380Y-75174761D01*
X118102380Y-75079523D01*
X118150000Y-74936666D01*
X118197619Y-74889047D01*
X118102380Y-73984285D02*
X118102380Y-74460476D01*
X118578571Y-74508095D01*
X118530952Y-74460476D01*
X118483333Y-74365238D01*
X118483333Y-74127142D01*
X118530952Y-74031904D01*
X118578571Y-73984285D01*
X118673809Y-73936666D01*
X118911904Y-73936666D01*
X119007142Y-73984285D01*
X119054761Y-74031904D01*
X119102380Y-74127142D01*
X119102380Y-74365238D01*
X119054761Y-74460476D01*
X119007142Y-74508095D01*
X118102380Y-73317619D02*
X118102380Y-73222380D01*
X118150000Y-73127142D01*
X118197619Y-73079523D01*
X118292857Y-73031904D01*
X118483333Y-72984285D01*
X118721428Y-72984285D01*
X118911904Y-73031904D01*
X119007142Y-73079523D01*
X119054761Y-73127142D01*
X119102380Y-73222380D01*
X119102380Y-73317619D01*
X119054761Y-73412857D01*
X119007142Y-73460476D01*
X118911904Y-73508095D01*
X118721428Y-73555714D01*
X118483333Y-73555714D01*
X118292857Y-73508095D01*
X118197619Y-73460476D01*
X118150000Y-73412857D01*
X118102380Y-73317619D01*
X118435714Y-72127142D02*
X119102380Y-72127142D01*
X118054761Y-72365238D02*
X118769047Y-72603333D01*
X118769047Y-71984285D01*
X137014285Y-44972380D02*
X137014285Y-45686666D01*
X136966666Y-45829523D01*
X136871428Y-45924761D01*
X136728571Y-45972380D01*
X136633333Y-45972380D01*
X137966666Y-44972380D02*
X137490476Y-44972380D01*
X137442857Y-45448571D01*
X137490476Y-45400952D01*
X137585714Y-45353333D01*
X137823809Y-45353333D01*
X137919047Y-45400952D01*
X137966666Y-45448571D01*
X138014285Y-45543809D01*
X138014285Y-45781904D01*
X137966666Y-45877142D01*
X137919047Y-45924761D01*
X137823809Y-45972380D01*
X137585714Y-45972380D01*
X137490476Y-45924761D01*
X137442857Y-45877142D01*
X138633333Y-44972380D02*
X138728571Y-44972380D01*
X138823809Y-45020000D01*
X138871428Y-45067619D01*
X138919047Y-45162857D01*
X138966666Y-45353333D01*
X138966666Y-45591428D01*
X138919047Y-45781904D01*
X138871428Y-45877142D01*
X138823809Y-45924761D01*
X138728571Y-45972380D01*
X138633333Y-45972380D01*
X138538095Y-45924761D01*
X138490476Y-45877142D01*
X138442857Y-45781904D01*
X138395238Y-45591428D01*
X138395238Y-45353333D01*
X138442857Y-45162857D01*
X138490476Y-45067619D01*
X138538095Y-45020000D01*
X138633333Y-44972380D01*
X139919047Y-45972380D02*
X139347619Y-45972380D01*
X139633333Y-45972380D02*
X139633333Y-44972380D01*
X139538095Y-45115238D01*
X139442857Y-45210476D01*
X139347619Y-45258095D01*
X104014285Y-78472380D02*
X104014285Y-79186666D01*
X103966666Y-79329523D01*
X103871428Y-79424761D01*
X103728571Y-79472380D01*
X103633333Y-79472380D01*
X104966666Y-78472380D02*
X104490476Y-78472380D01*
X104442857Y-78948571D01*
X104490476Y-78900952D01*
X104585714Y-78853333D01*
X104823809Y-78853333D01*
X104919047Y-78900952D01*
X104966666Y-78948571D01*
X105014285Y-79043809D01*
X105014285Y-79281904D01*
X104966666Y-79377142D01*
X104919047Y-79424761D01*
X104823809Y-79472380D01*
X104585714Y-79472380D01*
X104490476Y-79424761D01*
X104442857Y-79377142D01*
X105633333Y-78472380D02*
X105728571Y-78472380D01*
X105823809Y-78520000D01*
X105871428Y-78567619D01*
X105919047Y-78662857D01*
X105966666Y-78853333D01*
X105966666Y-79091428D01*
X105919047Y-79281904D01*
X105871428Y-79377142D01*
X105823809Y-79424761D01*
X105728571Y-79472380D01*
X105633333Y-79472380D01*
X105538095Y-79424761D01*
X105490476Y-79377142D01*
X105442857Y-79281904D01*
X105395238Y-79091428D01*
X105395238Y-78853333D01*
X105442857Y-78662857D01*
X105490476Y-78567619D01*
X105538095Y-78520000D01*
X105633333Y-78472380D01*
X106347619Y-78567619D02*
X106395238Y-78520000D01*
X106490476Y-78472380D01*
X106728571Y-78472380D01*
X106823809Y-78520000D01*
X106871428Y-78567619D01*
X106919047Y-78662857D01*
X106919047Y-78758095D01*
X106871428Y-78900952D01*
X106300000Y-79472380D01*
X106919047Y-79472380D01*
X107280952Y-71222380D02*
X106804761Y-71222380D01*
X106804761Y-70222380D01*
X107566666Y-70317619D02*
X107614285Y-70270000D01*
X107709523Y-70222380D01*
X107947619Y-70222380D01*
X108042857Y-70270000D01*
X108090476Y-70317619D01*
X108138095Y-70412857D01*
X108138095Y-70508095D01*
X108090476Y-70650952D01*
X107519047Y-71222380D01*
X108138095Y-71222380D01*
X108757142Y-70222380D02*
X108852380Y-70222380D01*
X108947619Y-70270000D01*
X108995238Y-70317619D01*
X109042857Y-70412857D01*
X109090476Y-70603333D01*
X109090476Y-70841428D01*
X109042857Y-71031904D01*
X108995238Y-71127142D01*
X108947619Y-71174761D01*
X108852380Y-71222380D01*
X108757142Y-71222380D01*
X108661904Y-71174761D01*
X108614285Y-71127142D01*
X108566666Y-71031904D01*
X108519047Y-70841428D01*
X108519047Y-70603333D01*
X108566666Y-70412857D01*
X108614285Y-70317619D01*
X108661904Y-70270000D01*
X108757142Y-70222380D01*
X110042857Y-71222380D02*
X109471428Y-71222380D01*
X109757142Y-71222380D02*
X109757142Y-70222380D01*
X109661904Y-70365238D01*
X109566666Y-70460476D01*
X109471428Y-70508095D01*
X149680952Y-70722380D02*
X149204761Y-70722380D01*
X149204761Y-69722380D01*
X149966666Y-69817619D02*
X150014285Y-69770000D01*
X150109523Y-69722380D01*
X150347619Y-69722380D01*
X150442857Y-69770000D01*
X150490476Y-69817619D01*
X150538095Y-69912857D01*
X150538095Y-70008095D01*
X150490476Y-70150952D01*
X149919047Y-70722380D01*
X150538095Y-70722380D01*
X151157142Y-69722380D02*
X151252380Y-69722380D01*
X151347619Y-69770000D01*
X151395238Y-69817619D01*
X151442857Y-69912857D01*
X151490476Y-70103333D01*
X151490476Y-70341428D01*
X151442857Y-70531904D01*
X151395238Y-70627142D01*
X151347619Y-70674761D01*
X151252380Y-70722380D01*
X151157142Y-70722380D01*
X151061904Y-70674761D01*
X151014285Y-70627142D01*
X150966666Y-70531904D01*
X150919047Y-70341428D01*
X150919047Y-70103333D01*
X150966666Y-69912857D01*
X151014285Y-69817619D01*
X151061904Y-69770000D01*
X151157142Y-69722380D01*
X151871428Y-69817619D02*
X151919047Y-69770000D01*
X152014285Y-69722380D01*
X152252380Y-69722380D01*
X152347619Y-69770000D01*
X152395238Y-69817619D01*
X152442857Y-69912857D01*
X152442857Y-70008095D01*
X152395238Y-70150952D01*
X151823809Y-70722380D01*
X152442857Y-70722380D01*
X103133333Y-90472380D02*
X103133333Y-89472380D01*
X103514285Y-89472380D01*
X103609523Y-89520000D01*
X103657142Y-89567619D01*
X103704761Y-89662857D01*
X103704761Y-89805714D01*
X103657142Y-89900952D01*
X103609523Y-89948571D01*
X103514285Y-89996190D01*
X103133333Y-89996190D01*
X104085714Y-90424761D02*
X104228571Y-90472380D01*
X104466666Y-90472380D01*
X104561904Y-90424761D01*
X104609523Y-90377142D01*
X104657142Y-90281904D01*
X104657142Y-90186666D01*
X104609523Y-90091428D01*
X104561904Y-90043809D01*
X104466666Y-89996190D01*
X104276190Y-89948571D01*
X104180952Y-89900952D01*
X104133333Y-89853333D01*
X104085714Y-89758095D01*
X104085714Y-89662857D01*
X104133333Y-89567619D01*
X104180952Y-89520000D01*
X104276190Y-89472380D01*
X104514285Y-89472380D01*
X104657142Y-89520000D01*
X105561904Y-89472380D02*
X105085714Y-89472380D01*
X105038095Y-89948571D01*
X105085714Y-89900952D01*
X105180952Y-89853333D01*
X105419047Y-89853333D01*
X105514285Y-89900952D01*
X105561904Y-89948571D01*
X105609523Y-90043809D01*
X105609523Y-90281904D01*
X105561904Y-90377142D01*
X105514285Y-90424761D01*
X105419047Y-90472380D01*
X105180952Y-90472380D01*
X105085714Y-90424761D01*
X105038095Y-90377142D01*
X106228571Y-89472380D02*
X106323809Y-89472380D01*
X106419047Y-89520000D01*
X106466666Y-89567619D01*
X106514285Y-89662857D01*
X106561904Y-89853333D01*
X106561904Y-90091428D01*
X106514285Y-90281904D01*
X106466666Y-90377142D01*
X106419047Y-90424761D01*
X106323809Y-90472380D01*
X106228571Y-90472380D01*
X106133333Y-90424761D01*
X106085714Y-90377142D01*
X106038095Y-90281904D01*
X105990476Y-90091428D01*
X105990476Y-89853333D01*
X106038095Y-89662857D01*
X106085714Y-89567619D01*
X106133333Y-89520000D01*
X106228571Y-89472380D01*
X107514285Y-90472380D02*
X106942857Y-90472380D01*
X107228571Y-90472380D02*
X107228571Y-89472380D01*
X107133333Y-89615238D01*
X107038095Y-89710476D01*
X106942857Y-89758095D01*
X145930952Y-56322380D02*
X145597619Y-55846190D01*
X145359523Y-56322380D02*
X145359523Y-55322380D01*
X145740476Y-55322380D01*
X145835714Y-55370000D01*
X145883333Y-55417619D01*
X145930952Y-55512857D01*
X145930952Y-55655714D01*
X145883333Y-55750952D01*
X145835714Y-55798571D01*
X145740476Y-55846190D01*
X145359523Y-55846190D01*
X146311904Y-55417619D02*
X146359523Y-55370000D01*
X146454761Y-55322380D01*
X146692857Y-55322380D01*
X146788095Y-55370000D01*
X146835714Y-55417619D01*
X146883333Y-55512857D01*
X146883333Y-55608095D01*
X146835714Y-55750952D01*
X146264285Y-56322380D01*
X146883333Y-56322380D01*
X147502380Y-55322380D02*
X147597619Y-55322380D01*
X147692857Y-55370000D01*
X147740476Y-55417619D01*
X147788095Y-55512857D01*
X147835714Y-55703333D01*
X147835714Y-55941428D01*
X147788095Y-56131904D01*
X147740476Y-56227142D01*
X147692857Y-56274761D01*
X147597619Y-56322380D01*
X147502380Y-56322380D01*
X147407142Y-56274761D01*
X147359523Y-56227142D01*
X147311904Y-56131904D01*
X147264285Y-55941428D01*
X147264285Y-55703333D01*
X147311904Y-55512857D01*
X147359523Y-55417619D01*
X147407142Y-55370000D01*
X147502380Y-55322380D01*
X148788095Y-56322380D02*
X148216666Y-56322380D01*
X148502380Y-56322380D02*
X148502380Y-55322380D01*
X148407142Y-55465238D01*
X148311904Y-55560476D01*
X148216666Y-55608095D01*
X144122380Y-59909047D02*
X143646190Y-60242380D01*
X144122380Y-60480476D02*
X143122380Y-60480476D01*
X143122380Y-60099523D01*
X143170000Y-60004285D01*
X143217619Y-59956666D01*
X143312857Y-59909047D01*
X143455714Y-59909047D01*
X143550952Y-59956666D01*
X143598571Y-60004285D01*
X143646190Y-60099523D01*
X143646190Y-60480476D01*
X143217619Y-59528095D02*
X143170000Y-59480476D01*
X143122380Y-59385238D01*
X143122380Y-59147142D01*
X143170000Y-59051904D01*
X143217619Y-59004285D01*
X143312857Y-58956666D01*
X143408095Y-58956666D01*
X143550952Y-59004285D01*
X144122380Y-59575714D01*
X144122380Y-58956666D01*
X143122380Y-58337619D02*
X143122380Y-58242380D01*
X143170000Y-58147142D01*
X143217619Y-58099523D01*
X143312857Y-58051904D01*
X143503333Y-58004285D01*
X143741428Y-58004285D01*
X143931904Y-58051904D01*
X144027142Y-58099523D01*
X144074761Y-58147142D01*
X144122380Y-58242380D01*
X144122380Y-58337619D01*
X144074761Y-58432857D01*
X144027142Y-58480476D01*
X143931904Y-58528095D01*
X143741428Y-58575714D01*
X143503333Y-58575714D01*
X143312857Y-58528095D01*
X143217619Y-58480476D01*
X143170000Y-58432857D01*
X143122380Y-58337619D01*
X143217619Y-57623333D02*
X143170000Y-57575714D01*
X143122380Y-57480476D01*
X143122380Y-57242380D01*
X143170000Y-57147142D01*
X143217619Y-57099523D01*
X143312857Y-57051904D01*
X143408095Y-57051904D01*
X143550952Y-57099523D01*
X144122380Y-57670952D01*
X144122380Y-57051904D01*
X154602380Y-59739047D02*
X154126190Y-60072380D01*
X154602380Y-60310476D02*
X153602380Y-60310476D01*
X153602380Y-59929523D01*
X153650000Y-59834285D01*
X153697619Y-59786666D01*
X153792857Y-59739047D01*
X153935714Y-59739047D01*
X154030952Y-59786666D01*
X154078571Y-59834285D01*
X154126190Y-59929523D01*
X154126190Y-60310476D01*
X153697619Y-59358095D02*
X153650000Y-59310476D01*
X153602380Y-59215238D01*
X153602380Y-58977142D01*
X153650000Y-58881904D01*
X153697619Y-58834285D01*
X153792857Y-58786666D01*
X153888095Y-58786666D01*
X154030952Y-58834285D01*
X154602380Y-59405714D01*
X154602380Y-58786666D01*
X153602380Y-58167619D02*
X153602380Y-58072380D01*
X153650000Y-57977142D01*
X153697619Y-57929523D01*
X153792857Y-57881904D01*
X153983333Y-57834285D01*
X154221428Y-57834285D01*
X154411904Y-57881904D01*
X154507142Y-57929523D01*
X154554761Y-57977142D01*
X154602380Y-58072380D01*
X154602380Y-58167619D01*
X154554761Y-58262857D01*
X154507142Y-58310476D01*
X154411904Y-58358095D01*
X154221428Y-58405714D01*
X153983333Y-58405714D01*
X153792857Y-58358095D01*
X153697619Y-58310476D01*
X153650000Y-58262857D01*
X153602380Y-58167619D01*
X153602380Y-57500952D02*
X153602380Y-56881904D01*
X153983333Y-57215238D01*
X153983333Y-57072380D01*
X154030952Y-56977142D01*
X154078571Y-56929523D01*
X154173809Y-56881904D01*
X154411904Y-56881904D01*
X154507142Y-56929523D01*
X154554761Y-56977142D01*
X154602380Y-57072380D01*
X154602380Y-57358095D01*
X154554761Y-57453333D01*
X154507142Y-57500952D01*
X159502380Y-68239047D02*
X159026190Y-68572380D01*
X159502380Y-68810476D02*
X158502380Y-68810476D01*
X158502380Y-68429523D01*
X158550000Y-68334285D01*
X158597619Y-68286666D01*
X158692857Y-68239047D01*
X158835714Y-68239047D01*
X158930952Y-68286666D01*
X158978571Y-68334285D01*
X159026190Y-68429523D01*
X159026190Y-68810476D01*
X158597619Y-67858095D02*
X158550000Y-67810476D01*
X158502380Y-67715238D01*
X158502380Y-67477142D01*
X158550000Y-67381904D01*
X158597619Y-67334285D01*
X158692857Y-67286666D01*
X158788095Y-67286666D01*
X158930952Y-67334285D01*
X159502380Y-67905714D01*
X159502380Y-67286666D01*
X158502380Y-66667619D02*
X158502380Y-66572380D01*
X158550000Y-66477142D01*
X158597619Y-66429523D01*
X158692857Y-66381904D01*
X158883333Y-66334285D01*
X159121428Y-66334285D01*
X159311904Y-66381904D01*
X159407142Y-66429523D01*
X159454761Y-66477142D01*
X159502380Y-66572380D01*
X159502380Y-66667619D01*
X159454761Y-66762857D01*
X159407142Y-66810476D01*
X159311904Y-66858095D01*
X159121428Y-66905714D01*
X158883333Y-66905714D01*
X158692857Y-66858095D01*
X158597619Y-66810476D01*
X158550000Y-66762857D01*
X158502380Y-66667619D01*
X158835714Y-65477142D02*
X159502380Y-65477142D01*
X158454761Y-65715238D02*
X159169047Y-65953333D01*
X159169047Y-65334285D01*
X111802380Y-60439047D02*
X111326190Y-60772380D01*
X111802380Y-61010476D02*
X110802380Y-61010476D01*
X110802380Y-60629523D01*
X110850000Y-60534285D01*
X110897619Y-60486666D01*
X110992857Y-60439047D01*
X111135714Y-60439047D01*
X111230952Y-60486666D01*
X111278571Y-60534285D01*
X111326190Y-60629523D01*
X111326190Y-61010476D01*
X110897619Y-60058095D02*
X110850000Y-60010476D01*
X110802380Y-59915238D01*
X110802380Y-59677142D01*
X110850000Y-59581904D01*
X110897619Y-59534285D01*
X110992857Y-59486666D01*
X111088095Y-59486666D01*
X111230952Y-59534285D01*
X111802380Y-60105714D01*
X111802380Y-59486666D01*
X110802380Y-58867619D02*
X110802380Y-58772380D01*
X110850000Y-58677142D01*
X110897619Y-58629523D01*
X110992857Y-58581904D01*
X111183333Y-58534285D01*
X111421428Y-58534285D01*
X111611904Y-58581904D01*
X111707142Y-58629523D01*
X111754761Y-58677142D01*
X111802380Y-58772380D01*
X111802380Y-58867619D01*
X111754761Y-58962857D01*
X111707142Y-59010476D01*
X111611904Y-59058095D01*
X111421428Y-59105714D01*
X111183333Y-59105714D01*
X110992857Y-59058095D01*
X110897619Y-59010476D01*
X110850000Y-58962857D01*
X110802380Y-58867619D01*
X110802380Y-57629523D02*
X110802380Y-58105714D01*
X111278571Y-58153333D01*
X111230952Y-58105714D01*
X111183333Y-58010476D01*
X111183333Y-57772380D01*
X111230952Y-57677142D01*
X111278571Y-57629523D01*
X111373809Y-57581904D01*
X111611904Y-57581904D01*
X111707142Y-57629523D01*
X111754761Y-57677142D01*
X111802380Y-57772380D01*
X111802380Y-58010476D01*
X111754761Y-58105714D01*
X111707142Y-58153333D01*
X149740952Y-56322380D02*
X149407619Y-55846190D01*
X149169523Y-56322380D02*
X149169523Y-55322380D01*
X149550476Y-55322380D01*
X149645714Y-55370000D01*
X149693333Y-55417619D01*
X149740952Y-55512857D01*
X149740952Y-55655714D01*
X149693333Y-55750952D01*
X149645714Y-55798571D01*
X149550476Y-55846190D01*
X149169523Y-55846190D01*
X150121904Y-55417619D02*
X150169523Y-55370000D01*
X150264761Y-55322380D01*
X150502857Y-55322380D01*
X150598095Y-55370000D01*
X150645714Y-55417619D01*
X150693333Y-55512857D01*
X150693333Y-55608095D01*
X150645714Y-55750952D01*
X150074285Y-56322380D01*
X150693333Y-56322380D01*
X151312380Y-55322380D02*
X151407619Y-55322380D01*
X151502857Y-55370000D01*
X151550476Y-55417619D01*
X151598095Y-55512857D01*
X151645714Y-55703333D01*
X151645714Y-55941428D01*
X151598095Y-56131904D01*
X151550476Y-56227142D01*
X151502857Y-56274761D01*
X151407619Y-56322380D01*
X151312380Y-56322380D01*
X151217142Y-56274761D01*
X151169523Y-56227142D01*
X151121904Y-56131904D01*
X151074285Y-55941428D01*
X151074285Y-55703333D01*
X151121904Y-55512857D01*
X151169523Y-55417619D01*
X151217142Y-55370000D01*
X151312380Y-55322380D01*
X152502857Y-55322380D02*
X152312380Y-55322380D01*
X152217142Y-55370000D01*
X152169523Y-55417619D01*
X152074285Y-55560476D01*
X152026666Y-55750952D01*
X152026666Y-56131904D01*
X152074285Y-56227142D01*
X152121904Y-56274761D01*
X152217142Y-56322380D01*
X152407619Y-56322380D01*
X152502857Y-56274761D01*
X152550476Y-56227142D01*
X152598095Y-56131904D01*
X152598095Y-55893809D01*
X152550476Y-55798571D01*
X152502857Y-55750952D01*
X152407619Y-55703333D01*
X152217142Y-55703333D01*
X152121904Y-55750952D01*
X152074285Y-55798571D01*
X152026666Y-55893809D01*
X107812380Y-53079047D02*
X107336190Y-53412380D01*
X107812380Y-53650476D02*
X106812380Y-53650476D01*
X106812380Y-53269523D01*
X106860000Y-53174285D01*
X106907619Y-53126666D01*
X107002857Y-53079047D01*
X107145714Y-53079047D01*
X107240952Y-53126666D01*
X107288571Y-53174285D01*
X107336190Y-53269523D01*
X107336190Y-53650476D01*
X106812380Y-52745714D02*
X106812380Y-52126666D01*
X107193333Y-52460000D01*
X107193333Y-52317142D01*
X107240952Y-52221904D01*
X107288571Y-52174285D01*
X107383809Y-52126666D01*
X107621904Y-52126666D01*
X107717142Y-52174285D01*
X107764761Y-52221904D01*
X107812380Y-52317142D01*
X107812380Y-52602857D01*
X107764761Y-52698095D01*
X107717142Y-52745714D01*
X106812380Y-51507619D02*
X106812380Y-51412380D01*
X106860000Y-51317142D01*
X106907619Y-51269523D01*
X107002857Y-51221904D01*
X107193333Y-51174285D01*
X107431428Y-51174285D01*
X107621904Y-51221904D01*
X107717142Y-51269523D01*
X107764761Y-51317142D01*
X107812380Y-51412380D01*
X107812380Y-51507619D01*
X107764761Y-51602857D01*
X107717142Y-51650476D01*
X107621904Y-51698095D01*
X107431428Y-51745714D01*
X107193333Y-51745714D01*
X107002857Y-51698095D01*
X106907619Y-51650476D01*
X106860000Y-51602857D01*
X106812380Y-51507619D01*
X107812380Y-50221904D02*
X107812380Y-50793333D01*
X107812380Y-50507619D02*
X106812380Y-50507619D01*
X106955238Y-50602857D01*
X107050476Y-50698095D01*
X107098095Y-50793333D01*
X107012380Y-48119047D02*
X106536190Y-48452380D01*
X107012380Y-48690476D02*
X106012380Y-48690476D01*
X106012380Y-48309523D01*
X106060000Y-48214285D01*
X106107619Y-48166666D01*
X106202857Y-48119047D01*
X106345714Y-48119047D01*
X106440952Y-48166666D01*
X106488571Y-48214285D01*
X106536190Y-48309523D01*
X106536190Y-48690476D01*
X106012380Y-47785714D02*
X106012380Y-47166666D01*
X106393333Y-47500000D01*
X106393333Y-47357142D01*
X106440952Y-47261904D01*
X106488571Y-47214285D01*
X106583809Y-47166666D01*
X106821904Y-47166666D01*
X106917142Y-47214285D01*
X106964761Y-47261904D01*
X107012380Y-47357142D01*
X107012380Y-47642857D01*
X106964761Y-47738095D01*
X106917142Y-47785714D01*
X106012380Y-46547619D02*
X106012380Y-46452380D01*
X106060000Y-46357142D01*
X106107619Y-46309523D01*
X106202857Y-46261904D01*
X106393333Y-46214285D01*
X106631428Y-46214285D01*
X106821904Y-46261904D01*
X106917142Y-46309523D01*
X106964761Y-46357142D01*
X107012380Y-46452380D01*
X107012380Y-46547619D01*
X106964761Y-46642857D01*
X106917142Y-46690476D01*
X106821904Y-46738095D01*
X106631428Y-46785714D01*
X106393333Y-46785714D01*
X106202857Y-46738095D01*
X106107619Y-46690476D01*
X106060000Y-46642857D01*
X106012380Y-46547619D01*
X106107619Y-45833333D02*
X106060000Y-45785714D01*
X106012380Y-45690476D01*
X106012380Y-45452380D01*
X106060000Y-45357142D01*
X106107619Y-45309523D01*
X106202857Y-45261904D01*
X106298095Y-45261904D01*
X106440952Y-45309523D01*
X107012380Y-45880952D01*
X107012380Y-45261904D01*
X121422380Y-48189047D02*
X120946190Y-48522380D01*
X121422380Y-48760476D02*
X120422380Y-48760476D01*
X120422380Y-48379523D01*
X120470000Y-48284285D01*
X120517619Y-48236666D01*
X120612857Y-48189047D01*
X120755714Y-48189047D01*
X120850952Y-48236666D01*
X120898571Y-48284285D01*
X120946190Y-48379523D01*
X120946190Y-48760476D01*
X120422380Y-47855714D02*
X120422380Y-47236666D01*
X120803333Y-47570000D01*
X120803333Y-47427142D01*
X120850952Y-47331904D01*
X120898571Y-47284285D01*
X120993809Y-47236666D01*
X121231904Y-47236666D01*
X121327142Y-47284285D01*
X121374761Y-47331904D01*
X121422380Y-47427142D01*
X121422380Y-47712857D01*
X121374761Y-47808095D01*
X121327142Y-47855714D01*
X120422380Y-46617619D02*
X120422380Y-46522380D01*
X120470000Y-46427142D01*
X120517619Y-46379523D01*
X120612857Y-46331904D01*
X120803333Y-46284285D01*
X121041428Y-46284285D01*
X121231904Y-46331904D01*
X121327142Y-46379523D01*
X121374761Y-46427142D01*
X121422380Y-46522380D01*
X121422380Y-46617619D01*
X121374761Y-46712857D01*
X121327142Y-46760476D01*
X121231904Y-46808095D01*
X121041428Y-46855714D01*
X120803333Y-46855714D01*
X120612857Y-46808095D01*
X120517619Y-46760476D01*
X120470000Y-46712857D01*
X120422380Y-46617619D01*
X120422380Y-45950952D02*
X120422380Y-45331904D01*
X120803333Y-45665238D01*
X120803333Y-45522380D01*
X120850952Y-45427142D01*
X120898571Y-45379523D01*
X120993809Y-45331904D01*
X121231904Y-45331904D01*
X121327142Y-45379523D01*
X121374761Y-45427142D01*
X121422380Y-45522380D01*
X121422380Y-45808095D01*
X121374761Y-45903333D01*
X121327142Y-45950952D01*
X120402380Y-53139047D02*
X119926190Y-53472380D01*
X120402380Y-53710476D02*
X119402380Y-53710476D01*
X119402380Y-53329523D01*
X119450000Y-53234285D01*
X119497619Y-53186666D01*
X119592857Y-53139047D01*
X119735714Y-53139047D01*
X119830952Y-53186666D01*
X119878571Y-53234285D01*
X119926190Y-53329523D01*
X119926190Y-53710476D01*
X119402380Y-52805714D02*
X119402380Y-52186666D01*
X119783333Y-52520000D01*
X119783333Y-52377142D01*
X119830952Y-52281904D01*
X119878571Y-52234285D01*
X119973809Y-52186666D01*
X120211904Y-52186666D01*
X120307142Y-52234285D01*
X120354761Y-52281904D01*
X120402380Y-52377142D01*
X120402380Y-52662857D01*
X120354761Y-52758095D01*
X120307142Y-52805714D01*
X119402380Y-51567619D02*
X119402380Y-51472380D01*
X119450000Y-51377142D01*
X119497619Y-51329523D01*
X119592857Y-51281904D01*
X119783333Y-51234285D01*
X120021428Y-51234285D01*
X120211904Y-51281904D01*
X120307142Y-51329523D01*
X120354761Y-51377142D01*
X120402380Y-51472380D01*
X120402380Y-51567619D01*
X120354761Y-51662857D01*
X120307142Y-51710476D01*
X120211904Y-51758095D01*
X120021428Y-51805714D01*
X119783333Y-51805714D01*
X119592857Y-51758095D01*
X119497619Y-51710476D01*
X119450000Y-51662857D01*
X119402380Y-51567619D01*
X119735714Y-50377142D02*
X120402380Y-50377142D01*
X119354761Y-50615238D02*
X120069047Y-50853333D01*
X120069047Y-50234285D01*
X143852380Y-90914047D02*
X143376190Y-91247380D01*
X143852380Y-91485476D02*
X142852380Y-91485476D01*
X142852380Y-91104523D01*
X142900000Y-91009285D01*
X142947619Y-90961666D01*
X143042857Y-90914047D01*
X143185714Y-90914047D01*
X143280952Y-90961666D01*
X143328571Y-91009285D01*
X143376190Y-91104523D01*
X143376190Y-91485476D01*
X143185714Y-90056904D02*
X143852380Y-90056904D01*
X142804761Y-90295000D02*
X143519047Y-90533095D01*
X143519047Y-89914047D01*
X142852380Y-89342619D02*
X142852380Y-89247380D01*
X142900000Y-89152142D01*
X142947619Y-89104523D01*
X143042857Y-89056904D01*
X143233333Y-89009285D01*
X143471428Y-89009285D01*
X143661904Y-89056904D01*
X143757142Y-89104523D01*
X143804761Y-89152142D01*
X143852380Y-89247380D01*
X143852380Y-89342619D01*
X143804761Y-89437857D01*
X143757142Y-89485476D01*
X143661904Y-89533095D01*
X143471428Y-89580714D01*
X143233333Y-89580714D01*
X143042857Y-89533095D01*
X142947619Y-89485476D01*
X142900000Y-89437857D01*
X142852380Y-89342619D01*
X143852380Y-88056904D02*
X143852380Y-88628333D01*
X143852380Y-88342619D02*
X142852380Y-88342619D01*
X142995238Y-88437857D01*
X143090476Y-88533095D01*
X143138095Y-88628333D01*
X119102380Y-84889047D02*
X118626190Y-85222380D01*
X119102380Y-85460476D02*
X118102380Y-85460476D01*
X118102380Y-85079523D01*
X118150000Y-84984285D01*
X118197619Y-84936666D01*
X118292857Y-84889047D01*
X118435714Y-84889047D01*
X118530952Y-84936666D01*
X118578571Y-84984285D01*
X118626190Y-85079523D01*
X118626190Y-85460476D01*
X118435714Y-84031904D02*
X119102380Y-84031904D01*
X118054761Y-84270000D02*
X118769047Y-84508095D01*
X118769047Y-83889047D01*
X118102380Y-83317619D02*
X118102380Y-83222380D01*
X118150000Y-83127142D01*
X118197619Y-83079523D01*
X118292857Y-83031904D01*
X118483333Y-82984285D01*
X118721428Y-82984285D01*
X118911904Y-83031904D01*
X119007142Y-83079523D01*
X119054761Y-83127142D01*
X119102380Y-83222380D01*
X119102380Y-83317619D01*
X119054761Y-83412857D01*
X119007142Y-83460476D01*
X118911904Y-83508095D01*
X118721428Y-83555714D01*
X118483333Y-83555714D01*
X118292857Y-83508095D01*
X118197619Y-83460476D01*
X118150000Y-83412857D01*
X118102380Y-83317619D01*
X118197619Y-82603333D02*
X118150000Y-82555714D01*
X118102380Y-82460476D01*
X118102380Y-82222380D01*
X118150000Y-82127142D01*
X118197619Y-82079523D01*
X118292857Y-82031904D01*
X118388095Y-82031904D01*
X118530952Y-82079523D01*
X119102380Y-82650952D01*
X119102380Y-82031904D01*
X122402380Y-89139047D02*
X121926190Y-89472380D01*
X122402380Y-89710476D02*
X121402380Y-89710476D01*
X121402380Y-89329523D01*
X121450000Y-89234285D01*
X121497619Y-89186666D01*
X121592857Y-89139047D01*
X121735714Y-89139047D01*
X121830952Y-89186666D01*
X121878571Y-89234285D01*
X121926190Y-89329523D01*
X121926190Y-89710476D01*
X121735714Y-88281904D02*
X122402380Y-88281904D01*
X121354761Y-88520000D02*
X122069047Y-88758095D01*
X122069047Y-88139047D01*
X121402380Y-87567619D02*
X121402380Y-87472380D01*
X121450000Y-87377142D01*
X121497619Y-87329523D01*
X121592857Y-87281904D01*
X121783333Y-87234285D01*
X122021428Y-87234285D01*
X122211904Y-87281904D01*
X122307142Y-87329523D01*
X122354761Y-87377142D01*
X122402380Y-87472380D01*
X122402380Y-87567619D01*
X122354761Y-87662857D01*
X122307142Y-87710476D01*
X122211904Y-87758095D01*
X122021428Y-87805714D01*
X121783333Y-87805714D01*
X121592857Y-87758095D01*
X121497619Y-87710476D01*
X121450000Y-87662857D01*
X121402380Y-87567619D01*
X121402380Y-86900952D02*
X121402380Y-86281904D01*
X121783333Y-86615238D01*
X121783333Y-86472380D01*
X121830952Y-86377142D01*
X121878571Y-86329523D01*
X121973809Y-86281904D01*
X122211904Y-86281904D01*
X122307142Y-86329523D01*
X122354761Y-86377142D01*
X122402380Y-86472380D01*
X122402380Y-86758095D01*
X122354761Y-86853333D01*
X122307142Y-86900952D01*
X120152380Y-74889047D02*
X119676190Y-75222380D01*
X120152380Y-75460476D02*
X119152380Y-75460476D01*
X119152380Y-75079523D01*
X119200000Y-74984285D01*
X119247619Y-74936666D01*
X119342857Y-74889047D01*
X119485714Y-74889047D01*
X119580952Y-74936666D01*
X119628571Y-74984285D01*
X119676190Y-75079523D01*
X119676190Y-75460476D01*
X119152380Y-73984285D02*
X119152380Y-74460476D01*
X119628571Y-74508095D01*
X119580952Y-74460476D01*
X119533333Y-74365238D01*
X119533333Y-74127142D01*
X119580952Y-74031904D01*
X119628571Y-73984285D01*
X119723809Y-73936666D01*
X119961904Y-73936666D01*
X120057142Y-73984285D01*
X120104761Y-74031904D01*
X120152380Y-74127142D01*
X120152380Y-74365238D01*
X120104761Y-74460476D01*
X120057142Y-74508095D01*
X119152380Y-73317619D02*
X119152380Y-73222380D01*
X119200000Y-73127142D01*
X119247619Y-73079523D01*
X119342857Y-73031904D01*
X119533333Y-72984285D01*
X119771428Y-72984285D01*
X119961904Y-73031904D01*
X120057142Y-73079523D01*
X120104761Y-73127142D01*
X120152380Y-73222380D01*
X120152380Y-73317619D01*
X120104761Y-73412857D01*
X120057142Y-73460476D01*
X119961904Y-73508095D01*
X119771428Y-73555714D01*
X119533333Y-73555714D01*
X119342857Y-73508095D01*
X119247619Y-73460476D01*
X119200000Y-73412857D01*
X119152380Y-73317619D01*
X120152380Y-72031904D02*
X120152380Y-72603333D01*
X120152380Y-72317619D02*
X119152380Y-72317619D01*
X119295238Y-72412857D01*
X119390476Y-72508095D01*
X119438095Y-72603333D01*
X150252380Y-64914285D02*
X151061904Y-64914285D01*
X151157142Y-64866666D01*
X151204761Y-64819047D01*
X151252380Y-64723809D01*
X151252380Y-64533333D01*
X151204761Y-64438095D01*
X151157142Y-64390476D01*
X151061904Y-64342857D01*
X150252380Y-64342857D01*
X150347619Y-63914285D02*
X150300000Y-63866666D01*
X150252380Y-63771428D01*
X150252380Y-63533333D01*
X150300000Y-63438095D01*
X150347619Y-63390476D01*
X150442857Y-63342857D01*
X150538095Y-63342857D01*
X150680952Y-63390476D01*
X151252380Y-63961904D01*
X151252380Y-63342857D01*
X150252380Y-62723809D02*
X150252380Y-62628571D01*
X150300000Y-62533333D01*
X150347619Y-62485714D01*
X150442857Y-62438095D01*
X150633333Y-62390476D01*
X150871428Y-62390476D01*
X151061904Y-62438095D01*
X151157142Y-62485714D01*
X151204761Y-62533333D01*
X151252380Y-62628571D01*
X151252380Y-62723809D01*
X151204761Y-62819047D01*
X151157142Y-62866666D01*
X151061904Y-62914285D01*
X150871428Y-62961904D01*
X150633333Y-62961904D01*
X150442857Y-62914285D01*
X150347619Y-62866666D01*
X150300000Y-62819047D01*
X150252380Y-62723809D01*
X151252380Y-61438095D02*
X151252380Y-62009523D01*
X151252380Y-61723809D02*
X150252380Y-61723809D01*
X150395238Y-61819047D01*
X150490476Y-61914285D01*
X150538095Y-62009523D01*
X122465714Y-71092380D02*
X122465714Y-71901904D01*
X122513333Y-71997142D01*
X122560952Y-72044761D01*
X122656190Y-72092380D01*
X122846666Y-72092380D01*
X122941904Y-72044761D01*
X122989523Y-71997142D01*
X123037142Y-71901904D01*
X123037142Y-71092380D01*
X123941904Y-71425714D02*
X123941904Y-72092380D01*
X123703809Y-71044761D02*
X123465714Y-71759047D01*
X124084761Y-71759047D01*
X124656190Y-71092380D02*
X124751428Y-71092380D01*
X124846666Y-71140000D01*
X124894285Y-71187619D01*
X124941904Y-71282857D01*
X124989523Y-71473333D01*
X124989523Y-71711428D01*
X124941904Y-71901904D01*
X124894285Y-71997142D01*
X124846666Y-72044761D01*
X124751428Y-72092380D01*
X124656190Y-72092380D01*
X124560952Y-72044761D01*
X124513333Y-71997142D01*
X124465714Y-71901904D01*
X124418095Y-71711428D01*
X124418095Y-71473333D01*
X124465714Y-71282857D01*
X124513333Y-71187619D01*
X124560952Y-71140000D01*
X124656190Y-71092380D01*
X125941904Y-72092380D02*
X125370476Y-72092380D01*
X125656190Y-72092380D02*
X125656190Y-71092380D01*
X125560952Y-71235238D01*
X125465714Y-71330476D01*
X125370476Y-71378095D01*
X149262380Y-49417619D02*
X149167142Y-49370000D01*
X149071904Y-49274761D01*
X148929047Y-49131904D01*
X148833809Y-49084285D01*
X148738571Y-49084285D01*
X148786190Y-49322380D02*
X148690952Y-49274761D01*
X148595714Y-49179523D01*
X148548095Y-48989047D01*
X148548095Y-48655714D01*
X148595714Y-48465238D01*
X148690952Y-48370000D01*
X148786190Y-48322380D01*
X148976666Y-48322380D01*
X149071904Y-48370000D01*
X149167142Y-48465238D01*
X149214761Y-48655714D01*
X149214761Y-48989047D01*
X149167142Y-49179523D01*
X149071904Y-49274761D01*
X148976666Y-49322380D01*
X148786190Y-49322380D01*
X149595714Y-48417619D02*
X149643333Y-48370000D01*
X149738571Y-48322380D01*
X149976666Y-48322380D01*
X150071904Y-48370000D01*
X150119523Y-48417619D01*
X150167142Y-48512857D01*
X150167142Y-48608095D01*
X150119523Y-48750952D01*
X149548095Y-49322380D01*
X150167142Y-49322380D01*
X150786190Y-48322380D02*
X150881428Y-48322380D01*
X150976666Y-48370000D01*
X151024285Y-48417619D01*
X151071904Y-48512857D01*
X151119523Y-48703333D01*
X151119523Y-48941428D01*
X151071904Y-49131904D01*
X151024285Y-49227142D01*
X150976666Y-49274761D01*
X150881428Y-49322380D01*
X150786190Y-49322380D01*
X150690952Y-49274761D01*
X150643333Y-49227142D01*
X150595714Y-49131904D01*
X150548095Y-48941428D01*
X150548095Y-48703333D01*
X150595714Y-48512857D01*
X150643333Y-48417619D01*
X150690952Y-48370000D01*
X150786190Y-48322380D01*
X152071904Y-49322380D02*
X151500476Y-49322380D01*
X151786190Y-49322380D02*
X151786190Y-48322380D01*
X151690952Y-48465238D01*
X151595714Y-48560476D01*
X151500476Y-48608095D01*
X112732380Y-55527619D02*
X112637142Y-55480000D01*
X112541904Y-55384761D01*
X112399047Y-55241904D01*
X112303809Y-55194285D01*
X112208571Y-55194285D01*
X112256190Y-55432380D02*
X112160952Y-55384761D01*
X112065714Y-55289523D01*
X112018095Y-55099047D01*
X112018095Y-54765714D01*
X112065714Y-54575238D01*
X112160952Y-54480000D01*
X112256190Y-54432380D01*
X112446666Y-54432380D01*
X112541904Y-54480000D01*
X112637142Y-54575238D01*
X112684761Y-54765714D01*
X112684761Y-55099047D01*
X112637142Y-55289523D01*
X112541904Y-55384761D01*
X112446666Y-55432380D01*
X112256190Y-55432380D01*
X113018095Y-54432380D02*
X113637142Y-54432380D01*
X113303809Y-54813333D01*
X113446666Y-54813333D01*
X113541904Y-54860952D01*
X113589523Y-54908571D01*
X113637142Y-55003809D01*
X113637142Y-55241904D01*
X113589523Y-55337142D01*
X113541904Y-55384761D01*
X113446666Y-55432380D01*
X113160952Y-55432380D01*
X113065714Y-55384761D01*
X113018095Y-55337142D01*
X114256190Y-54432380D02*
X114351428Y-54432380D01*
X114446666Y-54480000D01*
X114494285Y-54527619D01*
X114541904Y-54622857D01*
X114589523Y-54813333D01*
X114589523Y-55051428D01*
X114541904Y-55241904D01*
X114494285Y-55337142D01*
X114446666Y-55384761D01*
X114351428Y-55432380D01*
X114256190Y-55432380D01*
X114160952Y-55384761D01*
X114113333Y-55337142D01*
X114065714Y-55241904D01*
X114018095Y-55051428D01*
X114018095Y-54813333D01*
X114065714Y-54622857D01*
X114113333Y-54527619D01*
X114160952Y-54480000D01*
X114256190Y-54432380D01*
X115541904Y-55432380D02*
X114970476Y-55432380D01*
X115256190Y-55432380D02*
X115256190Y-54432380D01*
X115160952Y-54575238D01*
X115065714Y-54670476D01*
X114970476Y-54718095D01*
X156575714Y-88184761D02*
X156718571Y-88232380D01*
X156956666Y-88232380D01*
X157051904Y-88184761D01*
X157099523Y-88137142D01*
X157147142Y-88041904D01*
X157147142Y-87946666D01*
X157099523Y-87851428D01*
X157051904Y-87803809D01*
X156956666Y-87756190D01*
X156766190Y-87708571D01*
X156670952Y-87660952D01*
X156623333Y-87613333D01*
X156575714Y-87518095D01*
X156575714Y-87422857D01*
X156623333Y-87327619D01*
X156670952Y-87280000D01*
X156766190Y-87232380D01*
X157004285Y-87232380D01*
X157147142Y-87280000D01*
X158051904Y-87232380D02*
X157575714Y-87232380D01*
X157528095Y-87708571D01*
X157575714Y-87660952D01*
X157670952Y-87613333D01*
X157909047Y-87613333D01*
X158004285Y-87660952D01*
X158051904Y-87708571D01*
X158099523Y-87803809D01*
X158099523Y-88041904D01*
X158051904Y-88137142D01*
X158004285Y-88184761D01*
X157909047Y-88232380D01*
X157670952Y-88232380D01*
X157575714Y-88184761D01*
X157528095Y-88137142D01*
X158718571Y-87232380D02*
X158813809Y-87232380D01*
X158909047Y-87280000D01*
X158956666Y-87327619D01*
X159004285Y-87422857D01*
X159051904Y-87613333D01*
X159051904Y-87851428D01*
X159004285Y-88041904D01*
X158956666Y-88137142D01*
X158909047Y-88184761D01*
X158813809Y-88232380D01*
X158718571Y-88232380D01*
X158623333Y-88184761D01*
X158575714Y-88137142D01*
X158528095Y-88041904D01*
X158480476Y-87851428D01*
X158480476Y-87613333D01*
X158528095Y-87422857D01*
X158575714Y-87327619D01*
X158623333Y-87280000D01*
X158718571Y-87232380D01*
X160004285Y-88232380D02*
X159432857Y-88232380D01*
X159718571Y-88232380D02*
X159718571Y-87232380D01*
X159623333Y-87375238D01*
X159528095Y-87470476D01*
X159432857Y-87518095D01*
X156575714Y-78544761D02*
X156718571Y-78592380D01*
X156956666Y-78592380D01*
X157051904Y-78544761D01*
X157099523Y-78497142D01*
X157147142Y-78401904D01*
X157147142Y-78306666D01*
X157099523Y-78211428D01*
X157051904Y-78163809D01*
X156956666Y-78116190D01*
X156766190Y-78068571D01*
X156670952Y-78020952D01*
X156623333Y-77973333D01*
X156575714Y-77878095D01*
X156575714Y-77782857D01*
X156623333Y-77687619D01*
X156670952Y-77640000D01*
X156766190Y-77592380D01*
X157004285Y-77592380D01*
X157147142Y-77640000D01*
X158051904Y-77592380D02*
X157575714Y-77592380D01*
X157528095Y-78068571D01*
X157575714Y-78020952D01*
X157670952Y-77973333D01*
X157909047Y-77973333D01*
X158004285Y-78020952D01*
X158051904Y-78068571D01*
X158099523Y-78163809D01*
X158099523Y-78401904D01*
X158051904Y-78497142D01*
X158004285Y-78544761D01*
X157909047Y-78592380D01*
X157670952Y-78592380D01*
X157575714Y-78544761D01*
X157528095Y-78497142D01*
X158718571Y-77592380D02*
X158813809Y-77592380D01*
X158909047Y-77640000D01*
X158956666Y-77687619D01*
X159004285Y-77782857D01*
X159051904Y-77973333D01*
X159051904Y-78211428D01*
X159004285Y-78401904D01*
X158956666Y-78497142D01*
X158909047Y-78544761D01*
X158813809Y-78592380D01*
X158718571Y-78592380D01*
X158623333Y-78544761D01*
X158575714Y-78497142D01*
X158528095Y-78401904D01*
X158480476Y-78211428D01*
X158480476Y-77973333D01*
X158528095Y-77782857D01*
X158575714Y-77687619D01*
X158623333Y-77640000D01*
X158718571Y-77592380D01*
X159432857Y-77687619D02*
X159480476Y-77640000D01*
X159575714Y-77592380D01*
X159813809Y-77592380D01*
X159909047Y-77640000D01*
X159956666Y-77687619D01*
X160004285Y-77782857D01*
X160004285Y-77878095D01*
X159956666Y-78020952D01*
X159385238Y-78592380D01*
X160004285Y-78592380D01*
X101202380Y-86734285D02*
X101202380Y-86162857D01*
X102202380Y-86448571D02*
X101202380Y-86448571D01*
X102202380Y-85829523D02*
X101202380Y-85829523D01*
X101202380Y-85448571D01*
X101250000Y-85353333D01*
X101297619Y-85305714D01*
X101392857Y-85258095D01*
X101535714Y-85258095D01*
X101630952Y-85305714D01*
X101678571Y-85353333D01*
X101726190Y-85448571D01*
X101726190Y-85829523D01*
X101297619Y-84877142D02*
X101250000Y-84829523D01*
X101202380Y-84734285D01*
X101202380Y-84496190D01*
X101250000Y-84400952D01*
X101297619Y-84353333D01*
X101392857Y-84305714D01*
X101488095Y-84305714D01*
X101630952Y-84353333D01*
X102202380Y-84924761D01*
X102202380Y-84305714D01*
X101202380Y-83686666D02*
X101202380Y-83591428D01*
X101250000Y-83496190D01*
X101297619Y-83448571D01*
X101392857Y-83400952D01*
X101583333Y-83353333D01*
X101821428Y-83353333D01*
X102011904Y-83400952D01*
X102107142Y-83448571D01*
X102154761Y-83496190D01*
X102202380Y-83591428D01*
X102202380Y-83686666D01*
X102154761Y-83781904D01*
X102107142Y-83829523D01*
X102011904Y-83877142D01*
X101821428Y-83924761D01*
X101583333Y-83924761D01*
X101392857Y-83877142D01*
X101297619Y-83829523D01*
X101250000Y-83781904D01*
X101202380Y-83686666D01*
X101297619Y-82972380D02*
X101250000Y-82924761D01*
X101202380Y-82829523D01*
X101202380Y-82591428D01*
X101250000Y-82496190D01*
X101297619Y-82448571D01*
X101392857Y-82400952D01*
X101488095Y-82400952D01*
X101630952Y-82448571D01*
X102202380Y-83020000D01*
X102202380Y-82400952D01*
X104165714Y-72932380D02*
X104737142Y-72932380D01*
X104451428Y-73932380D02*
X104451428Y-72932380D01*
X105070476Y-73932380D02*
X105070476Y-72932380D01*
X105451428Y-72932380D01*
X105546666Y-72980000D01*
X105594285Y-73027619D01*
X105641904Y-73122857D01*
X105641904Y-73265714D01*
X105594285Y-73360952D01*
X105546666Y-73408571D01*
X105451428Y-73456190D01*
X105070476Y-73456190D01*
X106499047Y-73265714D02*
X106499047Y-73932380D01*
X106260952Y-72884761D02*
X106022857Y-73599047D01*
X106641904Y-73599047D01*
X107546666Y-73932380D02*
X106975238Y-73932380D01*
X107260952Y-73932380D02*
X107260952Y-72932380D01*
X107165714Y-73075238D01*
X107070476Y-73170476D01*
X106975238Y-73218095D01*
X107927619Y-73027619D02*
X107975238Y-72980000D01*
X108070476Y-72932380D01*
X108308571Y-72932380D01*
X108403809Y-72980000D01*
X108451428Y-73027619D01*
X108499047Y-73122857D01*
X108499047Y-73218095D01*
X108451428Y-73360952D01*
X107880000Y-73932380D01*
X108499047Y-73932380D01*
X107952380Y-86734285D02*
X107952380Y-86162857D01*
X108952380Y-86448571D02*
X107952380Y-86448571D01*
X108952380Y-85829523D02*
X107952380Y-85829523D01*
X107952380Y-85448571D01*
X108000000Y-85353333D01*
X108047619Y-85305714D01*
X108142857Y-85258095D01*
X108285714Y-85258095D01*
X108380952Y-85305714D01*
X108428571Y-85353333D01*
X108476190Y-85448571D01*
X108476190Y-85829523D01*
X108285714Y-84400952D02*
X108952380Y-84400952D01*
X107904761Y-84639047D02*
X108619047Y-84877142D01*
X108619047Y-84258095D01*
X108952380Y-83353333D02*
X108952380Y-83924761D01*
X108952380Y-83639047D02*
X107952380Y-83639047D01*
X108095238Y-83734285D01*
X108190476Y-83829523D01*
X108238095Y-83924761D01*
X107952380Y-83020000D02*
X107952380Y-82400952D01*
X108333333Y-82734285D01*
X108333333Y-82591428D01*
X108380952Y-82496190D01*
X108428571Y-82448571D01*
X108523809Y-82400952D01*
X108761904Y-82400952D01*
X108857142Y-82448571D01*
X108904761Y-82496190D01*
X108952380Y-82591428D01*
X108952380Y-82877142D01*
X108904761Y-82972380D01*
X108857142Y-83020000D01*
X130335714Y-56372380D02*
X130335714Y-57181904D01*
X130383333Y-57277142D01*
X130430952Y-57324761D01*
X130526190Y-57372380D01*
X130716666Y-57372380D01*
X130811904Y-57324761D01*
X130859523Y-57277142D01*
X130907142Y-57181904D01*
X130907142Y-56372380D01*
X131859523Y-56372380D02*
X131383333Y-56372380D01*
X131335714Y-56848571D01*
X131383333Y-56800952D01*
X131478571Y-56753333D01*
X131716666Y-56753333D01*
X131811904Y-56800952D01*
X131859523Y-56848571D01*
X131907142Y-56943809D01*
X131907142Y-57181904D01*
X131859523Y-57277142D01*
X131811904Y-57324761D01*
X131716666Y-57372380D01*
X131478571Y-57372380D01*
X131383333Y-57324761D01*
X131335714Y-57277142D01*
X132526190Y-56372380D02*
X132621428Y-56372380D01*
X132716666Y-56420000D01*
X132764285Y-56467619D01*
X132811904Y-56562857D01*
X132859523Y-56753333D01*
X132859523Y-56991428D01*
X132811904Y-57181904D01*
X132764285Y-57277142D01*
X132716666Y-57324761D01*
X132621428Y-57372380D01*
X132526190Y-57372380D01*
X132430952Y-57324761D01*
X132383333Y-57277142D01*
X132335714Y-57181904D01*
X132288095Y-56991428D01*
X132288095Y-56753333D01*
X132335714Y-56562857D01*
X132383333Y-56467619D01*
X132430952Y-56420000D01*
X132526190Y-56372380D01*
X133811904Y-57372380D02*
X133240476Y-57372380D01*
X133526190Y-57372380D02*
X133526190Y-56372380D01*
X133430952Y-56515238D01*
X133335714Y-56610476D01*
X133240476Y-56658095D01*
M02*
