G04 #@! TF.GenerationSoftware,KiCad,Pcbnew,5.1.5-52549c5~84~ubuntu18.04.1*
G04 #@! TF.CreationDate,2019-12-19T12:34:09+01:00*
G04 #@! TF.ProjectId,E-Ink,452d496e-6b2e-46b6-9963-61645f706362,rev?*
G04 #@! TF.SameCoordinates,Original*
G04 #@! TF.FileFunction,Soldermask,Top*
G04 #@! TF.FilePolarity,Negative*
%FSLAX46Y46*%
G04 Gerber Fmt 4.6, Leading zero omitted, Abs format (unit mm)*
G04 Created by KiCad (PCBNEW 5.1.5-52549c5~84~ubuntu18.04.1) date 2019-12-19 12:34:09*
%MOMM*%
%LPD*%
G04 APERTURE LIST*
%ADD10C,0.100000*%
G04 APERTURE END LIST*
D10*
G36*
X129430035Y-96464079D02*
G01*
X129609482Y-96499773D01*
X129802572Y-96579754D01*
X129976348Y-96695867D01*
X130124133Y-96843652D01*
X130240246Y-97017428D01*
X130320227Y-97210518D01*
X130361000Y-97415501D01*
X130361000Y-97624499D01*
X130320227Y-97829482D01*
X130240246Y-98022572D01*
X130240244Y-98022575D01*
X130226777Y-98042730D01*
X130124133Y-98196348D01*
X129976348Y-98344133D01*
X129802572Y-98460246D01*
X129609482Y-98540227D01*
X129430035Y-98575921D01*
X129404500Y-98581000D01*
X129195500Y-98581000D01*
X129169965Y-98575921D01*
X128990518Y-98540227D01*
X128797428Y-98460246D01*
X128623652Y-98344133D01*
X128475867Y-98196348D01*
X128373223Y-98042730D01*
X128359756Y-98022575D01*
X128359754Y-98022572D01*
X128279773Y-97829482D01*
X128239000Y-97624499D01*
X128239000Y-97415501D01*
X128279773Y-97210518D01*
X128359754Y-97017428D01*
X128475867Y-96843652D01*
X128623652Y-96695867D01*
X128797428Y-96579754D01*
X128990518Y-96499773D01*
X129169965Y-96464079D01*
X129195500Y-96459000D01*
X129404500Y-96459000D01*
X129430035Y-96464079D01*
G37*
G36*
X125930035Y-96464079D02*
G01*
X126109482Y-96499773D01*
X126302572Y-96579754D01*
X126476348Y-96695867D01*
X126624133Y-96843652D01*
X126740246Y-97017428D01*
X126820227Y-97210518D01*
X126861000Y-97415501D01*
X126861000Y-97624499D01*
X126820227Y-97829482D01*
X126740246Y-98022572D01*
X126740244Y-98022575D01*
X126726777Y-98042730D01*
X126624133Y-98196348D01*
X126476348Y-98344133D01*
X126302572Y-98460246D01*
X126109482Y-98540227D01*
X125930035Y-98575921D01*
X125904500Y-98581000D01*
X125695500Y-98581000D01*
X125669965Y-98575921D01*
X125490518Y-98540227D01*
X125297428Y-98460246D01*
X125123652Y-98344133D01*
X124975867Y-98196348D01*
X124873223Y-98042730D01*
X124859756Y-98022575D01*
X124859754Y-98022572D01*
X124779773Y-97829482D01*
X124739000Y-97624499D01*
X124739000Y-97415501D01*
X124779773Y-97210518D01*
X124859754Y-97017428D01*
X124975867Y-96843652D01*
X125123652Y-96695867D01*
X125297428Y-96579754D01*
X125490518Y-96499773D01*
X125669965Y-96464079D01*
X125695500Y-96459000D01*
X125904500Y-96459000D01*
X125930035Y-96464079D01*
G37*
G36*
X115430035Y-96464079D02*
G01*
X115609482Y-96499773D01*
X115802572Y-96579754D01*
X115976348Y-96695867D01*
X116124133Y-96843652D01*
X116240246Y-97017428D01*
X116320227Y-97210518D01*
X116361000Y-97415501D01*
X116361000Y-97624499D01*
X116320227Y-97829482D01*
X116240246Y-98022572D01*
X116240244Y-98022575D01*
X116226777Y-98042730D01*
X116124133Y-98196348D01*
X115976348Y-98344133D01*
X115802572Y-98460246D01*
X115609482Y-98540227D01*
X115430035Y-98575921D01*
X115404500Y-98581000D01*
X115195500Y-98581000D01*
X115169965Y-98575921D01*
X114990518Y-98540227D01*
X114797428Y-98460246D01*
X114623652Y-98344133D01*
X114475867Y-98196348D01*
X114373223Y-98042730D01*
X114359756Y-98022575D01*
X114359754Y-98022572D01*
X114279773Y-97829482D01*
X114239000Y-97624499D01*
X114239000Y-97415501D01*
X114279773Y-97210518D01*
X114359754Y-97017428D01*
X114475867Y-96843652D01*
X114623652Y-96695867D01*
X114797428Y-96579754D01*
X114990518Y-96499773D01*
X115169965Y-96464079D01*
X115195500Y-96459000D01*
X115404500Y-96459000D01*
X115430035Y-96464079D01*
G37*
G36*
X111930035Y-96464079D02*
G01*
X112109482Y-96499773D01*
X112302572Y-96579754D01*
X112476348Y-96695867D01*
X112624133Y-96843652D01*
X112740246Y-97017428D01*
X112820227Y-97210518D01*
X112861000Y-97415501D01*
X112861000Y-97624499D01*
X112820227Y-97829482D01*
X112740246Y-98022572D01*
X112740244Y-98022575D01*
X112726777Y-98042730D01*
X112624133Y-98196348D01*
X112476348Y-98344133D01*
X112302572Y-98460246D01*
X112109482Y-98540227D01*
X111930035Y-98575921D01*
X111904500Y-98581000D01*
X111695500Y-98581000D01*
X111669965Y-98575921D01*
X111490518Y-98540227D01*
X111297428Y-98460246D01*
X111123652Y-98344133D01*
X110975867Y-98196348D01*
X110873223Y-98042730D01*
X110859756Y-98022575D01*
X110859754Y-98022572D01*
X110779773Y-97829482D01*
X110739000Y-97624499D01*
X110739000Y-97415501D01*
X110779773Y-97210518D01*
X110859754Y-97017428D01*
X110975867Y-96843652D01*
X111123652Y-96695867D01*
X111297428Y-96579754D01*
X111490518Y-96499773D01*
X111669965Y-96464079D01*
X111695500Y-96459000D01*
X111904500Y-96459000D01*
X111930035Y-96464079D01*
G37*
G36*
X118930035Y-96464079D02*
G01*
X119109482Y-96499773D01*
X119302572Y-96579754D01*
X119476348Y-96695867D01*
X119624133Y-96843652D01*
X119740246Y-97017428D01*
X119820227Y-97210518D01*
X119861000Y-97415501D01*
X119861000Y-97624499D01*
X119820227Y-97829482D01*
X119740246Y-98022572D01*
X119740244Y-98022575D01*
X119726777Y-98042730D01*
X119624133Y-98196348D01*
X119476348Y-98344133D01*
X119302572Y-98460246D01*
X119109482Y-98540227D01*
X118930035Y-98575921D01*
X118904500Y-98581000D01*
X118695500Y-98581000D01*
X118669965Y-98575921D01*
X118490518Y-98540227D01*
X118297428Y-98460246D01*
X118123652Y-98344133D01*
X117975867Y-98196348D01*
X117873223Y-98042730D01*
X117859756Y-98022575D01*
X117859754Y-98022572D01*
X117779773Y-97829482D01*
X117739000Y-97624499D01*
X117739000Y-97415501D01*
X117779773Y-97210518D01*
X117859754Y-97017428D01*
X117975867Y-96843652D01*
X118123652Y-96695867D01*
X118297428Y-96579754D01*
X118490518Y-96499773D01*
X118669965Y-96464079D01*
X118695500Y-96459000D01*
X118904500Y-96459000D01*
X118930035Y-96464079D01*
G37*
G36*
X108430035Y-96464079D02*
G01*
X108609482Y-96499773D01*
X108802572Y-96579754D01*
X108976348Y-96695867D01*
X109124133Y-96843652D01*
X109240246Y-97017428D01*
X109320227Y-97210518D01*
X109361000Y-97415501D01*
X109361000Y-97624499D01*
X109320227Y-97829482D01*
X109240246Y-98022572D01*
X109240244Y-98022575D01*
X109226777Y-98042730D01*
X109124133Y-98196348D01*
X108976348Y-98344133D01*
X108802572Y-98460246D01*
X108609482Y-98540227D01*
X108430035Y-98575921D01*
X108404500Y-98581000D01*
X108195500Y-98581000D01*
X108169965Y-98575921D01*
X107990518Y-98540227D01*
X107797428Y-98460246D01*
X107623652Y-98344133D01*
X107475867Y-98196348D01*
X107373223Y-98042730D01*
X107359756Y-98022575D01*
X107359754Y-98022572D01*
X107279773Y-97829482D01*
X107239000Y-97624499D01*
X107239000Y-97415501D01*
X107279773Y-97210518D01*
X107359754Y-97017428D01*
X107475867Y-96843652D01*
X107623652Y-96695867D01*
X107797428Y-96579754D01*
X107990518Y-96499773D01*
X108169965Y-96464079D01*
X108195500Y-96459000D01*
X108404500Y-96459000D01*
X108430035Y-96464079D01*
G37*
G36*
X122430035Y-96464079D02*
G01*
X122609482Y-96499773D01*
X122802572Y-96579754D01*
X122976348Y-96695867D01*
X123124133Y-96843652D01*
X123240246Y-97017428D01*
X123320227Y-97210518D01*
X123361000Y-97415501D01*
X123361000Y-97624499D01*
X123320227Y-97829482D01*
X123240246Y-98022572D01*
X123240244Y-98022575D01*
X123226777Y-98042730D01*
X123124133Y-98196348D01*
X122976348Y-98344133D01*
X122802572Y-98460246D01*
X122609482Y-98540227D01*
X122430035Y-98575921D01*
X122404500Y-98581000D01*
X122195500Y-98581000D01*
X122169965Y-98575921D01*
X121990518Y-98540227D01*
X121797428Y-98460246D01*
X121623652Y-98344133D01*
X121475867Y-98196348D01*
X121373223Y-98042730D01*
X121359756Y-98022575D01*
X121359754Y-98022572D01*
X121279773Y-97829482D01*
X121239000Y-97624499D01*
X121239000Y-97415501D01*
X121279773Y-97210518D01*
X121359754Y-97017428D01*
X121475867Y-96843652D01*
X121623652Y-96695867D01*
X121797428Y-96579754D01*
X121990518Y-96499773D01*
X122169965Y-96464079D01*
X122195500Y-96459000D01*
X122404500Y-96459000D01*
X122430035Y-96464079D01*
G37*
G36*
X139172730Y-96948008D02*
G01*
X139202395Y-96957006D01*
X139229739Y-96971622D01*
X139253708Y-96991292D01*
X139273378Y-97015261D01*
X139287994Y-97042605D01*
X139296992Y-97072270D01*
X139301000Y-97112957D01*
X139301000Y-98027043D01*
X139296992Y-98067730D01*
X139287994Y-98097395D01*
X139273378Y-98124739D01*
X139253708Y-98148708D01*
X139229739Y-98168378D01*
X139202395Y-98182994D01*
X139172730Y-98191992D01*
X139132043Y-98196000D01*
X137967957Y-98196000D01*
X137927270Y-98191992D01*
X137897605Y-98182994D01*
X137870261Y-98168378D01*
X137846292Y-98148708D01*
X137826622Y-98124739D01*
X137812006Y-98097395D01*
X137803008Y-98067730D01*
X137799000Y-98027043D01*
X137799000Y-97112957D01*
X137803008Y-97072270D01*
X137812006Y-97042605D01*
X137826622Y-97015261D01*
X137846292Y-96991292D01*
X137870261Y-96971622D01*
X137897605Y-96957006D01*
X137927270Y-96948008D01*
X137967957Y-96944000D01*
X139132043Y-96944000D01*
X139172730Y-96948008D01*
G37*
G36*
X136422730Y-96923008D02*
G01*
X136452395Y-96932006D01*
X136479739Y-96946622D01*
X136503708Y-96966292D01*
X136523378Y-96990261D01*
X136537994Y-97017605D01*
X136546992Y-97047270D01*
X136551000Y-97087957D01*
X136551000Y-98002043D01*
X136546992Y-98042730D01*
X136537994Y-98072395D01*
X136523378Y-98099739D01*
X136503708Y-98123708D01*
X136479739Y-98143378D01*
X136452395Y-98157994D01*
X136422730Y-98166992D01*
X136382043Y-98171000D01*
X135217957Y-98171000D01*
X135177270Y-98166992D01*
X135147605Y-98157994D01*
X135120261Y-98143378D01*
X135096292Y-98123708D01*
X135076622Y-98099739D01*
X135062006Y-98072395D01*
X135053008Y-98042730D01*
X135049000Y-98002043D01*
X135049000Y-97087957D01*
X135053008Y-97047270D01*
X135062006Y-97017605D01*
X135076622Y-96990261D01*
X135096292Y-96966292D01*
X135120261Y-96946622D01*
X135147605Y-96932006D01*
X135177270Y-96923008D01*
X135217957Y-96919000D01*
X136382043Y-96919000D01*
X136422730Y-96923008D01*
G37*
G36*
X141922730Y-96923008D02*
G01*
X141952395Y-96932006D01*
X141979739Y-96946622D01*
X142003708Y-96966292D01*
X142023378Y-96990261D01*
X142037994Y-97017605D01*
X142046992Y-97047270D01*
X142051000Y-97087957D01*
X142051000Y-98002043D01*
X142046992Y-98042730D01*
X142037994Y-98072395D01*
X142023378Y-98099739D01*
X142003708Y-98123708D01*
X141979739Y-98143378D01*
X141952395Y-98157994D01*
X141922730Y-98166992D01*
X141882043Y-98171000D01*
X140717957Y-98171000D01*
X140677270Y-98166992D01*
X140647605Y-98157994D01*
X140620261Y-98143378D01*
X140596292Y-98123708D01*
X140576622Y-98099739D01*
X140562006Y-98072395D01*
X140553008Y-98042730D01*
X140549000Y-98002043D01*
X140549000Y-97087957D01*
X140553008Y-97047270D01*
X140562006Y-97017605D01*
X140576622Y-96990261D01*
X140596292Y-96966292D01*
X140620261Y-96946622D01*
X140647605Y-96932006D01*
X140677270Y-96923008D01*
X140717957Y-96919000D01*
X141882043Y-96919000D01*
X141922730Y-96923008D01*
G37*
G36*
X139172730Y-94898008D02*
G01*
X139202395Y-94907006D01*
X139229739Y-94921622D01*
X139253708Y-94941292D01*
X139273378Y-94965261D01*
X139287994Y-94992605D01*
X139296992Y-95022270D01*
X139301000Y-95062957D01*
X139301000Y-95977043D01*
X139296992Y-96017730D01*
X139287994Y-96047395D01*
X139273378Y-96074739D01*
X139253708Y-96098708D01*
X139229739Y-96118378D01*
X139202395Y-96132994D01*
X139172730Y-96141992D01*
X139132043Y-96146000D01*
X137967957Y-96146000D01*
X137927270Y-96141992D01*
X137897605Y-96132994D01*
X137870261Y-96118378D01*
X137846292Y-96098708D01*
X137826622Y-96074739D01*
X137812006Y-96047395D01*
X137803008Y-96017730D01*
X137799000Y-95977043D01*
X137799000Y-95062957D01*
X137803008Y-95022270D01*
X137812006Y-94992605D01*
X137826622Y-94965261D01*
X137846292Y-94941292D01*
X137870261Y-94921622D01*
X137897605Y-94907006D01*
X137927270Y-94898008D01*
X137967957Y-94894000D01*
X139132043Y-94894000D01*
X139172730Y-94898008D01*
G37*
G36*
X141922730Y-94873008D02*
G01*
X141952395Y-94882006D01*
X141979739Y-94896622D01*
X142003708Y-94916292D01*
X142023378Y-94940261D01*
X142037994Y-94967605D01*
X142046992Y-94997270D01*
X142051000Y-95037957D01*
X142051000Y-95952043D01*
X142046992Y-95992730D01*
X142037994Y-96022395D01*
X142023378Y-96049739D01*
X142003708Y-96073708D01*
X141979739Y-96093378D01*
X141952395Y-96107994D01*
X141922730Y-96116992D01*
X141882043Y-96121000D01*
X140717957Y-96121000D01*
X140677270Y-96116992D01*
X140647605Y-96107994D01*
X140620261Y-96093378D01*
X140596292Y-96073708D01*
X140576622Y-96049739D01*
X140562006Y-96022395D01*
X140553008Y-95992730D01*
X140549000Y-95952043D01*
X140549000Y-95037957D01*
X140553008Y-94997270D01*
X140562006Y-94967605D01*
X140576622Y-94940261D01*
X140596292Y-94916292D01*
X140620261Y-94896622D01*
X140647605Y-94882006D01*
X140677270Y-94873008D01*
X140717957Y-94869000D01*
X141882043Y-94869000D01*
X141922730Y-94873008D01*
G37*
G36*
X136422730Y-94873008D02*
G01*
X136452395Y-94882006D01*
X136479739Y-94896622D01*
X136503708Y-94916292D01*
X136523378Y-94940261D01*
X136537994Y-94967605D01*
X136546992Y-94997270D01*
X136551000Y-95037957D01*
X136551000Y-95952043D01*
X136546992Y-95992730D01*
X136537994Y-96022395D01*
X136523378Y-96049739D01*
X136503708Y-96073708D01*
X136479739Y-96093378D01*
X136452395Y-96107994D01*
X136422730Y-96116992D01*
X136382043Y-96121000D01*
X135217957Y-96121000D01*
X135177270Y-96116992D01*
X135147605Y-96107994D01*
X135120261Y-96093378D01*
X135096292Y-96073708D01*
X135076622Y-96049739D01*
X135062006Y-96022395D01*
X135053008Y-95992730D01*
X135049000Y-95952043D01*
X135049000Y-95037957D01*
X135053008Y-94997270D01*
X135062006Y-94967605D01*
X135076622Y-94940261D01*
X135096292Y-94916292D01*
X135120261Y-94896622D01*
X135147605Y-94882006D01*
X135177270Y-94873008D01*
X135217957Y-94869000D01*
X136382043Y-94869000D01*
X136422730Y-94873008D01*
G37*
G36*
X111302812Y-90493624D02*
G01*
X111466784Y-90561544D01*
X111614354Y-90660147D01*
X111739853Y-90785646D01*
X111838456Y-90933216D01*
X111906376Y-91097188D01*
X111941000Y-91271259D01*
X111941000Y-91448741D01*
X111906376Y-91622812D01*
X111838456Y-91786784D01*
X111739853Y-91934354D01*
X111614354Y-92059853D01*
X111466784Y-92158456D01*
X111302812Y-92226376D01*
X111128741Y-92261000D01*
X110951259Y-92261000D01*
X110777188Y-92226376D01*
X110613216Y-92158456D01*
X110465646Y-92059853D01*
X110340147Y-91934354D01*
X110241544Y-91786784D01*
X110173624Y-91622812D01*
X110139000Y-91448741D01*
X110139000Y-91271259D01*
X110173624Y-91097188D01*
X110241544Y-90933216D01*
X110340147Y-90785646D01*
X110465646Y-90660147D01*
X110613216Y-90561544D01*
X110777188Y-90493624D01*
X110951259Y-90459000D01*
X111128741Y-90459000D01*
X111302812Y-90493624D01*
G37*
G36*
X124851000Y-91776000D02*
G01*
X122749000Y-91776000D01*
X122749000Y-74264000D01*
X124851000Y-74264000D01*
X124851000Y-91776000D01*
G37*
G36*
X141851000Y-91776000D02*
G01*
X139749000Y-91776000D01*
X139749000Y-74264000D01*
X141851000Y-74264000D01*
X141851000Y-91776000D01*
G37*
G36*
X145672730Y-90198008D02*
G01*
X145702395Y-90207006D01*
X145729739Y-90221622D01*
X145753708Y-90241292D01*
X145773378Y-90265261D01*
X145787994Y-90292605D01*
X145796992Y-90322270D01*
X145801000Y-90362957D01*
X145801000Y-91277043D01*
X145796992Y-91317730D01*
X145787994Y-91347395D01*
X145773378Y-91374739D01*
X145753708Y-91398708D01*
X145729739Y-91418378D01*
X145702395Y-91432994D01*
X145672730Y-91441992D01*
X145632043Y-91446000D01*
X144467957Y-91446000D01*
X144427270Y-91441992D01*
X144397605Y-91432994D01*
X144370261Y-91418378D01*
X144346292Y-91398708D01*
X144326622Y-91374739D01*
X144312006Y-91347395D01*
X144303008Y-91317730D01*
X144299000Y-91277043D01*
X144299000Y-90362957D01*
X144303008Y-90322270D01*
X144312006Y-90292605D01*
X144326622Y-90265261D01*
X144346292Y-90241292D01*
X144370261Y-90221622D01*
X144397605Y-90207006D01*
X144427270Y-90198008D01*
X144467957Y-90194000D01*
X145632043Y-90194000D01*
X145672730Y-90198008D01*
G37*
G36*
X150672730Y-90173008D02*
G01*
X150702395Y-90182006D01*
X150729739Y-90196622D01*
X150753708Y-90216292D01*
X150773378Y-90240261D01*
X150787994Y-90267605D01*
X150796992Y-90297270D01*
X150801000Y-90337957D01*
X150801000Y-91252043D01*
X150796992Y-91292730D01*
X150787994Y-91322395D01*
X150773378Y-91349739D01*
X150753708Y-91373708D01*
X150729739Y-91393378D01*
X150702395Y-91407994D01*
X150672730Y-91416992D01*
X150632043Y-91421000D01*
X149467957Y-91421000D01*
X149427270Y-91416992D01*
X149397605Y-91407994D01*
X149370261Y-91393378D01*
X149346292Y-91373708D01*
X149326622Y-91349739D01*
X149312006Y-91322395D01*
X149303008Y-91292730D01*
X149299000Y-91252043D01*
X149299000Y-90337957D01*
X149303008Y-90297270D01*
X149312006Y-90267605D01*
X149326622Y-90240261D01*
X149346292Y-90216292D01*
X149370261Y-90196622D01*
X149397605Y-90182006D01*
X149427270Y-90173008D01*
X149467957Y-90169000D01*
X150632043Y-90169000D01*
X150672730Y-90173008D01*
G37*
G36*
X148172730Y-90173008D02*
G01*
X148202395Y-90182006D01*
X148229739Y-90196622D01*
X148253708Y-90216292D01*
X148273378Y-90240261D01*
X148287994Y-90267605D01*
X148296992Y-90297270D01*
X148301000Y-90337957D01*
X148301000Y-91252043D01*
X148296992Y-91292730D01*
X148287994Y-91322395D01*
X148273378Y-91349739D01*
X148253708Y-91373708D01*
X148229739Y-91393378D01*
X148202395Y-91407994D01*
X148172730Y-91416992D01*
X148132043Y-91421000D01*
X146967957Y-91421000D01*
X146927270Y-91416992D01*
X146897605Y-91407994D01*
X146870261Y-91393378D01*
X146846292Y-91373708D01*
X146826622Y-91349739D01*
X146812006Y-91322395D01*
X146803008Y-91292730D01*
X146799000Y-91252043D01*
X146799000Y-90337957D01*
X146803008Y-90297270D01*
X146812006Y-90267605D01*
X146826622Y-90240261D01*
X146846292Y-90216292D01*
X146870261Y-90196622D01*
X146897605Y-90182006D01*
X146927270Y-90173008D01*
X146967957Y-90169000D01*
X148132043Y-90169000D01*
X148172730Y-90173008D01*
G37*
G36*
X163951000Y-90771000D02*
G01*
X161749000Y-90771000D01*
X161749000Y-89269000D01*
X163951000Y-89269000D01*
X163951000Y-90771000D01*
G37*
G36*
X154851000Y-90771000D02*
G01*
X152649000Y-90771000D01*
X152649000Y-89269000D01*
X154851000Y-89269000D01*
X154851000Y-90771000D01*
G37*
G36*
X111322812Y-87953624D02*
G01*
X111486784Y-88021544D01*
X111634354Y-88120147D01*
X111759853Y-88245646D01*
X111858456Y-88393216D01*
X111926376Y-88557188D01*
X111961000Y-88731259D01*
X111961000Y-88908741D01*
X111926376Y-89082812D01*
X111858456Y-89246784D01*
X111759853Y-89394354D01*
X111634354Y-89519853D01*
X111486784Y-89618456D01*
X111322812Y-89686376D01*
X111148741Y-89721000D01*
X110971259Y-89721000D01*
X110797188Y-89686376D01*
X110633216Y-89618456D01*
X110485646Y-89519853D01*
X110360147Y-89394354D01*
X110261544Y-89246784D01*
X110193624Y-89082812D01*
X110159000Y-88908741D01*
X110159000Y-88731259D01*
X110193624Y-88557188D01*
X110261544Y-88393216D01*
X110360147Y-88245646D01*
X110485646Y-88120147D01*
X110633216Y-88021544D01*
X110797188Y-87953624D01*
X110971259Y-87919000D01*
X111148741Y-87919000D01*
X111322812Y-87953624D01*
G37*
G36*
X120922730Y-88423008D02*
G01*
X120952395Y-88432006D01*
X120979739Y-88446622D01*
X121003708Y-88466292D01*
X121023378Y-88490261D01*
X121037994Y-88517605D01*
X121046992Y-88547270D01*
X121051000Y-88587957D01*
X121051000Y-89502043D01*
X121046992Y-89542730D01*
X121037994Y-89572395D01*
X121023378Y-89599739D01*
X121003708Y-89623708D01*
X120979739Y-89643378D01*
X120952395Y-89657994D01*
X120922730Y-89666992D01*
X120882043Y-89671000D01*
X119717957Y-89671000D01*
X119677270Y-89666992D01*
X119647605Y-89657994D01*
X119620261Y-89643378D01*
X119596292Y-89623708D01*
X119576622Y-89599739D01*
X119562006Y-89572395D01*
X119553008Y-89542730D01*
X119549000Y-89502043D01*
X119549000Y-88587957D01*
X119553008Y-88547270D01*
X119562006Y-88517605D01*
X119576622Y-88490261D01*
X119596292Y-88466292D01*
X119620261Y-88446622D01*
X119647605Y-88432006D01*
X119677270Y-88423008D01*
X119717957Y-88419000D01*
X120882043Y-88419000D01*
X120922730Y-88423008D01*
G37*
G36*
X145672730Y-88148008D02*
G01*
X145702395Y-88157006D01*
X145729739Y-88171622D01*
X145753708Y-88191292D01*
X145773378Y-88215261D01*
X145787994Y-88242605D01*
X145796992Y-88272270D01*
X145801000Y-88312957D01*
X145801000Y-89227043D01*
X145796992Y-89267730D01*
X145787994Y-89297395D01*
X145773378Y-89324739D01*
X145753708Y-89348708D01*
X145729739Y-89368378D01*
X145702395Y-89382994D01*
X145672730Y-89391992D01*
X145632043Y-89396000D01*
X144467957Y-89396000D01*
X144427270Y-89391992D01*
X144397605Y-89382994D01*
X144370261Y-89368378D01*
X144346292Y-89348708D01*
X144326622Y-89324739D01*
X144312006Y-89297395D01*
X144303008Y-89267730D01*
X144299000Y-89227043D01*
X144299000Y-88312957D01*
X144303008Y-88272270D01*
X144312006Y-88242605D01*
X144326622Y-88215261D01*
X144346292Y-88191292D01*
X144370261Y-88171622D01*
X144397605Y-88157006D01*
X144427270Y-88148008D01*
X144467957Y-88144000D01*
X145632043Y-88144000D01*
X145672730Y-88148008D01*
G37*
G36*
X148172730Y-88123008D02*
G01*
X148202395Y-88132006D01*
X148229739Y-88146622D01*
X148253708Y-88166292D01*
X148273378Y-88190261D01*
X148287994Y-88217605D01*
X148296992Y-88247270D01*
X148301000Y-88287957D01*
X148301000Y-89202043D01*
X148296992Y-89242730D01*
X148287994Y-89272395D01*
X148273378Y-89299739D01*
X148253708Y-89323708D01*
X148229739Y-89343378D01*
X148202395Y-89357994D01*
X148172730Y-89366992D01*
X148132043Y-89371000D01*
X146967957Y-89371000D01*
X146927270Y-89366992D01*
X146897605Y-89357994D01*
X146870261Y-89343378D01*
X146846292Y-89323708D01*
X146826622Y-89299739D01*
X146812006Y-89272395D01*
X146803008Y-89242730D01*
X146799000Y-89202043D01*
X146799000Y-88287957D01*
X146803008Y-88247270D01*
X146812006Y-88217605D01*
X146826622Y-88190261D01*
X146846292Y-88166292D01*
X146870261Y-88146622D01*
X146897605Y-88132006D01*
X146927270Y-88123008D01*
X146967957Y-88119000D01*
X148132043Y-88119000D01*
X148172730Y-88123008D01*
G37*
G36*
X150672730Y-88123008D02*
G01*
X150702395Y-88132006D01*
X150729739Y-88146622D01*
X150753708Y-88166292D01*
X150773378Y-88190261D01*
X150787994Y-88217605D01*
X150796992Y-88247270D01*
X150801000Y-88287957D01*
X150801000Y-89202043D01*
X150796992Y-89242730D01*
X150787994Y-89272395D01*
X150773378Y-89299739D01*
X150753708Y-89323708D01*
X150729739Y-89343378D01*
X150702395Y-89357994D01*
X150672730Y-89366992D01*
X150632043Y-89371000D01*
X149467957Y-89371000D01*
X149427270Y-89366992D01*
X149397605Y-89357994D01*
X149370261Y-89343378D01*
X149346292Y-89323708D01*
X149326622Y-89299739D01*
X149312006Y-89272395D01*
X149303008Y-89242730D01*
X149299000Y-89202043D01*
X149299000Y-88287957D01*
X149303008Y-88247270D01*
X149312006Y-88217605D01*
X149326622Y-88190261D01*
X149346292Y-88166292D01*
X149370261Y-88146622D01*
X149397605Y-88132006D01*
X149427270Y-88123008D01*
X149467957Y-88119000D01*
X150632043Y-88119000D01*
X150672730Y-88123008D01*
G37*
G36*
X120922730Y-86373008D02*
G01*
X120952395Y-86382006D01*
X120979739Y-86396622D01*
X121003708Y-86416292D01*
X121023378Y-86440261D01*
X121037994Y-86467605D01*
X121046992Y-86497270D01*
X121051000Y-86537957D01*
X121051000Y-87452043D01*
X121046992Y-87492730D01*
X121037994Y-87522395D01*
X121023378Y-87549739D01*
X121003708Y-87573708D01*
X120979739Y-87593378D01*
X120952395Y-87607994D01*
X120922730Y-87616992D01*
X120882043Y-87621000D01*
X119717957Y-87621000D01*
X119677270Y-87616992D01*
X119647605Y-87607994D01*
X119620261Y-87593378D01*
X119596292Y-87573708D01*
X119576622Y-87549739D01*
X119562006Y-87522395D01*
X119553008Y-87492730D01*
X119549000Y-87452043D01*
X119549000Y-86537957D01*
X119553008Y-86497270D01*
X119562006Y-86467605D01*
X119576622Y-86440261D01*
X119596292Y-86416292D01*
X119620261Y-86396622D01*
X119647605Y-86382006D01*
X119677270Y-86373008D01*
X119717957Y-86369000D01*
X120882043Y-86369000D01*
X120922730Y-86373008D01*
G37*
G36*
X145672730Y-85923008D02*
G01*
X145702395Y-85932006D01*
X145729739Y-85946622D01*
X145753708Y-85966292D01*
X145773378Y-85990261D01*
X145787994Y-86017605D01*
X145796992Y-86047270D01*
X145801000Y-86087957D01*
X145801000Y-87002043D01*
X145796992Y-87042730D01*
X145787994Y-87072395D01*
X145773378Y-87099739D01*
X145753708Y-87123708D01*
X145729739Y-87143378D01*
X145702395Y-87157994D01*
X145672730Y-87166992D01*
X145632043Y-87171000D01*
X144467957Y-87171000D01*
X144427270Y-87166992D01*
X144397605Y-87157994D01*
X144370261Y-87143378D01*
X144346292Y-87123708D01*
X144326622Y-87099739D01*
X144312006Y-87072395D01*
X144303008Y-87042730D01*
X144299000Y-87002043D01*
X144299000Y-86087957D01*
X144303008Y-86047270D01*
X144312006Y-86017605D01*
X144326622Y-85990261D01*
X144346292Y-85966292D01*
X144370261Y-85946622D01*
X144397605Y-85932006D01*
X144427270Y-85923008D01*
X144467957Y-85919000D01*
X145632043Y-85919000D01*
X145672730Y-85923008D01*
G37*
G36*
X135851000Y-86326000D02*
G01*
X130749000Y-86326000D01*
X130749000Y-81224000D01*
X135851000Y-81224000D01*
X135851000Y-86326000D01*
G37*
G36*
X163951000Y-86271000D02*
G01*
X161749000Y-86271000D01*
X161749000Y-84769000D01*
X163951000Y-84769000D01*
X163951000Y-86271000D01*
G37*
G36*
X154851000Y-86271000D02*
G01*
X152649000Y-86271000D01*
X152649000Y-84769000D01*
X154851000Y-84769000D01*
X154851000Y-86271000D01*
G37*
G36*
X111180035Y-83464079D02*
G01*
X111359482Y-83499773D01*
X111552572Y-83579754D01*
X111726348Y-83695867D01*
X111874133Y-83843652D01*
X111990246Y-84017428D01*
X112070227Y-84210518D01*
X112111000Y-84415501D01*
X112111000Y-84624499D01*
X112070227Y-84829482D01*
X111990246Y-85022572D01*
X111874133Y-85196348D01*
X111726348Y-85344133D01*
X111552572Y-85460246D01*
X111359482Y-85540227D01*
X111180035Y-85575921D01*
X111154500Y-85581000D01*
X110945500Y-85581000D01*
X110919965Y-85575921D01*
X110740518Y-85540227D01*
X110547428Y-85460246D01*
X110373652Y-85344133D01*
X110225867Y-85196348D01*
X110109754Y-85022572D01*
X110029773Y-84829482D01*
X109989000Y-84624499D01*
X109989000Y-84415501D01*
X110029773Y-84210518D01*
X110109754Y-84017428D01*
X110225867Y-83843652D01*
X110373652Y-83695867D01*
X110547428Y-83579754D01*
X110740518Y-83499773D01*
X110919965Y-83464079D01*
X110945500Y-83459000D01*
X111154500Y-83459000D01*
X111180035Y-83464079D01*
G37*
G36*
X104430035Y-83464079D02*
G01*
X104609482Y-83499773D01*
X104802572Y-83579754D01*
X104976348Y-83695867D01*
X105124133Y-83843652D01*
X105240246Y-84017428D01*
X105320227Y-84210518D01*
X105361000Y-84415501D01*
X105361000Y-84624499D01*
X105320227Y-84829482D01*
X105240246Y-85022572D01*
X105124133Y-85196348D01*
X104976348Y-85344133D01*
X104802572Y-85460246D01*
X104609482Y-85540227D01*
X104430035Y-85575921D01*
X104404500Y-85581000D01*
X104195500Y-85581000D01*
X104169965Y-85575921D01*
X103990518Y-85540227D01*
X103797428Y-85460246D01*
X103623652Y-85344133D01*
X103475867Y-85196348D01*
X103359754Y-85022572D01*
X103279773Y-84829482D01*
X103239000Y-84624499D01*
X103239000Y-84415501D01*
X103279773Y-84210518D01*
X103359754Y-84017428D01*
X103475867Y-83843652D01*
X103623652Y-83695867D01*
X103797428Y-83579754D01*
X103990518Y-83499773D01*
X104169965Y-83464079D01*
X104195500Y-83459000D01*
X104404500Y-83459000D01*
X104430035Y-83464079D01*
G37*
G36*
X120922730Y-84173008D02*
G01*
X120952395Y-84182006D01*
X120979739Y-84196622D01*
X121003708Y-84216292D01*
X121023378Y-84240261D01*
X121037994Y-84267605D01*
X121046992Y-84297270D01*
X121051000Y-84337957D01*
X121051000Y-85252043D01*
X121046992Y-85292730D01*
X121037994Y-85322395D01*
X121023378Y-85349739D01*
X121003708Y-85373708D01*
X120979739Y-85393378D01*
X120952395Y-85407994D01*
X120922730Y-85416992D01*
X120882043Y-85421000D01*
X119717957Y-85421000D01*
X119677270Y-85416992D01*
X119647605Y-85407994D01*
X119620261Y-85393378D01*
X119596292Y-85373708D01*
X119576622Y-85349739D01*
X119562006Y-85322395D01*
X119553008Y-85292730D01*
X119549000Y-85252043D01*
X119549000Y-84337957D01*
X119553008Y-84297270D01*
X119562006Y-84267605D01*
X119576622Y-84240261D01*
X119596292Y-84216292D01*
X119620261Y-84196622D01*
X119647605Y-84182006D01*
X119677270Y-84173008D01*
X119717957Y-84169000D01*
X120882043Y-84169000D01*
X120922730Y-84173008D01*
G37*
G36*
X145672730Y-83873008D02*
G01*
X145702395Y-83882006D01*
X145729739Y-83896622D01*
X145753708Y-83916292D01*
X145773378Y-83940261D01*
X145787994Y-83967605D01*
X145796992Y-83997270D01*
X145801000Y-84037957D01*
X145801000Y-84952043D01*
X145796992Y-84992730D01*
X145787994Y-85022395D01*
X145773378Y-85049739D01*
X145753708Y-85073708D01*
X145729739Y-85093378D01*
X145702395Y-85107994D01*
X145672730Y-85116992D01*
X145632043Y-85121000D01*
X144467957Y-85121000D01*
X144427270Y-85116992D01*
X144397605Y-85107994D01*
X144370261Y-85093378D01*
X144346292Y-85073708D01*
X144326622Y-85049739D01*
X144312006Y-85022395D01*
X144303008Y-84992730D01*
X144299000Y-84952043D01*
X144299000Y-84037957D01*
X144303008Y-83997270D01*
X144312006Y-83967605D01*
X144326622Y-83940261D01*
X144346292Y-83916292D01*
X144370261Y-83896622D01*
X144397605Y-83882006D01*
X144427270Y-83873008D01*
X144467957Y-83869000D01*
X145632043Y-83869000D01*
X145672730Y-83873008D01*
G37*
G36*
X120922730Y-82123008D02*
G01*
X120952395Y-82132006D01*
X120979739Y-82146622D01*
X121003708Y-82166292D01*
X121023378Y-82190261D01*
X121037994Y-82217605D01*
X121046992Y-82247270D01*
X121051000Y-82287957D01*
X121051000Y-83202043D01*
X121046992Y-83242730D01*
X121037994Y-83272395D01*
X121023378Y-83299739D01*
X121003708Y-83323708D01*
X120979739Y-83343378D01*
X120952395Y-83357994D01*
X120922730Y-83366992D01*
X120882043Y-83371000D01*
X119717957Y-83371000D01*
X119677270Y-83366992D01*
X119647605Y-83357994D01*
X119620261Y-83343378D01*
X119596292Y-83323708D01*
X119576622Y-83299739D01*
X119562006Y-83272395D01*
X119553008Y-83242730D01*
X119549000Y-83202043D01*
X119549000Y-82287957D01*
X119553008Y-82247270D01*
X119562006Y-82217605D01*
X119576622Y-82190261D01*
X119596292Y-82166292D01*
X119620261Y-82146622D01*
X119647605Y-82132006D01*
X119677270Y-82123008D01*
X119717957Y-82119000D01*
X120882043Y-82119000D01*
X120922730Y-82123008D01*
G37*
G36*
X163951000Y-81271000D02*
G01*
X161749000Y-81271000D01*
X161749000Y-79769000D01*
X163951000Y-79769000D01*
X163951000Y-81271000D01*
G37*
G36*
X154851000Y-81271000D02*
G01*
X152649000Y-81271000D01*
X152649000Y-79769000D01*
X154851000Y-79769000D01*
X154851000Y-81271000D01*
G37*
G36*
X111302812Y-79493624D02*
G01*
X111466784Y-79561544D01*
X111614354Y-79660147D01*
X111739853Y-79785646D01*
X111838456Y-79933216D01*
X111906376Y-80097188D01*
X111941000Y-80271259D01*
X111941000Y-80448741D01*
X111906376Y-80622812D01*
X111838456Y-80786784D01*
X111739853Y-80934354D01*
X111614354Y-81059853D01*
X111466784Y-81158456D01*
X111302812Y-81226376D01*
X111128741Y-81261000D01*
X110951259Y-81261000D01*
X110777188Y-81226376D01*
X110613216Y-81158456D01*
X110465646Y-81059853D01*
X110340147Y-80934354D01*
X110241544Y-80786784D01*
X110173624Y-80622812D01*
X110139000Y-80448741D01*
X110139000Y-80271259D01*
X110173624Y-80097188D01*
X110241544Y-79933216D01*
X110340147Y-79785646D01*
X110465646Y-79660147D01*
X110613216Y-79561544D01*
X110777188Y-79493624D01*
X110951259Y-79459000D01*
X111128741Y-79459000D01*
X111302812Y-79493624D01*
G37*
G36*
X111322812Y-76953624D02*
G01*
X111486784Y-77021544D01*
X111634354Y-77120147D01*
X111759853Y-77245646D01*
X111858456Y-77393216D01*
X111926376Y-77557188D01*
X111961000Y-77731259D01*
X111961000Y-77908741D01*
X111926376Y-78082812D01*
X111858456Y-78246784D01*
X111759853Y-78394354D01*
X111634354Y-78519853D01*
X111486784Y-78618456D01*
X111322812Y-78686376D01*
X111148741Y-78721000D01*
X110971259Y-78721000D01*
X110797188Y-78686376D01*
X110633216Y-78618456D01*
X110485646Y-78519853D01*
X110360147Y-78394354D01*
X110261544Y-78246784D01*
X110193624Y-78082812D01*
X110159000Y-77908741D01*
X110159000Y-77731259D01*
X110193624Y-77557188D01*
X110261544Y-77393216D01*
X110360147Y-77245646D01*
X110485646Y-77120147D01*
X110633216Y-77021544D01*
X110797188Y-76953624D01*
X110971259Y-76919000D01*
X111148741Y-76919000D01*
X111322812Y-76953624D01*
G37*
G36*
X163951000Y-76771000D02*
G01*
X161749000Y-76771000D01*
X161749000Y-75269000D01*
X163951000Y-75269000D01*
X163951000Y-76771000D01*
G37*
G36*
X154851000Y-76771000D02*
G01*
X152649000Y-76771000D01*
X152649000Y-75269000D01*
X154851000Y-75269000D01*
X154851000Y-76771000D01*
G37*
G36*
X120922730Y-74173008D02*
G01*
X120952395Y-74182006D01*
X120979739Y-74196622D01*
X121003708Y-74216292D01*
X121023378Y-74240261D01*
X121037994Y-74267605D01*
X121046992Y-74297270D01*
X121051000Y-74337957D01*
X121051000Y-75252043D01*
X121046992Y-75292730D01*
X121037994Y-75322395D01*
X121023378Y-75349739D01*
X121003708Y-75373708D01*
X120979739Y-75393378D01*
X120952395Y-75407994D01*
X120922730Y-75416992D01*
X120882043Y-75421000D01*
X119717957Y-75421000D01*
X119677270Y-75416992D01*
X119647605Y-75407994D01*
X119620261Y-75393378D01*
X119596292Y-75373708D01*
X119576622Y-75349739D01*
X119562006Y-75322395D01*
X119553008Y-75292730D01*
X119549000Y-75252043D01*
X119549000Y-74337957D01*
X119553008Y-74297270D01*
X119562006Y-74267605D01*
X119576622Y-74240261D01*
X119596292Y-74216292D01*
X119620261Y-74196622D01*
X119647605Y-74182006D01*
X119677270Y-74173008D01*
X119717957Y-74169000D01*
X120882043Y-74169000D01*
X120922730Y-74173008D01*
G37*
G36*
X118672730Y-74173008D02*
G01*
X118702395Y-74182006D01*
X118729739Y-74196622D01*
X118753708Y-74216292D01*
X118773378Y-74240261D01*
X118787994Y-74267605D01*
X118796992Y-74297270D01*
X118801000Y-74337957D01*
X118801000Y-75252043D01*
X118796992Y-75292730D01*
X118787994Y-75322395D01*
X118773378Y-75349739D01*
X118753708Y-75373708D01*
X118729739Y-75393378D01*
X118702395Y-75407994D01*
X118672730Y-75416992D01*
X118632043Y-75421000D01*
X117467957Y-75421000D01*
X117427270Y-75416992D01*
X117397605Y-75407994D01*
X117370261Y-75393378D01*
X117346292Y-75373708D01*
X117326622Y-75349739D01*
X117312006Y-75322395D01*
X117303008Y-75292730D01*
X117299000Y-75252043D01*
X117299000Y-74337957D01*
X117303008Y-74297270D01*
X117312006Y-74267605D01*
X117326622Y-74240261D01*
X117346292Y-74216292D01*
X117370261Y-74196622D01*
X117397605Y-74182006D01*
X117427270Y-74173008D01*
X117467957Y-74169000D01*
X118632043Y-74169000D01*
X118672730Y-74173008D01*
G37*
G36*
X138516000Y-74816000D02*
G01*
X126084000Y-74816000D01*
X126084000Y-72714000D01*
X138516000Y-72714000D01*
X138516000Y-74816000D01*
G37*
G36*
X111180035Y-72464079D02*
G01*
X111359482Y-72499773D01*
X111552572Y-72579754D01*
X111726348Y-72695867D01*
X111874133Y-72843652D01*
X111990246Y-73017428D01*
X112070227Y-73210518D01*
X112111000Y-73415501D01*
X112111000Y-73624499D01*
X112070227Y-73829482D01*
X111990246Y-74022572D01*
X111874133Y-74196348D01*
X111726348Y-74344133D01*
X111552572Y-74460246D01*
X111359482Y-74540227D01*
X111180035Y-74575921D01*
X111154500Y-74581000D01*
X110945500Y-74581000D01*
X110919965Y-74575921D01*
X110740518Y-74540227D01*
X110547428Y-74460246D01*
X110373652Y-74344133D01*
X110225867Y-74196348D01*
X110109754Y-74022572D01*
X110029773Y-73829482D01*
X109989000Y-73624499D01*
X109989000Y-73415501D01*
X110029773Y-73210518D01*
X110109754Y-73017428D01*
X110225867Y-72843652D01*
X110373652Y-72695867D01*
X110547428Y-72579754D01*
X110740518Y-72499773D01*
X110919965Y-72464079D01*
X110945500Y-72459000D01*
X111154500Y-72459000D01*
X111180035Y-72464079D01*
G37*
G36*
X120922730Y-72123008D02*
G01*
X120952395Y-72132006D01*
X120979739Y-72146622D01*
X121003708Y-72166292D01*
X121023378Y-72190261D01*
X121037994Y-72217605D01*
X121046992Y-72247270D01*
X121051000Y-72287957D01*
X121051000Y-73202043D01*
X121046992Y-73242730D01*
X121037994Y-73272395D01*
X121023378Y-73299739D01*
X121003708Y-73323708D01*
X120979739Y-73343378D01*
X120952395Y-73357994D01*
X120922730Y-73366992D01*
X120882043Y-73371000D01*
X119717957Y-73371000D01*
X119677270Y-73366992D01*
X119647605Y-73357994D01*
X119620261Y-73343378D01*
X119596292Y-73323708D01*
X119576622Y-73299739D01*
X119562006Y-73272395D01*
X119553008Y-73242730D01*
X119549000Y-73202043D01*
X119549000Y-72287957D01*
X119553008Y-72247270D01*
X119562006Y-72217605D01*
X119576622Y-72190261D01*
X119596292Y-72166292D01*
X119620261Y-72146622D01*
X119647605Y-72132006D01*
X119677270Y-72123008D01*
X119717957Y-72119000D01*
X120882043Y-72119000D01*
X120922730Y-72123008D01*
G37*
G36*
X118672730Y-72123008D02*
G01*
X118702395Y-72132006D01*
X118729739Y-72146622D01*
X118753708Y-72166292D01*
X118773378Y-72190261D01*
X118787994Y-72217605D01*
X118796992Y-72247270D01*
X118801000Y-72287957D01*
X118801000Y-73202043D01*
X118796992Y-73242730D01*
X118787994Y-73272395D01*
X118773378Y-73299739D01*
X118753708Y-73323708D01*
X118729739Y-73343378D01*
X118702395Y-73357994D01*
X118672730Y-73366992D01*
X118632043Y-73371000D01*
X117467957Y-73371000D01*
X117427270Y-73366992D01*
X117397605Y-73357994D01*
X117370261Y-73343378D01*
X117346292Y-73323708D01*
X117326622Y-73299739D01*
X117312006Y-73272395D01*
X117303008Y-73242730D01*
X117299000Y-73202043D01*
X117299000Y-72287957D01*
X117303008Y-72247270D01*
X117312006Y-72217605D01*
X117326622Y-72190261D01*
X117346292Y-72166292D01*
X117370261Y-72146622D01*
X117397605Y-72132006D01*
X117427270Y-72123008D01*
X117467957Y-72119000D01*
X118632043Y-72119000D01*
X118672730Y-72123008D01*
G37*
G36*
X162930035Y-71214079D02*
G01*
X163109482Y-71249773D01*
X163302572Y-71329754D01*
X163476348Y-71445867D01*
X163624133Y-71593652D01*
X163740246Y-71767428D01*
X163820227Y-71960518D01*
X163861000Y-72165501D01*
X163861000Y-72374499D01*
X163820227Y-72579482D01*
X163740246Y-72772572D01*
X163624133Y-72946348D01*
X163476348Y-73094133D01*
X163302572Y-73210246D01*
X163109482Y-73290227D01*
X162941159Y-73323708D01*
X162904500Y-73331000D01*
X162695500Y-73331000D01*
X162658841Y-73323708D01*
X162490518Y-73290227D01*
X162297428Y-73210246D01*
X162123652Y-73094133D01*
X161975867Y-72946348D01*
X161859754Y-72772572D01*
X161779773Y-72579482D01*
X161739000Y-72374499D01*
X161739000Y-72165501D01*
X161779773Y-71960518D01*
X161859754Y-71767428D01*
X161975867Y-71593652D01*
X162123652Y-71445867D01*
X162297428Y-71329754D01*
X162490518Y-71249773D01*
X162669965Y-71214079D01*
X162695500Y-71209000D01*
X162904500Y-71209000D01*
X162930035Y-71214079D01*
G37*
G36*
X162930035Y-67714079D02*
G01*
X163109482Y-67749773D01*
X163302572Y-67829754D01*
X163476348Y-67945867D01*
X163624133Y-68093652D01*
X163740246Y-68267428D01*
X163820227Y-68460518D01*
X163861000Y-68665501D01*
X163861000Y-68874499D01*
X163820227Y-69079482D01*
X163740246Y-69272572D01*
X163624133Y-69446348D01*
X163476348Y-69594133D01*
X163302572Y-69710246D01*
X163109482Y-69790227D01*
X162930035Y-69825921D01*
X162904500Y-69831000D01*
X162695500Y-69831000D01*
X162669965Y-69825921D01*
X162490518Y-69790227D01*
X162297428Y-69710246D01*
X162123652Y-69594133D01*
X161975867Y-69446348D01*
X161859754Y-69272572D01*
X161779773Y-69079482D01*
X161739000Y-68874499D01*
X161739000Y-68665501D01*
X161779773Y-68460518D01*
X161859754Y-68267428D01*
X161975867Y-68093652D01*
X162123652Y-67945867D01*
X162297428Y-67829754D01*
X162490518Y-67749773D01*
X162669965Y-67714079D01*
X162695500Y-67709000D01*
X162904500Y-67709000D01*
X162930035Y-67714079D01*
G37*
G36*
X109951000Y-69671000D02*
G01*
X109049000Y-69671000D01*
X109049000Y-66869000D01*
X109951000Y-66869000D01*
X109951000Y-69671000D01*
G37*
G36*
X107751000Y-69671000D02*
G01*
X106849000Y-69671000D01*
X106849000Y-66869000D01*
X107751000Y-66869000D01*
X107751000Y-69671000D01*
G37*
G36*
X152351000Y-69171000D02*
G01*
X151449000Y-69171000D01*
X151449000Y-66369000D01*
X152351000Y-66369000D01*
X152351000Y-69171000D01*
G37*
G36*
X150151000Y-69171000D02*
G01*
X149249000Y-69171000D01*
X149249000Y-66369000D01*
X150151000Y-66369000D01*
X150151000Y-69171000D01*
G37*
G36*
X162930035Y-64214079D02*
G01*
X163109482Y-64249773D01*
X163302572Y-64329754D01*
X163476348Y-64445867D01*
X163624133Y-64593652D01*
X163740246Y-64767428D01*
X163820227Y-64960518D01*
X163861000Y-65165501D01*
X163861000Y-65374499D01*
X163820227Y-65579482D01*
X163740246Y-65772572D01*
X163624133Y-65946348D01*
X163476348Y-66094133D01*
X163302572Y-66210246D01*
X163109482Y-66290227D01*
X162930035Y-66325921D01*
X162904500Y-66331000D01*
X162695500Y-66331000D01*
X162669965Y-66325921D01*
X162490518Y-66290227D01*
X162297428Y-66210246D01*
X162123652Y-66094133D01*
X161975867Y-65946348D01*
X161859754Y-65772572D01*
X161779773Y-65579482D01*
X161739000Y-65374499D01*
X161739000Y-65165501D01*
X161779773Y-64960518D01*
X161859754Y-64767428D01*
X161975867Y-64593652D01*
X162123652Y-64445867D01*
X162297428Y-64329754D01*
X162490518Y-64249773D01*
X162669965Y-64214079D01*
X162695500Y-64209000D01*
X162904500Y-64209000D01*
X162930035Y-64214079D01*
G37*
G36*
X109484000Y-62959544D02*
G01*
X109478463Y-62961224D01*
X109443886Y-62979706D01*
X109413578Y-63004578D01*
X109388706Y-63034886D01*
X109370224Y-63069463D01*
X109358843Y-63106981D01*
X109355000Y-63145999D01*
X109355000Y-64394001D01*
X109358843Y-64433019D01*
X109370224Y-64470537D01*
X109388706Y-64505114D01*
X109413578Y-64535422D01*
X109443886Y-64560294D01*
X109478463Y-64578776D01*
X109484000Y-64580456D01*
X109484000Y-65446000D01*
X107124000Y-65446000D01*
X107124000Y-64580456D01*
X107129537Y-64578776D01*
X107164114Y-64560294D01*
X107194422Y-64535422D01*
X107219294Y-64505114D01*
X107237776Y-64470537D01*
X107249157Y-64433019D01*
X107253000Y-64394001D01*
X107253000Y-63145999D01*
X107249157Y-63106981D01*
X107237776Y-63069463D01*
X107219294Y-63034886D01*
X107194422Y-63004578D01*
X107164114Y-62979706D01*
X107129537Y-62961224D01*
X107124000Y-62959544D01*
X107124000Y-62094000D01*
X109484000Y-62094000D01*
X109484000Y-62959544D01*
G37*
G36*
X112172730Y-64173008D02*
G01*
X112202395Y-64182006D01*
X112229739Y-64196622D01*
X112253708Y-64216292D01*
X112273378Y-64240261D01*
X112287994Y-64267605D01*
X112296992Y-64297270D01*
X112301000Y-64337957D01*
X112301000Y-65252043D01*
X112296992Y-65292730D01*
X112287994Y-65322395D01*
X112273378Y-65349739D01*
X112253708Y-65373708D01*
X112229739Y-65393378D01*
X112202395Y-65407994D01*
X112172730Y-65416992D01*
X112132043Y-65421000D01*
X110967957Y-65421000D01*
X110927270Y-65416992D01*
X110897605Y-65407994D01*
X110870261Y-65393378D01*
X110846292Y-65373708D01*
X110826622Y-65349739D01*
X110812006Y-65322395D01*
X110803008Y-65292730D01*
X110799000Y-65252043D01*
X110799000Y-64337957D01*
X110803008Y-64297270D01*
X110812006Y-64267605D01*
X110826622Y-64240261D01*
X110846292Y-64216292D01*
X110870261Y-64196622D01*
X110897605Y-64182006D01*
X110927270Y-64173008D01*
X110967957Y-64169000D01*
X112132043Y-64169000D01*
X112172730Y-64173008D01*
G37*
G36*
X105672730Y-64173008D02*
G01*
X105702395Y-64182006D01*
X105729739Y-64196622D01*
X105753708Y-64216292D01*
X105773378Y-64240261D01*
X105787994Y-64267605D01*
X105796992Y-64297270D01*
X105801000Y-64337957D01*
X105801000Y-65252043D01*
X105796992Y-65292730D01*
X105787994Y-65322395D01*
X105773378Y-65349739D01*
X105753708Y-65373708D01*
X105729739Y-65393378D01*
X105702395Y-65407994D01*
X105672730Y-65416992D01*
X105632043Y-65421000D01*
X104467957Y-65421000D01*
X104427270Y-65416992D01*
X104397605Y-65407994D01*
X104370261Y-65393378D01*
X104346292Y-65373708D01*
X104326622Y-65349739D01*
X104312006Y-65322395D01*
X104303008Y-65292730D01*
X104299000Y-65252043D01*
X104299000Y-64337957D01*
X104303008Y-64297270D01*
X104312006Y-64267605D01*
X104326622Y-64240261D01*
X104346292Y-64216292D01*
X104370261Y-64196622D01*
X104397605Y-64182006D01*
X104427270Y-64173008D01*
X104467957Y-64169000D01*
X105632043Y-64169000D01*
X105672730Y-64173008D01*
G37*
G36*
X103422730Y-64173008D02*
G01*
X103452395Y-64182006D01*
X103479739Y-64196622D01*
X103503708Y-64216292D01*
X103523378Y-64240261D01*
X103537994Y-64267605D01*
X103546992Y-64297270D01*
X103551000Y-64337957D01*
X103551000Y-65252043D01*
X103546992Y-65292730D01*
X103537994Y-65322395D01*
X103523378Y-65349739D01*
X103503708Y-65373708D01*
X103479739Y-65393378D01*
X103452395Y-65407994D01*
X103422730Y-65416992D01*
X103382043Y-65421000D01*
X102217957Y-65421000D01*
X102177270Y-65416992D01*
X102147605Y-65407994D01*
X102120261Y-65393378D01*
X102096292Y-65373708D01*
X102076622Y-65349739D01*
X102062006Y-65322395D01*
X102053008Y-65292730D01*
X102049000Y-65252043D01*
X102049000Y-64337957D01*
X102053008Y-64297270D01*
X102062006Y-64267605D01*
X102076622Y-64240261D01*
X102096292Y-64216292D01*
X102120261Y-64196622D01*
X102147605Y-64182006D01*
X102177270Y-64173008D01*
X102217957Y-64169000D01*
X103382043Y-64169000D01*
X103422730Y-64173008D01*
G37*
G36*
X134226000Y-65146000D02*
G01*
X129874000Y-65146000D01*
X129874000Y-63644000D01*
X134226000Y-63644000D01*
X134226000Y-65146000D01*
G37*
G36*
X157422730Y-63673008D02*
G01*
X157452395Y-63682006D01*
X157479739Y-63696622D01*
X157503708Y-63716292D01*
X157523378Y-63740261D01*
X157537994Y-63767605D01*
X157546992Y-63797270D01*
X157551000Y-63837957D01*
X157551000Y-64752043D01*
X157546992Y-64792730D01*
X157537994Y-64822395D01*
X157523378Y-64849739D01*
X157503708Y-64873708D01*
X157479739Y-64893378D01*
X157452395Y-64907994D01*
X157422730Y-64916992D01*
X157382043Y-64921000D01*
X156217957Y-64921000D01*
X156177270Y-64916992D01*
X156147605Y-64907994D01*
X156120261Y-64893378D01*
X156096292Y-64873708D01*
X156076622Y-64849739D01*
X156062006Y-64822395D01*
X156053008Y-64792730D01*
X156049000Y-64752043D01*
X156049000Y-63837957D01*
X156053008Y-63797270D01*
X156062006Y-63767605D01*
X156076622Y-63740261D01*
X156096292Y-63716292D01*
X156120261Y-63696622D01*
X156147605Y-63682006D01*
X156177270Y-63673008D01*
X156217957Y-63669000D01*
X157382043Y-63669000D01*
X157422730Y-63673008D01*
G37*
G36*
X159672730Y-63673008D02*
G01*
X159702395Y-63682006D01*
X159729739Y-63696622D01*
X159753708Y-63716292D01*
X159773378Y-63740261D01*
X159787994Y-63767605D01*
X159796992Y-63797270D01*
X159801000Y-63837957D01*
X159801000Y-64752043D01*
X159796992Y-64792730D01*
X159787994Y-64822395D01*
X159773378Y-64849739D01*
X159753708Y-64873708D01*
X159729739Y-64893378D01*
X159702395Y-64907994D01*
X159672730Y-64916992D01*
X159632043Y-64921000D01*
X158467957Y-64921000D01*
X158427270Y-64916992D01*
X158397605Y-64907994D01*
X158370261Y-64893378D01*
X158346292Y-64873708D01*
X158326622Y-64849739D01*
X158312006Y-64822395D01*
X158303008Y-64792730D01*
X158299000Y-64752043D01*
X158299000Y-63837957D01*
X158303008Y-63797270D01*
X158312006Y-63767605D01*
X158326622Y-63740261D01*
X158346292Y-63716292D01*
X158370261Y-63696622D01*
X158397605Y-63682006D01*
X158427270Y-63673008D01*
X158467957Y-63669000D01*
X159632043Y-63669000D01*
X159672730Y-63673008D01*
G37*
G36*
X155172730Y-63673008D02*
G01*
X155202395Y-63682006D01*
X155229739Y-63696622D01*
X155253708Y-63716292D01*
X155273378Y-63740261D01*
X155287994Y-63767605D01*
X155296992Y-63797270D01*
X155301000Y-63837957D01*
X155301000Y-64752043D01*
X155296992Y-64792730D01*
X155287994Y-64822395D01*
X155273378Y-64849739D01*
X155253708Y-64873708D01*
X155229739Y-64893378D01*
X155202395Y-64907994D01*
X155172730Y-64916992D01*
X155132043Y-64921000D01*
X153967957Y-64921000D01*
X153927270Y-64916992D01*
X153897605Y-64907994D01*
X153870261Y-64893378D01*
X153846292Y-64873708D01*
X153826622Y-64849739D01*
X153812006Y-64822395D01*
X153803008Y-64792730D01*
X153799000Y-64752043D01*
X153799000Y-63837957D01*
X153803008Y-63797270D01*
X153812006Y-63767605D01*
X153826622Y-63740261D01*
X153846292Y-63716292D01*
X153870261Y-63696622D01*
X153897605Y-63682006D01*
X153927270Y-63673008D01*
X153967957Y-63669000D01*
X155132043Y-63669000D01*
X155172730Y-63673008D01*
G37*
G36*
X145672730Y-63673008D02*
G01*
X145702395Y-63682006D01*
X145729739Y-63696622D01*
X145753708Y-63716292D01*
X145773378Y-63740261D01*
X145787994Y-63767605D01*
X145796992Y-63797270D01*
X145801000Y-63837957D01*
X145801000Y-64752043D01*
X145796992Y-64792730D01*
X145787994Y-64822395D01*
X145773378Y-64849739D01*
X145753708Y-64873708D01*
X145729739Y-64893378D01*
X145702395Y-64907994D01*
X145672730Y-64916992D01*
X145632043Y-64921000D01*
X144467957Y-64921000D01*
X144427270Y-64916992D01*
X144397605Y-64907994D01*
X144370261Y-64893378D01*
X144346292Y-64873708D01*
X144326622Y-64849739D01*
X144312006Y-64822395D01*
X144303008Y-64792730D01*
X144299000Y-64752043D01*
X144299000Y-63837957D01*
X144303008Y-63797270D01*
X144312006Y-63767605D01*
X144326622Y-63740261D01*
X144346292Y-63716292D01*
X144370261Y-63696622D01*
X144397605Y-63682006D01*
X144427270Y-63673008D01*
X144467957Y-63669000D01*
X145632043Y-63669000D01*
X145672730Y-63673008D01*
G37*
G36*
X147922730Y-63673008D02*
G01*
X147952395Y-63682006D01*
X147979739Y-63696622D01*
X148003708Y-63716292D01*
X148023378Y-63740261D01*
X148037994Y-63767605D01*
X148046992Y-63797270D01*
X148051000Y-63837957D01*
X148051000Y-64752043D01*
X148046992Y-64792730D01*
X148037994Y-64822395D01*
X148023378Y-64849739D01*
X148003708Y-64873708D01*
X147979739Y-64893378D01*
X147952395Y-64907994D01*
X147922730Y-64916992D01*
X147882043Y-64921000D01*
X146717957Y-64921000D01*
X146677270Y-64916992D01*
X146647605Y-64907994D01*
X146620261Y-64893378D01*
X146596292Y-64873708D01*
X146576622Y-64849739D01*
X146562006Y-64822395D01*
X146553008Y-64792730D01*
X146549000Y-64752043D01*
X146549000Y-63837957D01*
X146553008Y-63797270D01*
X146562006Y-63767605D01*
X146576622Y-63740261D01*
X146596292Y-63716292D01*
X146620261Y-63696622D01*
X146647605Y-63682006D01*
X146677270Y-63673008D01*
X146717957Y-63669000D01*
X147882043Y-63669000D01*
X147922730Y-63673008D01*
G37*
G36*
X151971000Y-62160632D02*
G01*
X151974843Y-62199650D01*
X151986224Y-62237168D01*
X152004706Y-62271745D01*
X152029578Y-62302053D01*
X152034073Y-62306127D01*
X152036235Y-62308761D01*
X152036237Y-62308763D01*
X152042610Y-62316529D01*
X152047346Y-62325389D01*
X152050262Y-62335002D01*
X152051247Y-62345000D01*
X152051247Y-62345006D01*
X152052214Y-62354825D01*
X152052214Y-62542787D01*
X152056057Y-62581805D01*
X152067438Y-62619323D01*
X152085920Y-62653900D01*
X152110792Y-62684208D01*
X152141100Y-62709080D01*
X152175677Y-62727562D01*
X152213195Y-62738943D01*
X152252213Y-62742786D01*
X152490175Y-62742786D01*
X152499994Y-62743753D01*
X152500000Y-62743753D01*
X152509998Y-62744738D01*
X152519611Y-62747654D01*
X152528471Y-62752390D01*
X152536237Y-62758763D01*
X152542610Y-62766529D01*
X152547346Y-62775389D01*
X152550262Y-62785002D01*
X152551247Y-62795000D01*
X152551247Y-62795006D01*
X152552214Y-62804825D01*
X152552214Y-63035175D01*
X152551247Y-63044994D01*
X152551247Y-63045000D01*
X152550262Y-63054998D01*
X152547346Y-63064611D01*
X152544752Y-63069463D01*
X152541407Y-63075721D01*
X152526403Y-63111943D01*
X152518754Y-63150396D01*
X152518754Y-63189603D01*
X152526403Y-63228056D01*
X152541407Y-63264279D01*
X152542609Y-63266528D01*
X152542610Y-63266529D01*
X152547346Y-63275389D01*
X152550262Y-63285002D01*
X152551247Y-63295000D01*
X152551247Y-63295006D01*
X152552214Y-63304825D01*
X152552214Y-63535175D01*
X152551247Y-63544994D01*
X152551247Y-63545000D01*
X152550262Y-63554998D01*
X152547346Y-63564611D01*
X152542610Y-63573471D01*
X152536237Y-63581237D01*
X152528471Y-63587610D01*
X152519611Y-63592346D01*
X152509998Y-63595262D01*
X152500000Y-63596247D01*
X152499994Y-63596247D01*
X152490175Y-63597214D01*
X152252213Y-63597214D01*
X152213195Y-63601057D01*
X152175677Y-63612438D01*
X152141100Y-63630920D01*
X152110792Y-63655792D01*
X152085920Y-63686100D01*
X152067438Y-63720677D01*
X152056057Y-63758195D01*
X152052214Y-63797213D01*
X152052214Y-63985175D01*
X152051247Y-63994994D01*
X152051247Y-63995000D01*
X152050262Y-64004998D01*
X152047346Y-64014611D01*
X152042610Y-64023471D01*
X152036237Y-64031237D01*
X152036235Y-64031238D01*
X152029766Y-64039121D01*
X152016400Y-64052487D01*
X151994618Y-64085086D01*
X151979613Y-64121308D01*
X151971963Y-64159761D01*
X151971000Y-64179368D01*
X151971000Y-64921000D01*
X149629000Y-64921000D01*
X149629000Y-64179368D01*
X149625157Y-64140350D01*
X149613776Y-64102832D01*
X149595294Y-64068255D01*
X149570422Y-64037947D01*
X149565927Y-64033873D01*
X149563765Y-64031239D01*
X149563763Y-64031237D01*
X149557390Y-64023471D01*
X149552654Y-64014611D01*
X149549738Y-64004998D01*
X149548753Y-63995000D01*
X149548753Y-63994994D01*
X149547786Y-63985175D01*
X149547786Y-63797213D01*
X149543943Y-63758195D01*
X149532562Y-63720677D01*
X149514080Y-63686100D01*
X149489208Y-63655792D01*
X149458900Y-63630920D01*
X149424323Y-63612438D01*
X149386805Y-63601057D01*
X149347787Y-63597214D01*
X149109825Y-63597214D01*
X149100006Y-63596247D01*
X149100000Y-63596247D01*
X149090002Y-63595262D01*
X149080389Y-63592346D01*
X149071529Y-63587610D01*
X149063763Y-63581237D01*
X149057390Y-63573471D01*
X149052654Y-63564611D01*
X149049738Y-63554998D01*
X149048753Y-63545000D01*
X149048753Y-63544994D01*
X149047786Y-63535175D01*
X149047786Y-63304825D01*
X149048753Y-63295006D01*
X149048753Y-63295000D01*
X149049738Y-63285002D01*
X149052654Y-63275389D01*
X149057390Y-63266529D01*
X149057391Y-63266528D01*
X149058593Y-63264279D01*
X149073597Y-63228057D01*
X149081246Y-63189604D01*
X149081246Y-63150397D01*
X149073597Y-63111944D01*
X149058593Y-63075721D01*
X149055248Y-63069463D01*
X149052654Y-63064611D01*
X149049738Y-63054998D01*
X149048753Y-63045000D01*
X149048753Y-63044994D01*
X149047786Y-63035175D01*
X149047786Y-62804825D01*
X149048753Y-62795006D01*
X149048753Y-62795000D01*
X149049738Y-62785002D01*
X149052654Y-62775389D01*
X149057390Y-62766529D01*
X149063763Y-62758763D01*
X149071529Y-62752390D01*
X149080389Y-62747654D01*
X149090002Y-62744738D01*
X149100000Y-62743753D01*
X149100006Y-62743753D01*
X149109825Y-62742786D01*
X149347787Y-62742786D01*
X149386805Y-62738943D01*
X149424323Y-62727562D01*
X149458900Y-62709080D01*
X149489208Y-62684208D01*
X149514080Y-62653900D01*
X149532562Y-62619323D01*
X149543943Y-62581805D01*
X149547786Y-62542787D01*
X149547786Y-62354825D01*
X149548753Y-62345006D01*
X149548753Y-62345000D01*
X149549738Y-62335002D01*
X149552654Y-62325389D01*
X149557390Y-62316529D01*
X149563763Y-62308763D01*
X149563765Y-62308762D01*
X149570234Y-62300879D01*
X149583600Y-62287513D01*
X149605382Y-62254914D01*
X149620387Y-62218692D01*
X149628037Y-62180239D01*
X149629000Y-62160632D01*
X149629000Y-61419000D01*
X151971000Y-61419000D01*
X151971000Y-62160632D01*
G37*
G36*
X143422730Y-63673008D02*
G01*
X143452395Y-63682006D01*
X143479739Y-63696622D01*
X143503708Y-63716292D01*
X143523378Y-63740261D01*
X143537994Y-63767605D01*
X143546992Y-63797270D01*
X143551000Y-63837957D01*
X143551000Y-64752043D01*
X143546992Y-64792730D01*
X143537994Y-64822395D01*
X143523378Y-64849739D01*
X143503708Y-64873708D01*
X143479739Y-64893378D01*
X143452395Y-64907994D01*
X143422730Y-64916992D01*
X143382043Y-64921000D01*
X142217957Y-64921000D01*
X142177270Y-64916992D01*
X142147605Y-64907994D01*
X142120261Y-64893378D01*
X142096292Y-64873708D01*
X142076622Y-64849739D01*
X142062006Y-64822395D01*
X142053008Y-64792730D01*
X142049000Y-64752043D01*
X142049000Y-63837957D01*
X142053008Y-63797270D01*
X142062006Y-63767605D01*
X142076622Y-63740261D01*
X142096292Y-63716292D01*
X142120261Y-63696622D01*
X142147605Y-63682006D01*
X142177270Y-63673008D01*
X142217957Y-63669000D01*
X143382043Y-63669000D01*
X143422730Y-63673008D01*
G37*
G36*
X128322730Y-62023008D02*
G01*
X128352395Y-62032006D01*
X128379739Y-62046622D01*
X128403708Y-62066292D01*
X128423378Y-62090261D01*
X128437994Y-62117605D01*
X128446992Y-62147270D01*
X128451000Y-62187957D01*
X128451000Y-63352043D01*
X128446992Y-63392730D01*
X128437994Y-63422395D01*
X128423378Y-63449739D01*
X128403708Y-63473708D01*
X128379739Y-63493378D01*
X128352395Y-63507994D01*
X128322730Y-63516992D01*
X128282043Y-63521000D01*
X127367957Y-63521000D01*
X127327270Y-63516992D01*
X127297605Y-63507994D01*
X127270261Y-63493378D01*
X127246292Y-63473708D01*
X127226622Y-63449739D01*
X127212006Y-63422395D01*
X127203008Y-63392730D01*
X127199000Y-63352043D01*
X127199000Y-62187957D01*
X127203008Y-62147270D01*
X127212006Y-62117605D01*
X127226622Y-62090261D01*
X127246292Y-62066292D01*
X127270261Y-62046622D01*
X127297605Y-62032006D01*
X127327270Y-62023008D01*
X127367957Y-62019000D01*
X128282043Y-62019000D01*
X128322730Y-62023008D01*
G37*
G36*
X126272730Y-62023008D02*
G01*
X126302395Y-62032006D01*
X126329739Y-62046622D01*
X126353708Y-62066292D01*
X126373378Y-62090261D01*
X126387994Y-62117605D01*
X126396992Y-62147270D01*
X126401000Y-62187957D01*
X126401000Y-63352043D01*
X126396992Y-63392730D01*
X126387994Y-63422395D01*
X126373378Y-63449739D01*
X126353708Y-63473708D01*
X126329739Y-63493378D01*
X126302395Y-63507994D01*
X126272730Y-63516992D01*
X126232043Y-63521000D01*
X125317957Y-63521000D01*
X125277270Y-63516992D01*
X125247605Y-63507994D01*
X125220261Y-63493378D01*
X125196292Y-63473708D01*
X125176622Y-63449739D01*
X125162006Y-63422395D01*
X125153008Y-63392730D01*
X125149000Y-63352043D01*
X125149000Y-62187957D01*
X125153008Y-62147270D01*
X125162006Y-62117605D01*
X125176622Y-62090261D01*
X125196292Y-62066292D01*
X125220261Y-62046622D01*
X125247605Y-62032006D01*
X125277270Y-62023008D01*
X125317957Y-62019000D01*
X126232043Y-62019000D01*
X126272730Y-62023008D01*
G37*
G36*
X105672730Y-62123008D02*
G01*
X105702395Y-62132006D01*
X105729739Y-62146622D01*
X105753708Y-62166292D01*
X105773378Y-62190261D01*
X105787994Y-62217605D01*
X105796992Y-62247270D01*
X105801000Y-62287957D01*
X105801000Y-63202043D01*
X105796992Y-63242730D01*
X105787994Y-63272395D01*
X105773378Y-63299739D01*
X105753708Y-63323708D01*
X105729739Y-63343378D01*
X105702395Y-63357994D01*
X105672730Y-63366992D01*
X105632043Y-63371000D01*
X104467957Y-63371000D01*
X104427270Y-63366992D01*
X104397605Y-63357994D01*
X104370261Y-63343378D01*
X104346292Y-63323708D01*
X104326622Y-63299739D01*
X104312006Y-63272395D01*
X104303008Y-63242730D01*
X104299000Y-63202043D01*
X104299000Y-62287957D01*
X104303008Y-62247270D01*
X104312006Y-62217605D01*
X104326622Y-62190261D01*
X104346292Y-62166292D01*
X104370261Y-62146622D01*
X104397605Y-62132006D01*
X104427270Y-62123008D01*
X104467957Y-62119000D01*
X105632043Y-62119000D01*
X105672730Y-62123008D01*
G37*
G36*
X103422730Y-62123008D02*
G01*
X103452395Y-62132006D01*
X103479739Y-62146622D01*
X103503708Y-62166292D01*
X103523378Y-62190261D01*
X103537994Y-62217605D01*
X103546992Y-62247270D01*
X103551000Y-62287957D01*
X103551000Y-63202043D01*
X103546992Y-63242730D01*
X103537994Y-63272395D01*
X103523378Y-63299739D01*
X103503708Y-63323708D01*
X103479739Y-63343378D01*
X103452395Y-63357994D01*
X103422730Y-63366992D01*
X103382043Y-63371000D01*
X102217957Y-63371000D01*
X102177270Y-63366992D01*
X102147605Y-63357994D01*
X102120261Y-63343378D01*
X102096292Y-63323708D01*
X102076622Y-63299739D01*
X102062006Y-63272395D01*
X102053008Y-63242730D01*
X102049000Y-63202043D01*
X102049000Y-62287957D01*
X102053008Y-62247270D01*
X102062006Y-62217605D01*
X102076622Y-62190261D01*
X102096292Y-62166292D01*
X102120261Y-62146622D01*
X102147605Y-62132006D01*
X102177270Y-62123008D01*
X102217957Y-62119000D01*
X103382043Y-62119000D01*
X103422730Y-62123008D01*
G37*
G36*
X112172730Y-62123008D02*
G01*
X112202395Y-62132006D01*
X112229739Y-62146622D01*
X112253708Y-62166292D01*
X112273378Y-62190261D01*
X112287994Y-62217605D01*
X112296992Y-62247270D01*
X112301000Y-62287957D01*
X112301000Y-63202043D01*
X112296992Y-63242730D01*
X112287994Y-63272395D01*
X112273378Y-63299739D01*
X112253708Y-63323708D01*
X112229739Y-63343378D01*
X112202395Y-63357994D01*
X112172730Y-63366992D01*
X112132043Y-63371000D01*
X110967957Y-63371000D01*
X110927270Y-63366992D01*
X110897605Y-63357994D01*
X110870261Y-63343378D01*
X110846292Y-63323708D01*
X110826622Y-63299739D01*
X110812006Y-63272395D01*
X110803008Y-63242730D01*
X110799000Y-63202043D01*
X110799000Y-62287957D01*
X110803008Y-62247270D01*
X110812006Y-62217605D01*
X110826622Y-62190261D01*
X110846292Y-62166292D01*
X110870261Y-62146622D01*
X110897605Y-62132006D01*
X110927270Y-62123008D01*
X110967957Y-62119000D01*
X112132043Y-62119000D01*
X112172730Y-62123008D01*
G37*
G36*
X147922730Y-61623008D02*
G01*
X147952395Y-61632006D01*
X147979739Y-61646622D01*
X148003708Y-61666292D01*
X148023378Y-61690261D01*
X148037994Y-61717605D01*
X148046992Y-61747270D01*
X148051000Y-61787957D01*
X148051000Y-62702043D01*
X148046992Y-62742730D01*
X148037994Y-62772395D01*
X148023378Y-62799739D01*
X148003708Y-62823708D01*
X147979739Y-62843378D01*
X147952395Y-62857994D01*
X147922730Y-62866992D01*
X147882043Y-62871000D01*
X146717957Y-62871000D01*
X146677270Y-62866992D01*
X146647605Y-62857994D01*
X146620261Y-62843378D01*
X146596292Y-62823708D01*
X146576622Y-62799739D01*
X146562006Y-62772395D01*
X146553008Y-62742730D01*
X146549000Y-62702043D01*
X146549000Y-61787957D01*
X146553008Y-61747270D01*
X146562006Y-61717605D01*
X146576622Y-61690261D01*
X146596292Y-61666292D01*
X146620261Y-61646622D01*
X146647605Y-61632006D01*
X146677270Y-61623008D01*
X146717957Y-61619000D01*
X147882043Y-61619000D01*
X147922730Y-61623008D01*
G37*
G36*
X145672730Y-61623008D02*
G01*
X145702395Y-61632006D01*
X145729739Y-61646622D01*
X145753708Y-61666292D01*
X145773378Y-61690261D01*
X145787994Y-61717605D01*
X145796992Y-61747270D01*
X145801000Y-61787957D01*
X145801000Y-62702043D01*
X145796992Y-62742730D01*
X145787994Y-62772395D01*
X145773378Y-62799739D01*
X145753708Y-62823708D01*
X145729739Y-62843378D01*
X145702395Y-62857994D01*
X145672730Y-62866992D01*
X145632043Y-62871000D01*
X144467957Y-62871000D01*
X144427270Y-62866992D01*
X144397605Y-62857994D01*
X144370261Y-62843378D01*
X144346292Y-62823708D01*
X144326622Y-62799739D01*
X144312006Y-62772395D01*
X144303008Y-62742730D01*
X144299000Y-62702043D01*
X144299000Y-61787957D01*
X144303008Y-61747270D01*
X144312006Y-61717605D01*
X144326622Y-61690261D01*
X144346292Y-61666292D01*
X144370261Y-61646622D01*
X144397605Y-61632006D01*
X144427270Y-61623008D01*
X144467957Y-61619000D01*
X145632043Y-61619000D01*
X145672730Y-61623008D01*
G37*
G36*
X143422730Y-61623008D02*
G01*
X143452395Y-61632006D01*
X143479739Y-61646622D01*
X143503708Y-61666292D01*
X143523378Y-61690261D01*
X143537994Y-61717605D01*
X143546992Y-61747270D01*
X143551000Y-61787957D01*
X143551000Y-62702043D01*
X143546992Y-62742730D01*
X143537994Y-62772395D01*
X143523378Y-62799739D01*
X143503708Y-62823708D01*
X143479739Y-62843378D01*
X143452395Y-62857994D01*
X143422730Y-62866992D01*
X143382043Y-62871000D01*
X142217957Y-62871000D01*
X142177270Y-62866992D01*
X142147605Y-62857994D01*
X142120261Y-62843378D01*
X142096292Y-62823708D01*
X142076622Y-62799739D01*
X142062006Y-62772395D01*
X142053008Y-62742730D01*
X142049000Y-62702043D01*
X142049000Y-61787957D01*
X142053008Y-61747270D01*
X142062006Y-61717605D01*
X142076622Y-61690261D01*
X142096292Y-61666292D01*
X142120261Y-61646622D01*
X142147605Y-61632006D01*
X142177270Y-61623008D01*
X142217957Y-61619000D01*
X143382043Y-61619000D01*
X143422730Y-61623008D01*
G37*
G36*
X155172730Y-61623008D02*
G01*
X155202395Y-61632006D01*
X155229739Y-61646622D01*
X155253708Y-61666292D01*
X155273378Y-61690261D01*
X155287994Y-61717605D01*
X155296992Y-61747270D01*
X155301000Y-61787957D01*
X155301000Y-62702043D01*
X155296992Y-62742730D01*
X155287994Y-62772395D01*
X155273378Y-62799739D01*
X155253708Y-62823708D01*
X155229739Y-62843378D01*
X155202395Y-62857994D01*
X155172730Y-62866992D01*
X155132043Y-62871000D01*
X153967957Y-62871000D01*
X153927270Y-62866992D01*
X153897605Y-62857994D01*
X153870261Y-62843378D01*
X153846292Y-62823708D01*
X153826622Y-62799739D01*
X153812006Y-62772395D01*
X153803008Y-62742730D01*
X153799000Y-62702043D01*
X153799000Y-61787957D01*
X153803008Y-61747270D01*
X153812006Y-61717605D01*
X153826622Y-61690261D01*
X153846292Y-61666292D01*
X153870261Y-61646622D01*
X153897605Y-61632006D01*
X153927270Y-61623008D01*
X153967957Y-61619000D01*
X155132043Y-61619000D01*
X155172730Y-61623008D01*
G37*
G36*
X157422730Y-61623008D02*
G01*
X157452395Y-61632006D01*
X157479739Y-61646622D01*
X157503708Y-61666292D01*
X157523378Y-61690261D01*
X157537994Y-61717605D01*
X157546992Y-61747270D01*
X157551000Y-61787957D01*
X157551000Y-62702043D01*
X157546992Y-62742730D01*
X157537994Y-62772395D01*
X157523378Y-62799739D01*
X157503708Y-62823708D01*
X157479739Y-62843378D01*
X157452395Y-62857994D01*
X157422730Y-62866992D01*
X157382043Y-62871000D01*
X156217957Y-62871000D01*
X156177270Y-62866992D01*
X156147605Y-62857994D01*
X156120261Y-62843378D01*
X156096292Y-62823708D01*
X156076622Y-62799739D01*
X156062006Y-62772395D01*
X156053008Y-62742730D01*
X156049000Y-62702043D01*
X156049000Y-61787957D01*
X156053008Y-61747270D01*
X156062006Y-61717605D01*
X156076622Y-61690261D01*
X156096292Y-61666292D01*
X156120261Y-61646622D01*
X156147605Y-61632006D01*
X156177270Y-61623008D01*
X156217957Y-61619000D01*
X157382043Y-61619000D01*
X157422730Y-61623008D01*
G37*
G36*
X159672730Y-61623008D02*
G01*
X159702395Y-61632006D01*
X159729739Y-61646622D01*
X159753708Y-61666292D01*
X159773378Y-61690261D01*
X159787994Y-61717605D01*
X159796992Y-61747270D01*
X159801000Y-61787957D01*
X159801000Y-62702043D01*
X159796992Y-62742730D01*
X159787994Y-62772395D01*
X159773378Y-62799739D01*
X159753708Y-62823708D01*
X159729739Y-62843378D01*
X159702395Y-62857994D01*
X159672730Y-62866992D01*
X159632043Y-62871000D01*
X158467957Y-62871000D01*
X158427270Y-62866992D01*
X158397605Y-62857994D01*
X158370261Y-62843378D01*
X158346292Y-62823708D01*
X158326622Y-62799739D01*
X158312006Y-62772395D01*
X158303008Y-62742730D01*
X158299000Y-62702043D01*
X158299000Y-61787957D01*
X158303008Y-61747270D01*
X158312006Y-61717605D01*
X158326622Y-61690261D01*
X158346292Y-61666292D01*
X158370261Y-61646622D01*
X158397605Y-61632006D01*
X158427270Y-61623008D01*
X158467957Y-61619000D01*
X159632043Y-61619000D01*
X159672730Y-61623008D01*
G37*
G36*
X162930035Y-60714079D02*
G01*
X163109482Y-60749773D01*
X163302572Y-60829754D01*
X163476348Y-60945867D01*
X163624133Y-61093652D01*
X163740246Y-61267428D01*
X163820227Y-61460518D01*
X163861000Y-61665501D01*
X163861000Y-61874499D01*
X163820227Y-62079482D01*
X163740246Y-62272572D01*
X163624133Y-62446348D01*
X163476348Y-62594133D01*
X163302572Y-62710246D01*
X163109482Y-62790227D01*
X162941159Y-62823708D01*
X162904500Y-62831000D01*
X162695500Y-62831000D01*
X162658841Y-62823708D01*
X162490518Y-62790227D01*
X162297428Y-62710246D01*
X162123652Y-62594133D01*
X161975867Y-62446348D01*
X161859754Y-62272572D01*
X161779773Y-62079482D01*
X161739000Y-61874499D01*
X161739000Y-61665501D01*
X161779773Y-61460518D01*
X161859754Y-61267428D01*
X161975867Y-61093652D01*
X162123652Y-60945867D01*
X162297428Y-60829754D01*
X162490518Y-60749773D01*
X162669965Y-60714079D01*
X162695500Y-60709000D01*
X162904500Y-60709000D01*
X162930035Y-60714079D01*
G37*
G36*
X128322730Y-59773008D02*
G01*
X128352395Y-59782006D01*
X128379739Y-59796622D01*
X128403708Y-59816292D01*
X128423378Y-59840261D01*
X128437994Y-59867605D01*
X128446992Y-59897270D01*
X128451000Y-59937957D01*
X128451000Y-61102043D01*
X128446992Y-61142730D01*
X128437994Y-61172395D01*
X128423378Y-61199739D01*
X128403708Y-61223708D01*
X128379739Y-61243378D01*
X128352395Y-61257994D01*
X128322730Y-61266992D01*
X128282043Y-61271000D01*
X127367957Y-61271000D01*
X127327270Y-61266992D01*
X127297605Y-61257994D01*
X127270261Y-61243378D01*
X127246292Y-61223708D01*
X127226622Y-61199739D01*
X127212006Y-61172395D01*
X127203008Y-61142730D01*
X127199000Y-61102043D01*
X127199000Y-59937957D01*
X127203008Y-59897270D01*
X127212006Y-59867605D01*
X127226622Y-59840261D01*
X127246292Y-59816292D01*
X127270261Y-59796622D01*
X127297605Y-59782006D01*
X127327270Y-59773008D01*
X127367957Y-59769000D01*
X128282043Y-59769000D01*
X128322730Y-59773008D01*
G37*
G36*
X126272730Y-59773008D02*
G01*
X126302395Y-59782006D01*
X126329739Y-59796622D01*
X126353708Y-59816292D01*
X126373378Y-59840261D01*
X126387994Y-59867605D01*
X126396992Y-59897270D01*
X126401000Y-59937957D01*
X126401000Y-61102043D01*
X126396992Y-61142730D01*
X126387994Y-61172395D01*
X126373378Y-61199739D01*
X126353708Y-61223708D01*
X126329739Y-61243378D01*
X126302395Y-61257994D01*
X126272730Y-61266992D01*
X126232043Y-61271000D01*
X125317957Y-61271000D01*
X125277270Y-61266992D01*
X125247605Y-61257994D01*
X125220261Y-61243378D01*
X125196292Y-61223708D01*
X125176622Y-61199739D01*
X125162006Y-61172395D01*
X125153008Y-61142730D01*
X125149000Y-61102043D01*
X125149000Y-59937957D01*
X125153008Y-59897270D01*
X125162006Y-59867605D01*
X125176622Y-59840261D01*
X125196292Y-59816292D01*
X125220261Y-59796622D01*
X125247605Y-59782006D01*
X125277270Y-59773008D01*
X125317957Y-59769000D01*
X126232043Y-59769000D01*
X126272730Y-59773008D01*
G37*
G36*
X109922730Y-59698008D02*
G01*
X109952395Y-59707006D01*
X109979739Y-59721622D01*
X110003708Y-59741292D01*
X110023378Y-59765261D01*
X110037994Y-59792605D01*
X110046992Y-59822270D01*
X110051000Y-59862957D01*
X110051000Y-60777043D01*
X110046992Y-60817730D01*
X110037994Y-60847395D01*
X110023378Y-60874739D01*
X110003708Y-60898708D01*
X109979739Y-60918378D01*
X109952395Y-60932994D01*
X109922730Y-60941992D01*
X109882043Y-60946000D01*
X108717957Y-60946000D01*
X108677270Y-60941992D01*
X108647605Y-60932994D01*
X108620261Y-60918378D01*
X108596292Y-60898708D01*
X108576622Y-60874739D01*
X108562006Y-60847395D01*
X108553008Y-60817730D01*
X108549000Y-60777043D01*
X108549000Y-59862957D01*
X108553008Y-59822270D01*
X108562006Y-59792605D01*
X108576622Y-59765261D01*
X108596292Y-59741292D01*
X108620261Y-59721622D01*
X108647605Y-59707006D01*
X108677270Y-59698008D01*
X108717957Y-59694000D01*
X109882043Y-59694000D01*
X109922730Y-59698008D01*
G37*
G36*
X107672730Y-59673008D02*
G01*
X107702395Y-59682006D01*
X107729739Y-59696622D01*
X107753708Y-59716292D01*
X107773378Y-59740261D01*
X107787994Y-59767605D01*
X107796992Y-59797270D01*
X107801000Y-59837957D01*
X107801000Y-60752043D01*
X107796992Y-60792730D01*
X107787994Y-60822395D01*
X107773378Y-60849739D01*
X107753708Y-60873708D01*
X107729739Y-60893378D01*
X107702395Y-60907994D01*
X107672730Y-60916992D01*
X107632043Y-60921000D01*
X106467957Y-60921000D01*
X106427270Y-60916992D01*
X106397605Y-60907994D01*
X106370261Y-60893378D01*
X106346292Y-60873708D01*
X106326622Y-60849739D01*
X106312006Y-60822395D01*
X106303008Y-60792730D01*
X106299000Y-60752043D01*
X106299000Y-59837957D01*
X106303008Y-59797270D01*
X106312006Y-59767605D01*
X106326622Y-59740261D01*
X106346292Y-59716292D01*
X106370261Y-59696622D01*
X106397605Y-59682006D01*
X106427270Y-59673008D01*
X106467957Y-59669000D01*
X107632043Y-59669000D01*
X107672730Y-59673008D01*
G37*
G36*
X105422730Y-59673008D02*
G01*
X105452395Y-59682006D01*
X105479739Y-59696622D01*
X105503708Y-59716292D01*
X105523378Y-59740261D01*
X105537994Y-59767605D01*
X105546992Y-59797270D01*
X105551000Y-59837957D01*
X105551000Y-60752043D01*
X105546992Y-60792730D01*
X105537994Y-60822395D01*
X105523378Y-60849739D01*
X105503708Y-60873708D01*
X105479739Y-60893378D01*
X105452395Y-60907994D01*
X105422730Y-60916992D01*
X105382043Y-60921000D01*
X104217957Y-60921000D01*
X104177270Y-60916992D01*
X104147605Y-60907994D01*
X104120261Y-60893378D01*
X104096292Y-60873708D01*
X104076622Y-60849739D01*
X104062006Y-60822395D01*
X104053008Y-60792730D01*
X104049000Y-60752043D01*
X104049000Y-59837957D01*
X104053008Y-59797270D01*
X104062006Y-59767605D01*
X104076622Y-59740261D01*
X104096292Y-59716292D01*
X104120261Y-59696622D01*
X104147605Y-59682006D01*
X104177270Y-59673008D01*
X104217957Y-59669000D01*
X105382043Y-59669000D01*
X105422730Y-59673008D01*
G37*
G36*
X148422730Y-59173008D02*
G01*
X148452395Y-59182006D01*
X148479739Y-59196622D01*
X148503708Y-59216292D01*
X148523378Y-59240261D01*
X148537994Y-59267605D01*
X148546992Y-59297270D01*
X148551000Y-59337957D01*
X148551000Y-60252043D01*
X148546992Y-60292730D01*
X148537994Y-60322395D01*
X148523378Y-60349739D01*
X148503708Y-60373708D01*
X148479739Y-60393378D01*
X148452395Y-60407994D01*
X148422730Y-60416992D01*
X148382043Y-60421000D01*
X147217957Y-60421000D01*
X147177270Y-60416992D01*
X147147605Y-60407994D01*
X147120261Y-60393378D01*
X147096292Y-60373708D01*
X147076622Y-60349739D01*
X147062006Y-60322395D01*
X147053008Y-60292730D01*
X147049000Y-60252043D01*
X147049000Y-59337957D01*
X147053008Y-59297270D01*
X147062006Y-59267605D01*
X147076622Y-59240261D01*
X147096292Y-59216292D01*
X147120261Y-59196622D01*
X147147605Y-59182006D01*
X147177270Y-59173008D01*
X147217957Y-59169000D01*
X148382043Y-59169000D01*
X148422730Y-59173008D01*
G37*
G36*
X150672730Y-59173008D02*
G01*
X150702395Y-59182006D01*
X150729739Y-59196622D01*
X150753708Y-59216292D01*
X150773378Y-59240261D01*
X150787994Y-59267605D01*
X150796992Y-59297270D01*
X150801000Y-59337957D01*
X150801000Y-60252043D01*
X150796992Y-60292730D01*
X150787994Y-60322395D01*
X150773378Y-60349739D01*
X150753708Y-60373708D01*
X150729739Y-60393378D01*
X150702395Y-60407994D01*
X150672730Y-60416992D01*
X150632043Y-60421000D01*
X149467957Y-60421000D01*
X149427270Y-60416992D01*
X149397605Y-60407994D01*
X149370261Y-60393378D01*
X149346292Y-60373708D01*
X149326622Y-60349739D01*
X149312006Y-60322395D01*
X149303008Y-60292730D01*
X149299000Y-60252043D01*
X149299000Y-59337957D01*
X149303008Y-59297270D01*
X149312006Y-59267605D01*
X149326622Y-59240261D01*
X149346292Y-59216292D01*
X149370261Y-59196622D01*
X149397605Y-59182006D01*
X149427270Y-59173008D01*
X149467957Y-59169000D01*
X150632043Y-59169000D01*
X150672730Y-59173008D01*
G37*
G36*
X152922730Y-59173008D02*
G01*
X152952395Y-59182006D01*
X152979739Y-59196622D01*
X153003708Y-59216292D01*
X153023378Y-59240261D01*
X153037994Y-59267605D01*
X153046992Y-59297270D01*
X153051000Y-59337957D01*
X153051000Y-60252043D01*
X153046992Y-60292730D01*
X153037994Y-60322395D01*
X153023378Y-60349739D01*
X153003708Y-60373708D01*
X152979739Y-60393378D01*
X152952395Y-60407994D01*
X152922730Y-60416992D01*
X152882043Y-60421000D01*
X151717957Y-60421000D01*
X151677270Y-60416992D01*
X151647605Y-60407994D01*
X151620261Y-60393378D01*
X151596292Y-60373708D01*
X151576622Y-60349739D01*
X151562006Y-60322395D01*
X151553008Y-60292730D01*
X151549000Y-60252043D01*
X151549000Y-59337957D01*
X151553008Y-59297270D01*
X151562006Y-59267605D01*
X151576622Y-59240261D01*
X151596292Y-59216292D01*
X151620261Y-59196622D01*
X151647605Y-59182006D01*
X151677270Y-59173008D01*
X151717957Y-59169000D01*
X152882043Y-59169000D01*
X152922730Y-59173008D01*
G37*
G36*
X146172730Y-59173008D02*
G01*
X146202395Y-59182006D01*
X146229739Y-59196622D01*
X146253708Y-59216292D01*
X146273378Y-59240261D01*
X146287994Y-59267605D01*
X146296992Y-59297270D01*
X146301000Y-59337957D01*
X146301000Y-60252043D01*
X146296992Y-60292730D01*
X146287994Y-60322395D01*
X146273378Y-60349739D01*
X146253708Y-60373708D01*
X146229739Y-60393378D01*
X146202395Y-60407994D01*
X146172730Y-60416992D01*
X146132043Y-60421000D01*
X144967957Y-60421000D01*
X144927270Y-60416992D01*
X144897605Y-60407994D01*
X144870261Y-60393378D01*
X144846292Y-60373708D01*
X144826622Y-60349739D01*
X144812006Y-60322395D01*
X144803008Y-60292730D01*
X144799000Y-60252043D01*
X144799000Y-59337957D01*
X144803008Y-59297270D01*
X144812006Y-59267605D01*
X144826622Y-59240261D01*
X144846292Y-59216292D01*
X144870261Y-59196622D01*
X144897605Y-59182006D01*
X144927270Y-59173008D01*
X144967957Y-59169000D01*
X146132043Y-59169000D01*
X146172730Y-59173008D01*
G37*
G36*
X134226000Y-59396000D02*
G01*
X129874000Y-59396000D01*
X129874000Y-57894000D01*
X134226000Y-57894000D01*
X134226000Y-59396000D01*
G37*
G36*
X162930035Y-57214079D02*
G01*
X163109482Y-57249773D01*
X163302572Y-57329754D01*
X163476348Y-57445867D01*
X163624133Y-57593652D01*
X163740246Y-57767428D01*
X163820227Y-57960518D01*
X163861000Y-58165501D01*
X163861000Y-58374499D01*
X163820227Y-58579482D01*
X163740246Y-58772572D01*
X163624133Y-58946348D01*
X163476348Y-59094133D01*
X163302572Y-59210246D01*
X163109482Y-59290227D01*
X162930035Y-59325921D01*
X162904500Y-59331000D01*
X162695500Y-59331000D01*
X162669965Y-59325921D01*
X162490518Y-59290227D01*
X162297428Y-59210246D01*
X162123652Y-59094133D01*
X161975867Y-58946348D01*
X161859754Y-58772572D01*
X161779773Y-58579482D01*
X161739000Y-58374499D01*
X161739000Y-58165501D01*
X161779773Y-57960518D01*
X161859754Y-57767428D01*
X161975867Y-57593652D01*
X162123652Y-57445867D01*
X162297428Y-57329754D01*
X162490518Y-57249773D01*
X162669965Y-57214079D01*
X162695500Y-57209000D01*
X162904500Y-57209000D01*
X162930035Y-57214079D01*
G37*
G36*
X109922730Y-57648008D02*
G01*
X109952395Y-57657006D01*
X109979739Y-57671622D01*
X110003708Y-57691292D01*
X110023378Y-57715261D01*
X110037994Y-57742605D01*
X110046992Y-57772270D01*
X110051000Y-57812957D01*
X110051000Y-58727043D01*
X110046992Y-58767730D01*
X110037994Y-58797395D01*
X110023378Y-58824739D01*
X110003708Y-58848708D01*
X109979739Y-58868378D01*
X109952395Y-58882994D01*
X109922730Y-58891992D01*
X109882043Y-58896000D01*
X108717957Y-58896000D01*
X108677270Y-58891992D01*
X108647605Y-58882994D01*
X108620261Y-58868378D01*
X108596292Y-58848708D01*
X108576622Y-58824739D01*
X108562006Y-58797395D01*
X108553008Y-58767730D01*
X108549000Y-58727043D01*
X108549000Y-57812957D01*
X108553008Y-57772270D01*
X108562006Y-57742605D01*
X108576622Y-57715261D01*
X108596292Y-57691292D01*
X108620261Y-57671622D01*
X108647605Y-57657006D01*
X108677270Y-57648008D01*
X108717957Y-57644000D01*
X109882043Y-57644000D01*
X109922730Y-57648008D01*
G37*
G36*
X105422730Y-57623008D02*
G01*
X105452395Y-57632006D01*
X105479739Y-57646622D01*
X105503708Y-57666292D01*
X105523378Y-57690261D01*
X105537994Y-57717605D01*
X105546992Y-57747270D01*
X105551000Y-57787957D01*
X105551000Y-58702043D01*
X105546992Y-58742730D01*
X105537994Y-58772395D01*
X105523378Y-58799739D01*
X105503708Y-58823708D01*
X105479739Y-58843378D01*
X105452395Y-58857994D01*
X105422730Y-58866992D01*
X105382043Y-58871000D01*
X104217957Y-58871000D01*
X104177270Y-58866992D01*
X104147605Y-58857994D01*
X104120261Y-58843378D01*
X104096292Y-58823708D01*
X104076622Y-58799739D01*
X104062006Y-58772395D01*
X104053008Y-58742730D01*
X104049000Y-58702043D01*
X104049000Y-57787957D01*
X104053008Y-57747270D01*
X104062006Y-57717605D01*
X104076622Y-57690261D01*
X104096292Y-57666292D01*
X104120261Y-57646622D01*
X104147605Y-57632006D01*
X104177270Y-57623008D01*
X104217957Y-57619000D01*
X105382043Y-57619000D01*
X105422730Y-57623008D01*
G37*
G36*
X107672730Y-57623008D02*
G01*
X107702395Y-57632006D01*
X107729739Y-57646622D01*
X107753708Y-57666292D01*
X107773378Y-57690261D01*
X107787994Y-57717605D01*
X107796992Y-57747270D01*
X107801000Y-57787957D01*
X107801000Y-58702043D01*
X107796992Y-58742730D01*
X107787994Y-58772395D01*
X107773378Y-58799739D01*
X107753708Y-58823708D01*
X107729739Y-58843378D01*
X107702395Y-58857994D01*
X107672730Y-58866992D01*
X107632043Y-58871000D01*
X106467957Y-58871000D01*
X106427270Y-58866992D01*
X106397605Y-58857994D01*
X106370261Y-58843378D01*
X106346292Y-58823708D01*
X106326622Y-58799739D01*
X106312006Y-58772395D01*
X106303008Y-58742730D01*
X106299000Y-58702043D01*
X106299000Y-57787957D01*
X106303008Y-57747270D01*
X106312006Y-57717605D01*
X106326622Y-57690261D01*
X106346292Y-57666292D01*
X106370261Y-57646622D01*
X106397605Y-57632006D01*
X106427270Y-57623008D01*
X106467957Y-57619000D01*
X107632043Y-57619000D01*
X107672730Y-57623008D01*
G37*
G36*
X146172730Y-57123008D02*
G01*
X146202395Y-57132006D01*
X146229739Y-57146622D01*
X146253708Y-57166292D01*
X146273378Y-57190261D01*
X146287994Y-57217605D01*
X146296992Y-57247270D01*
X146301000Y-57287957D01*
X146301000Y-58202043D01*
X146296992Y-58242730D01*
X146287994Y-58272395D01*
X146273378Y-58299739D01*
X146253708Y-58323708D01*
X146229739Y-58343378D01*
X146202395Y-58357994D01*
X146172730Y-58366992D01*
X146132043Y-58371000D01*
X144967957Y-58371000D01*
X144927270Y-58366992D01*
X144897605Y-58357994D01*
X144870261Y-58343378D01*
X144846292Y-58323708D01*
X144826622Y-58299739D01*
X144812006Y-58272395D01*
X144803008Y-58242730D01*
X144799000Y-58202043D01*
X144799000Y-57287957D01*
X144803008Y-57247270D01*
X144812006Y-57217605D01*
X144826622Y-57190261D01*
X144846292Y-57166292D01*
X144870261Y-57146622D01*
X144897605Y-57132006D01*
X144927270Y-57123008D01*
X144967957Y-57119000D01*
X146132043Y-57119000D01*
X146172730Y-57123008D01*
G37*
G36*
X148422730Y-57123008D02*
G01*
X148452395Y-57132006D01*
X148479739Y-57146622D01*
X148503708Y-57166292D01*
X148523378Y-57190261D01*
X148537994Y-57217605D01*
X148546992Y-57247270D01*
X148551000Y-57287957D01*
X148551000Y-58202043D01*
X148546992Y-58242730D01*
X148537994Y-58272395D01*
X148523378Y-58299739D01*
X148503708Y-58323708D01*
X148479739Y-58343378D01*
X148452395Y-58357994D01*
X148422730Y-58366992D01*
X148382043Y-58371000D01*
X147217957Y-58371000D01*
X147177270Y-58366992D01*
X147147605Y-58357994D01*
X147120261Y-58343378D01*
X147096292Y-58323708D01*
X147076622Y-58299739D01*
X147062006Y-58272395D01*
X147053008Y-58242730D01*
X147049000Y-58202043D01*
X147049000Y-57287957D01*
X147053008Y-57247270D01*
X147062006Y-57217605D01*
X147076622Y-57190261D01*
X147096292Y-57166292D01*
X147120261Y-57146622D01*
X147147605Y-57132006D01*
X147177270Y-57123008D01*
X147217957Y-57119000D01*
X148382043Y-57119000D01*
X148422730Y-57123008D01*
G37*
G36*
X150672730Y-57123008D02*
G01*
X150702395Y-57132006D01*
X150729739Y-57146622D01*
X150753708Y-57166292D01*
X150773378Y-57190261D01*
X150787994Y-57217605D01*
X150796992Y-57247270D01*
X150801000Y-57287957D01*
X150801000Y-58202043D01*
X150796992Y-58242730D01*
X150787994Y-58272395D01*
X150773378Y-58299739D01*
X150753708Y-58323708D01*
X150729739Y-58343378D01*
X150702395Y-58357994D01*
X150672730Y-58366992D01*
X150632043Y-58371000D01*
X149467957Y-58371000D01*
X149427270Y-58366992D01*
X149397605Y-58357994D01*
X149370261Y-58343378D01*
X149346292Y-58323708D01*
X149326622Y-58299739D01*
X149312006Y-58272395D01*
X149303008Y-58242730D01*
X149299000Y-58202043D01*
X149299000Y-57287957D01*
X149303008Y-57247270D01*
X149312006Y-57217605D01*
X149326622Y-57190261D01*
X149346292Y-57166292D01*
X149370261Y-57146622D01*
X149397605Y-57132006D01*
X149427270Y-57123008D01*
X149467957Y-57119000D01*
X150632043Y-57119000D01*
X150672730Y-57123008D01*
G37*
G36*
X152922730Y-57123008D02*
G01*
X152952395Y-57132006D01*
X152979739Y-57146622D01*
X153003708Y-57166292D01*
X153023378Y-57190261D01*
X153037994Y-57217605D01*
X153046992Y-57247270D01*
X153051000Y-57287957D01*
X153051000Y-58202043D01*
X153046992Y-58242730D01*
X153037994Y-58272395D01*
X153023378Y-58299739D01*
X153003708Y-58323708D01*
X152979739Y-58343378D01*
X152952395Y-58357994D01*
X152922730Y-58366992D01*
X152882043Y-58371000D01*
X151717957Y-58371000D01*
X151677270Y-58366992D01*
X151647605Y-58357994D01*
X151620261Y-58343378D01*
X151596292Y-58323708D01*
X151576622Y-58299739D01*
X151562006Y-58272395D01*
X151553008Y-58242730D01*
X151549000Y-58202043D01*
X151549000Y-57287957D01*
X151553008Y-57247270D01*
X151562006Y-57217605D01*
X151576622Y-57190261D01*
X151596292Y-57166292D01*
X151620261Y-57146622D01*
X151647605Y-57132006D01*
X151677270Y-57123008D01*
X151717957Y-57119000D01*
X152882043Y-57119000D01*
X152922730Y-57123008D01*
G37*
G36*
X162930035Y-53714079D02*
G01*
X163109482Y-53749773D01*
X163302572Y-53829754D01*
X163476348Y-53945867D01*
X163624133Y-54093652D01*
X163740246Y-54267428D01*
X163820227Y-54460518D01*
X163861000Y-54665501D01*
X163861000Y-54874499D01*
X163820227Y-55079482D01*
X163740246Y-55272572D01*
X163624133Y-55446348D01*
X163476348Y-55594133D01*
X163302572Y-55710246D01*
X163109482Y-55790227D01*
X162930035Y-55825921D01*
X162904500Y-55831000D01*
X162695500Y-55831000D01*
X162669965Y-55825921D01*
X162490518Y-55790227D01*
X162297428Y-55710246D01*
X162123652Y-55594133D01*
X161975867Y-55446348D01*
X161859754Y-55272572D01*
X161779773Y-55079482D01*
X161739000Y-54874499D01*
X161739000Y-54665501D01*
X161779773Y-54460518D01*
X161859754Y-54267428D01*
X161975867Y-54093652D01*
X162123652Y-53945867D01*
X162297428Y-53829754D01*
X162490518Y-53749773D01*
X162669965Y-53714079D01*
X162695500Y-53709000D01*
X162904500Y-53709000D01*
X162930035Y-53714079D01*
G37*
G36*
X118922730Y-52423008D02*
G01*
X118952395Y-52432006D01*
X118979739Y-52446622D01*
X119003708Y-52466292D01*
X119023378Y-52490261D01*
X119037994Y-52517605D01*
X119046992Y-52547270D01*
X119051000Y-52587957D01*
X119051000Y-53502043D01*
X119046992Y-53542730D01*
X119037994Y-53572395D01*
X119023378Y-53599739D01*
X119003708Y-53623708D01*
X118979739Y-53643378D01*
X118952395Y-53657994D01*
X118922730Y-53666992D01*
X118882043Y-53671000D01*
X117717957Y-53671000D01*
X117677270Y-53666992D01*
X117647605Y-53657994D01*
X117620261Y-53643378D01*
X117596292Y-53623708D01*
X117576622Y-53599739D01*
X117562006Y-53572395D01*
X117553008Y-53542730D01*
X117549000Y-53502043D01*
X117549000Y-52587957D01*
X117553008Y-52547270D01*
X117562006Y-52517605D01*
X117576622Y-52490261D01*
X117596292Y-52466292D01*
X117620261Y-52446622D01*
X117647605Y-52432006D01*
X117677270Y-52423008D01*
X117717957Y-52419000D01*
X118882043Y-52419000D01*
X118922730Y-52423008D01*
G37*
G36*
X109922730Y-52398008D02*
G01*
X109952395Y-52407006D01*
X109979739Y-52421622D01*
X110003708Y-52441292D01*
X110023378Y-52465261D01*
X110037994Y-52492605D01*
X110046992Y-52522270D01*
X110051000Y-52562957D01*
X110051000Y-53477043D01*
X110046992Y-53517730D01*
X110037994Y-53547395D01*
X110023378Y-53574739D01*
X110003708Y-53598708D01*
X109979739Y-53618378D01*
X109952395Y-53632994D01*
X109922730Y-53641992D01*
X109882043Y-53646000D01*
X108717957Y-53646000D01*
X108677270Y-53641992D01*
X108647605Y-53632994D01*
X108620261Y-53618378D01*
X108596292Y-53598708D01*
X108576622Y-53574739D01*
X108562006Y-53547395D01*
X108553008Y-53517730D01*
X108549000Y-53477043D01*
X108549000Y-52562957D01*
X108553008Y-52522270D01*
X108562006Y-52492605D01*
X108576622Y-52465261D01*
X108596292Y-52441292D01*
X108620261Y-52421622D01*
X108647605Y-52407006D01*
X108677270Y-52398008D01*
X108717957Y-52394000D01*
X109882043Y-52394000D01*
X109922730Y-52398008D01*
G37*
G36*
X127549306Y-50346782D02*
G01*
X127591424Y-50359559D01*
X127630244Y-50380308D01*
X127664268Y-50408232D01*
X127692192Y-50442256D01*
X127712941Y-50481076D01*
X127725718Y-50523194D01*
X127731000Y-50576827D01*
X127731000Y-53208173D01*
X127725718Y-53261806D01*
X127712941Y-53303924D01*
X127692192Y-53342744D01*
X127664268Y-53376768D01*
X127630244Y-53404692D01*
X127591424Y-53425441D01*
X127549306Y-53438218D01*
X127495673Y-53443500D01*
X126664327Y-53443500D01*
X126610694Y-53438218D01*
X126568576Y-53425441D01*
X126529756Y-53404692D01*
X126495732Y-53376768D01*
X126467808Y-53342744D01*
X126447059Y-53303924D01*
X126434282Y-53261806D01*
X126429000Y-53208173D01*
X126429000Y-50576827D01*
X126434282Y-50523194D01*
X126447059Y-50481076D01*
X126467808Y-50442256D01*
X126495732Y-50408232D01*
X126529756Y-50380308D01*
X126568576Y-50359559D01*
X126610694Y-50346782D01*
X126664327Y-50341500D01*
X127495673Y-50341500D01*
X127549306Y-50346782D01*
G37*
G36*
X129549306Y-50346782D02*
G01*
X129591424Y-50359559D01*
X129630244Y-50380308D01*
X129664268Y-50408232D01*
X129692192Y-50442256D01*
X129712941Y-50481076D01*
X129725718Y-50523194D01*
X129731000Y-50576827D01*
X129731000Y-53208173D01*
X129725718Y-53261806D01*
X129712941Y-53303924D01*
X129692192Y-53342744D01*
X129664268Y-53376768D01*
X129630244Y-53404692D01*
X129591424Y-53425441D01*
X129549306Y-53438218D01*
X129495673Y-53443500D01*
X128664327Y-53443500D01*
X128610694Y-53438218D01*
X128568576Y-53425441D01*
X128529756Y-53404692D01*
X128495732Y-53376768D01*
X128467808Y-53342744D01*
X128447059Y-53303924D01*
X128434282Y-53261806D01*
X128429000Y-53208173D01*
X128429000Y-50576827D01*
X128434282Y-50523194D01*
X128447059Y-50481076D01*
X128467808Y-50442256D01*
X128495732Y-50408232D01*
X128529756Y-50380308D01*
X128568576Y-50359559D01*
X128610694Y-50346782D01*
X128664327Y-50341500D01*
X129495673Y-50341500D01*
X129549306Y-50346782D01*
G37*
G36*
X125549306Y-50346782D02*
G01*
X125591424Y-50359559D01*
X125630244Y-50380308D01*
X125664268Y-50408232D01*
X125692192Y-50442256D01*
X125712941Y-50481076D01*
X125725718Y-50523194D01*
X125731000Y-50576827D01*
X125731000Y-53208173D01*
X125725718Y-53261806D01*
X125712941Y-53303924D01*
X125692192Y-53342744D01*
X125664268Y-53376768D01*
X125630244Y-53404692D01*
X125591424Y-53425441D01*
X125549306Y-53438218D01*
X125495673Y-53443500D01*
X124664327Y-53443500D01*
X124610694Y-53438218D01*
X124568576Y-53425441D01*
X124529756Y-53404692D01*
X124495732Y-53376768D01*
X124467808Y-53342744D01*
X124447059Y-53303924D01*
X124434282Y-53261806D01*
X124429000Y-53208173D01*
X124429000Y-50576827D01*
X124434282Y-50523194D01*
X124447059Y-50481076D01*
X124467808Y-50442256D01*
X124495732Y-50408232D01*
X124529756Y-50380308D01*
X124568576Y-50359559D01*
X124610694Y-50346782D01*
X124664327Y-50341500D01*
X125495673Y-50341500D01*
X125549306Y-50346782D01*
G37*
G36*
X133549306Y-50346782D02*
G01*
X133591424Y-50359559D01*
X133630244Y-50380308D01*
X133664268Y-50408232D01*
X133692192Y-50442256D01*
X133712941Y-50481076D01*
X133725718Y-50523194D01*
X133731000Y-50576827D01*
X133731000Y-53208173D01*
X133725718Y-53261806D01*
X133712941Y-53303924D01*
X133692192Y-53342744D01*
X133664268Y-53376768D01*
X133630244Y-53404692D01*
X133591424Y-53425441D01*
X133549306Y-53438218D01*
X133495673Y-53443500D01*
X132664327Y-53443500D01*
X132610694Y-53438218D01*
X132568576Y-53425441D01*
X132529756Y-53404692D01*
X132495732Y-53376768D01*
X132467808Y-53342744D01*
X132447059Y-53303924D01*
X132434282Y-53261806D01*
X132429000Y-53208173D01*
X132429000Y-50576827D01*
X132434282Y-50523194D01*
X132447059Y-50481076D01*
X132467808Y-50442256D01*
X132495732Y-50408232D01*
X132529756Y-50380308D01*
X132568576Y-50359559D01*
X132610694Y-50346782D01*
X132664327Y-50341500D01*
X133495673Y-50341500D01*
X133549306Y-50346782D01*
G37*
G36*
X139549306Y-50346782D02*
G01*
X139591424Y-50359559D01*
X139630244Y-50380308D01*
X139664268Y-50408232D01*
X139692192Y-50442256D01*
X139712941Y-50481076D01*
X139725718Y-50523194D01*
X139731000Y-50576827D01*
X139731000Y-53208173D01*
X139725718Y-53261806D01*
X139712941Y-53303924D01*
X139692192Y-53342744D01*
X139664268Y-53376768D01*
X139630244Y-53404692D01*
X139591424Y-53425441D01*
X139549306Y-53438218D01*
X139495673Y-53443500D01*
X138664327Y-53443500D01*
X138610694Y-53438218D01*
X138568576Y-53425441D01*
X138529756Y-53404692D01*
X138495732Y-53376768D01*
X138467808Y-53342744D01*
X138447059Y-53303924D01*
X138434282Y-53261806D01*
X138429000Y-53208173D01*
X138429000Y-50576827D01*
X138434282Y-50523194D01*
X138447059Y-50481076D01*
X138467808Y-50442256D01*
X138495732Y-50408232D01*
X138529756Y-50380308D01*
X138568576Y-50359559D01*
X138610694Y-50346782D01*
X138664327Y-50341500D01*
X139495673Y-50341500D01*
X139549306Y-50346782D01*
G37*
G36*
X131549306Y-50346782D02*
G01*
X131591424Y-50359559D01*
X131630244Y-50380308D01*
X131664268Y-50408232D01*
X131692192Y-50442256D01*
X131712941Y-50481076D01*
X131725718Y-50523194D01*
X131731000Y-50576827D01*
X131731000Y-53208173D01*
X131725718Y-53261806D01*
X131712941Y-53303924D01*
X131692192Y-53342744D01*
X131664268Y-53376768D01*
X131630244Y-53404692D01*
X131591424Y-53425441D01*
X131549306Y-53438218D01*
X131495673Y-53443500D01*
X130664327Y-53443500D01*
X130610694Y-53438218D01*
X130568576Y-53425441D01*
X130529756Y-53404692D01*
X130495732Y-53376768D01*
X130467808Y-53342744D01*
X130447059Y-53303924D01*
X130434282Y-53261806D01*
X130429000Y-53208173D01*
X130429000Y-50576827D01*
X130434282Y-50523194D01*
X130447059Y-50481076D01*
X130467808Y-50442256D01*
X130495732Y-50408232D01*
X130529756Y-50380308D01*
X130568576Y-50359559D01*
X130610694Y-50346782D01*
X130664327Y-50341500D01*
X131495673Y-50341500D01*
X131549306Y-50346782D01*
G37*
G36*
X135549306Y-50346782D02*
G01*
X135591424Y-50359559D01*
X135630244Y-50380308D01*
X135664268Y-50408232D01*
X135692192Y-50442256D01*
X135712941Y-50481076D01*
X135725718Y-50523194D01*
X135731000Y-50576827D01*
X135731000Y-53208173D01*
X135725718Y-53261806D01*
X135712941Y-53303924D01*
X135692192Y-53342744D01*
X135664268Y-53376768D01*
X135630244Y-53404692D01*
X135591424Y-53425441D01*
X135549306Y-53438218D01*
X135495673Y-53443500D01*
X134664327Y-53443500D01*
X134610694Y-53438218D01*
X134568576Y-53425441D01*
X134529756Y-53404692D01*
X134495732Y-53376768D01*
X134467808Y-53342744D01*
X134447059Y-53303924D01*
X134434282Y-53261806D01*
X134429000Y-53208173D01*
X134429000Y-50576827D01*
X134434282Y-50523194D01*
X134447059Y-50481076D01*
X134467808Y-50442256D01*
X134495732Y-50408232D01*
X134529756Y-50380308D01*
X134568576Y-50359559D01*
X134610694Y-50346782D01*
X134664327Y-50341500D01*
X135495673Y-50341500D01*
X135549306Y-50346782D01*
G37*
G36*
X137549306Y-50346782D02*
G01*
X137591424Y-50359559D01*
X137630244Y-50380308D01*
X137664268Y-50408232D01*
X137692192Y-50442256D01*
X137712941Y-50481076D01*
X137725718Y-50523194D01*
X137731000Y-50576827D01*
X137731000Y-53208173D01*
X137725718Y-53261806D01*
X137712941Y-53303924D01*
X137692192Y-53342744D01*
X137664268Y-53376768D01*
X137630244Y-53404692D01*
X137591424Y-53425441D01*
X137549306Y-53438218D01*
X137495673Y-53443500D01*
X136664327Y-53443500D01*
X136610694Y-53438218D01*
X136568576Y-53425441D01*
X136529756Y-53404692D01*
X136495732Y-53376768D01*
X136467808Y-53342744D01*
X136447059Y-53303924D01*
X136434282Y-53261806D01*
X136429000Y-53208173D01*
X136429000Y-50576827D01*
X136434282Y-50523194D01*
X136447059Y-50481076D01*
X136467808Y-50442256D01*
X136495732Y-50408232D01*
X136529756Y-50380308D01*
X136568576Y-50359559D01*
X136610694Y-50346782D01*
X136664327Y-50341500D01*
X137495673Y-50341500D01*
X137549306Y-50346782D01*
G37*
G36*
X150408014Y-50976973D02*
G01*
X150511878Y-51008479D01*
X150607600Y-51059644D01*
X150691501Y-51128499D01*
X150691503Y-51128502D01*
X150692123Y-51129011D01*
X150724722Y-51150793D01*
X150760944Y-51165797D01*
X150799397Y-51173446D01*
X150838604Y-51173446D01*
X150877057Y-51165797D01*
X150913279Y-51150794D01*
X150945879Y-51129012D01*
X150973602Y-51101288D01*
X150995384Y-51068689D01*
X151010388Y-51032467D01*
X151018037Y-50994014D01*
X151019000Y-50974410D01*
X151019000Y-50969000D01*
X152121000Y-50969000D01*
X152121000Y-52571000D01*
X151019000Y-52571000D01*
X151019000Y-52565590D01*
X151015157Y-52526572D01*
X151003776Y-52489054D01*
X150985294Y-52454477D01*
X150960422Y-52424169D01*
X150930114Y-52399297D01*
X150895537Y-52380815D01*
X150858019Y-52369434D01*
X150819001Y-52365591D01*
X150779983Y-52369434D01*
X150742465Y-52380815D01*
X150707888Y-52399297D01*
X150692122Y-52410990D01*
X150691504Y-52411497D01*
X150691501Y-52411501D01*
X150655200Y-52441292D01*
X150607602Y-52480355D01*
X150607600Y-52480356D01*
X150511879Y-52531521D01*
X150408015Y-52563027D01*
X150300000Y-52573666D01*
X150191986Y-52563027D01*
X150088122Y-52531521D01*
X149992401Y-52480356D01*
X149908500Y-52411501D01*
X149839645Y-52327600D01*
X149839644Y-52327599D01*
X149837304Y-52324748D01*
X149819603Y-52298257D01*
X149791880Y-52270533D01*
X149759281Y-52248751D01*
X149723059Y-52233747D01*
X149684606Y-52226097D01*
X149645399Y-52226097D01*
X149606946Y-52233745D01*
X149570723Y-52248748D01*
X149538124Y-52270530D01*
X149510400Y-52298253D01*
X149492697Y-52324747D01*
X149490357Y-52327599D01*
X149490356Y-52327600D01*
X149421501Y-52411501D01*
X149337600Y-52480356D01*
X149241879Y-52531521D01*
X149138015Y-52563027D01*
X149030000Y-52573666D01*
X148921986Y-52563027D01*
X148818122Y-52531521D01*
X148722401Y-52480356D01*
X148638500Y-52411501D01*
X148598432Y-52362678D01*
X148569643Y-52327599D01*
X148532154Y-52257460D01*
X148518480Y-52231879D01*
X148486973Y-52128015D01*
X148479000Y-52047067D01*
X148479000Y-51492934D01*
X148486973Y-51411986D01*
X148518479Y-51308122D01*
X148569644Y-51212400D01*
X148638499Y-51128499D01*
X148722400Y-51059644D01*
X148818121Y-51008479D01*
X148921985Y-50976973D01*
X149030000Y-50966334D01*
X149138014Y-50976973D01*
X149241878Y-51008479D01*
X149337600Y-51059644D01*
X149421501Y-51128499D01*
X149490355Y-51212399D01*
X149492697Y-51215253D01*
X149510397Y-51241743D01*
X149538120Y-51269467D01*
X149570719Y-51291249D01*
X149606941Y-51306253D01*
X149645394Y-51313903D01*
X149684601Y-51313903D01*
X149723054Y-51306255D01*
X149759277Y-51291252D01*
X149791876Y-51269470D01*
X149819600Y-51241747D01*
X149837305Y-51215251D01*
X149839643Y-51212403D01*
X149839644Y-51212400D01*
X149908499Y-51128499D01*
X149992400Y-51059644D01*
X150088121Y-51008479D01*
X150191985Y-50976973D01*
X150300000Y-50966334D01*
X150408014Y-50976973D01*
G37*
G36*
X113888014Y-50726973D02*
G01*
X113991878Y-50758479D01*
X114087600Y-50809644D01*
X114171501Y-50878499D01*
X114171503Y-50878502D01*
X114172123Y-50879011D01*
X114204722Y-50900793D01*
X114240944Y-50915797D01*
X114279397Y-50923446D01*
X114318604Y-50923446D01*
X114357057Y-50915797D01*
X114393279Y-50900794D01*
X114425879Y-50879012D01*
X114453602Y-50851288D01*
X114475384Y-50818689D01*
X114490388Y-50782467D01*
X114498037Y-50744014D01*
X114499000Y-50724410D01*
X114499000Y-50719000D01*
X115601000Y-50719000D01*
X115601000Y-52321000D01*
X114499000Y-52321000D01*
X114499000Y-52315590D01*
X114495157Y-52276572D01*
X114483776Y-52239054D01*
X114465294Y-52204477D01*
X114440422Y-52174169D01*
X114410114Y-52149297D01*
X114375537Y-52130815D01*
X114338019Y-52119434D01*
X114299001Y-52115591D01*
X114259983Y-52119434D01*
X114222465Y-52130815D01*
X114187888Y-52149297D01*
X114172122Y-52160990D01*
X114171504Y-52161497D01*
X114171501Y-52161501D01*
X114119134Y-52204477D01*
X114087602Y-52230355D01*
X114087600Y-52230356D01*
X113991879Y-52281521D01*
X113888015Y-52313027D01*
X113780000Y-52323666D01*
X113671986Y-52313027D01*
X113568122Y-52281521D01*
X113472401Y-52230356D01*
X113388500Y-52161501D01*
X113319645Y-52077600D01*
X113319644Y-52077599D01*
X113317304Y-52074748D01*
X113299603Y-52048257D01*
X113271880Y-52020533D01*
X113239281Y-51998751D01*
X113203059Y-51983747D01*
X113164606Y-51976097D01*
X113125399Y-51976097D01*
X113086946Y-51983745D01*
X113050723Y-51998748D01*
X113018124Y-52020530D01*
X112990400Y-52048253D01*
X112972697Y-52074747D01*
X112970357Y-52077599D01*
X112970356Y-52077600D01*
X112901501Y-52161501D01*
X112817600Y-52230356D01*
X112721879Y-52281521D01*
X112618015Y-52313027D01*
X112510000Y-52323666D01*
X112401986Y-52313027D01*
X112298122Y-52281521D01*
X112202401Y-52230356D01*
X112118500Y-52161501D01*
X112078432Y-52112678D01*
X112049643Y-52077599D01*
X112012154Y-52007460D01*
X111998480Y-51981879D01*
X111966973Y-51878015D01*
X111959000Y-51797067D01*
X111959000Y-51242934D01*
X111966973Y-51161986D01*
X111998479Y-51058122D01*
X112049644Y-50962400D01*
X112118499Y-50878499D01*
X112202400Y-50809644D01*
X112298121Y-50758479D01*
X112401985Y-50726973D01*
X112510000Y-50716334D01*
X112618014Y-50726973D01*
X112721878Y-50758479D01*
X112817600Y-50809644D01*
X112901501Y-50878499D01*
X112970355Y-50962399D01*
X112972697Y-50965253D01*
X112990397Y-50991743D01*
X113018120Y-51019467D01*
X113050719Y-51041249D01*
X113086941Y-51056253D01*
X113125394Y-51063903D01*
X113164601Y-51063903D01*
X113203054Y-51056255D01*
X113239277Y-51041252D01*
X113271876Y-51019470D01*
X113299600Y-50991747D01*
X113317305Y-50965251D01*
X113319643Y-50962403D01*
X113319644Y-50962400D01*
X113388499Y-50878499D01*
X113472400Y-50809644D01*
X113568121Y-50758479D01*
X113671985Y-50726973D01*
X113780000Y-50716334D01*
X113888014Y-50726973D01*
G37*
G36*
X118922730Y-50373008D02*
G01*
X118952395Y-50382006D01*
X118979739Y-50396622D01*
X119003708Y-50416292D01*
X119023378Y-50440261D01*
X119037994Y-50467605D01*
X119046992Y-50497270D01*
X119051000Y-50537957D01*
X119051000Y-51452043D01*
X119046992Y-51492730D01*
X119037994Y-51522395D01*
X119023378Y-51549739D01*
X119003708Y-51573708D01*
X118979739Y-51593378D01*
X118952395Y-51607994D01*
X118922730Y-51616992D01*
X118882043Y-51621000D01*
X117717957Y-51621000D01*
X117677270Y-51616992D01*
X117647605Y-51607994D01*
X117620261Y-51593378D01*
X117596292Y-51573708D01*
X117576622Y-51549739D01*
X117562006Y-51522395D01*
X117553008Y-51492730D01*
X117549000Y-51452043D01*
X117549000Y-50537957D01*
X117553008Y-50497270D01*
X117562006Y-50467605D01*
X117576622Y-50440261D01*
X117596292Y-50416292D01*
X117620261Y-50396622D01*
X117647605Y-50382006D01*
X117677270Y-50373008D01*
X117717957Y-50369000D01*
X118882043Y-50369000D01*
X118922730Y-50373008D01*
G37*
G36*
X109922730Y-50348008D02*
G01*
X109952395Y-50357006D01*
X109979739Y-50371622D01*
X110003708Y-50391292D01*
X110023378Y-50415261D01*
X110037994Y-50442605D01*
X110046992Y-50472270D01*
X110051000Y-50512957D01*
X110051000Y-51427043D01*
X110046992Y-51467730D01*
X110037994Y-51497395D01*
X110023378Y-51524739D01*
X110003708Y-51548708D01*
X109979739Y-51568378D01*
X109952395Y-51582994D01*
X109922730Y-51591992D01*
X109882043Y-51596000D01*
X108717957Y-51596000D01*
X108677270Y-51591992D01*
X108647605Y-51582994D01*
X108620261Y-51568378D01*
X108596292Y-51548708D01*
X108576622Y-51524739D01*
X108562006Y-51497395D01*
X108553008Y-51467730D01*
X108549000Y-51427043D01*
X108549000Y-50512957D01*
X108553008Y-50472270D01*
X108562006Y-50442605D01*
X108576622Y-50415261D01*
X108596292Y-50391292D01*
X108620261Y-50371622D01*
X108647605Y-50357006D01*
X108677270Y-50348008D01*
X108717957Y-50344000D01*
X109882043Y-50344000D01*
X109922730Y-50348008D01*
G37*
G36*
X111172730Y-47448008D02*
G01*
X111202395Y-47457006D01*
X111229739Y-47471622D01*
X111253708Y-47491292D01*
X111273378Y-47515261D01*
X111287994Y-47542605D01*
X111296992Y-47572270D01*
X111301000Y-47612957D01*
X111301000Y-48527043D01*
X111296992Y-48567730D01*
X111287994Y-48597395D01*
X111273378Y-48624739D01*
X111253708Y-48648708D01*
X111229739Y-48668378D01*
X111202395Y-48682994D01*
X111172730Y-48691992D01*
X111132043Y-48696000D01*
X109967957Y-48696000D01*
X109927270Y-48691992D01*
X109897605Y-48682994D01*
X109870261Y-48668378D01*
X109846292Y-48648708D01*
X109826622Y-48624739D01*
X109812006Y-48597395D01*
X109803008Y-48567730D01*
X109799000Y-48527043D01*
X109799000Y-47612957D01*
X109803008Y-47572270D01*
X109812006Y-47542605D01*
X109826622Y-47515261D01*
X109846292Y-47491292D01*
X109870261Y-47471622D01*
X109897605Y-47457006D01*
X109927270Y-47448008D01*
X109967957Y-47444000D01*
X111132043Y-47444000D01*
X111172730Y-47448008D01*
G37*
G36*
X117922730Y-47423008D02*
G01*
X117952395Y-47432006D01*
X117979739Y-47446622D01*
X118003708Y-47466292D01*
X118023378Y-47490261D01*
X118037994Y-47517605D01*
X118046992Y-47547270D01*
X118051000Y-47587957D01*
X118051000Y-48502043D01*
X118046992Y-48542730D01*
X118037994Y-48572395D01*
X118023378Y-48599739D01*
X118003708Y-48623708D01*
X117979739Y-48643378D01*
X117952395Y-48657994D01*
X117922730Y-48666992D01*
X117882043Y-48671000D01*
X116717957Y-48671000D01*
X116677270Y-48666992D01*
X116647605Y-48657994D01*
X116620261Y-48643378D01*
X116596292Y-48623708D01*
X116576622Y-48599739D01*
X116562006Y-48572395D01*
X116553008Y-48542730D01*
X116549000Y-48502043D01*
X116549000Y-47587957D01*
X116553008Y-47547270D01*
X116562006Y-47517605D01*
X116576622Y-47490261D01*
X116596292Y-47466292D01*
X116620261Y-47446622D01*
X116647605Y-47432006D01*
X116677270Y-47423008D01*
X116717957Y-47419000D01*
X117882043Y-47419000D01*
X117922730Y-47423008D01*
G37*
G36*
X115672730Y-47423008D02*
G01*
X115702395Y-47432006D01*
X115729739Y-47446622D01*
X115753708Y-47466292D01*
X115773378Y-47490261D01*
X115787994Y-47517605D01*
X115796992Y-47547270D01*
X115801000Y-47587957D01*
X115801000Y-48502043D01*
X115796992Y-48542730D01*
X115787994Y-48572395D01*
X115773378Y-48599739D01*
X115753708Y-48623708D01*
X115729739Y-48643378D01*
X115702395Y-48657994D01*
X115672730Y-48666992D01*
X115632043Y-48671000D01*
X114467957Y-48671000D01*
X114427270Y-48666992D01*
X114397605Y-48657994D01*
X114370261Y-48643378D01*
X114346292Y-48623708D01*
X114326622Y-48599739D01*
X114312006Y-48572395D01*
X114303008Y-48542730D01*
X114299000Y-48502043D01*
X114299000Y-47587957D01*
X114303008Y-47547270D01*
X114312006Y-47517605D01*
X114326622Y-47490261D01*
X114346292Y-47466292D01*
X114370261Y-47446622D01*
X114397605Y-47432006D01*
X114427270Y-47423008D01*
X114467957Y-47419000D01*
X115632043Y-47419000D01*
X115672730Y-47423008D01*
G37*
G36*
X113422730Y-47423008D02*
G01*
X113452395Y-47432006D01*
X113479739Y-47446622D01*
X113503708Y-47466292D01*
X113523378Y-47490261D01*
X113537994Y-47517605D01*
X113546992Y-47547270D01*
X113551000Y-47587957D01*
X113551000Y-48502043D01*
X113546992Y-48542730D01*
X113537994Y-48572395D01*
X113523378Y-48599739D01*
X113503708Y-48623708D01*
X113479739Y-48643378D01*
X113452395Y-48657994D01*
X113422730Y-48666992D01*
X113382043Y-48671000D01*
X112217957Y-48671000D01*
X112177270Y-48666992D01*
X112147605Y-48657994D01*
X112120261Y-48643378D01*
X112096292Y-48623708D01*
X112076622Y-48599739D01*
X112062006Y-48572395D01*
X112053008Y-48542730D01*
X112049000Y-48502043D01*
X112049000Y-47587957D01*
X112053008Y-47547270D01*
X112062006Y-47517605D01*
X112076622Y-47490261D01*
X112096292Y-47466292D01*
X112120261Y-47446622D01*
X112147605Y-47432006D01*
X112177270Y-47423008D01*
X112217957Y-47419000D01*
X113382043Y-47419000D01*
X113422730Y-47423008D01*
G37*
G36*
X111172730Y-45398008D02*
G01*
X111202395Y-45407006D01*
X111229739Y-45421622D01*
X111253708Y-45441292D01*
X111273378Y-45465261D01*
X111287994Y-45492605D01*
X111296992Y-45522270D01*
X111301000Y-45562957D01*
X111301000Y-46477043D01*
X111296992Y-46517730D01*
X111287994Y-46547395D01*
X111273378Y-46574739D01*
X111253708Y-46598708D01*
X111229739Y-46618378D01*
X111202395Y-46632994D01*
X111172730Y-46641992D01*
X111132043Y-46646000D01*
X109967957Y-46646000D01*
X109927270Y-46641992D01*
X109897605Y-46632994D01*
X109870261Y-46618378D01*
X109846292Y-46598708D01*
X109826622Y-46574739D01*
X109812006Y-46547395D01*
X109803008Y-46517730D01*
X109799000Y-46477043D01*
X109799000Y-45562957D01*
X109803008Y-45522270D01*
X109812006Y-45492605D01*
X109826622Y-45465261D01*
X109846292Y-45441292D01*
X109870261Y-45421622D01*
X109897605Y-45407006D01*
X109927270Y-45398008D01*
X109967957Y-45394000D01*
X111132043Y-45394000D01*
X111172730Y-45398008D01*
G37*
G36*
X117922730Y-45373008D02*
G01*
X117952395Y-45382006D01*
X117979739Y-45396622D01*
X118003708Y-45416292D01*
X118023378Y-45440261D01*
X118037994Y-45467605D01*
X118046992Y-45497270D01*
X118051000Y-45537957D01*
X118051000Y-46452043D01*
X118046992Y-46492730D01*
X118037994Y-46522395D01*
X118023378Y-46549739D01*
X118003708Y-46573708D01*
X117979739Y-46593378D01*
X117952395Y-46607994D01*
X117922730Y-46616992D01*
X117882043Y-46621000D01*
X116717957Y-46621000D01*
X116677270Y-46616992D01*
X116647605Y-46607994D01*
X116620261Y-46593378D01*
X116596292Y-46573708D01*
X116576622Y-46549739D01*
X116562006Y-46522395D01*
X116553008Y-46492730D01*
X116549000Y-46452043D01*
X116549000Y-45537957D01*
X116553008Y-45497270D01*
X116562006Y-45467605D01*
X116576622Y-45440261D01*
X116596292Y-45416292D01*
X116620261Y-45396622D01*
X116647605Y-45382006D01*
X116677270Y-45373008D01*
X116717957Y-45369000D01*
X117882043Y-45369000D01*
X117922730Y-45373008D01*
G37*
G36*
X115672730Y-45373008D02*
G01*
X115702395Y-45382006D01*
X115729739Y-45396622D01*
X115753708Y-45416292D01*
X115773378Y-45440261D01*
X115787994Y-45467605D01*
X115796992Y-45497270D01*
X115801000Y-45537957D01*
X115801000Y-46452043D01*
X115796992Y-46492730D01*
X115787994Y-46522395D01*
X115773378Y-46549739D01*
X115753708Y-46573708D01*
X115729739Y-46593378D01*
X115702395Y-46607994D01*
X115672730Y-46616992D01*
X115632043Y-46621000D01*
X114467957Y-46621000D01*
X114427270Y-46616992D01*
X114397605Y-46607994D01*
X114370261Y-46593378D01*
X114346292Y-46573708D01*
X114326622Y-46549739D01*
X114312006Y-46522395D01*
X114303008Y-46492730D01*
X114299000Y-46452043D01*
X114299000Y-45537957D01*
X114303008Y-45497270D01*
X114312006Y-45467605D01*
X114326622Y-45440261D01*
X114346292Y-45416292D01*
X114370261Y-45396622D01*
X114397605Y-45382006D01*
X114427270Y-45373008D01*
X114467957Y-45369000D01*
X115632043Y-45369000D01*
X115672730Y-45373008D01*
G37*
G36*
X113422730Y-45373008D02*
G01*
X113452395Y-45382006D01*
X113479739Y-45396622D01*
X113503708Y-45416292D01*
X113523378Y-45440261D01*
X113537994Y-45467605D01*
X113546992Y-45497270D01*
X113551000Y-45537957D01*
X113551000Y-46452043D01*
X113546992Y-46492730D01*
X113537994Y-46522395D01*
X113523378Y-46549739D01*
X113503708Y-46573708D01*
X113479739Y-46593378D01*
X113452395Y-46607994D01*
X113422730Y-46616992D01*
X113382043Y-46621000D01*
X112217957Y-46621000D01*
X112177270Y-46616992D01*
X112147605Y-46607994D01*
X112120261Y-46593378D01*
X112096292Y-46573708D01*
X112076622Y-46549739D01*
X112062006Y-46522395D01*
X112053008Y-46492730D01*
X112049000Y-46452043D01*
X112049000Y-45537957D01*
X112053008Y-45497270D01*
X112062006Y-45467605D01*
X112076622Y-45440261D01*
X112096292Y-45416292D01*
X112120261Y-45396622D01*
X112147605Y-45382006D01*
X112177270Y-45373008D01*
X112217957Y-45369000D01*
X113382043Y-45369000D01*
X113422730Y-45373008D01*
G37*
M02*
